/* XPM */
static char *result[] = {
/* columns rows colors chars-per-pixel */
"80 80 243 2 ",
"   c #040073",
".  c #050173",
"X  c #110E7A",
"o  c #060274",
"O  c #030073",
"+  c #070375",
"@  c #110D7A",
"#  c #090576",
"$  c #0B0777",
"%  c #5A58A3",
"&  c #130F7B",
"*  c #050174",
"=  c #0D0978",
"-  c #030072",
";  c #19157F",
":  c #5755A1",
">  c #010071",
",  c #322F8D",
"<  c #434096",
"1  c #18147E",
"2  c #070475",
"3  c #0A0676",
"4  c #6361A8",
"5  c #17137D",
"6  c #100C7A",
"7  c #15117C",
"8  c #020072",
"9  c #2A2788",
"0  c #494699",
"q  c #716FB0",
"w  c #080475",
"e  c #5653A1",
"r  c #16137D",
"t  c #100C79",
"y  c #1D1981",
"u  c #211D83",
"i  c #4F4C9D",
"p  c #292688",
"a  c #201D83",
"s  c #0A0677",
"d  c #1B1780",
"f  c #B3B2D5",
"g  c #8E8CC0",
"h  c #17147E",
"j  c #BFBEDC",
"k  c #807EB8",
"l  c #0C0877",
"z  c #8A89BE",
"x  c #4B489B",
"c  c #52509F",
"v  c #262286",
"b  c #0E0A79",
"n  c #8B89BE",
"m  c #5452A0",
"M  c #504D9D",
"N  c #14107C",
"B  c #201C82",
"V  c #0F0B79",
"C  c #2C2989",
"Z  c #1E1B82",
"A  c #464398",
"S  c #221E84",
"D  c #120E7B",
"F  c #2B2889",
"G  c #6F6CAF",
"H  c #BCBBDA",
"J  c #19167F",
"K  c #242085",
"L  c #3E3B93",
"P  c #5855A2",
"I  c #9F9DC9",
"U  c #444197",
"Y  c #423F95",
"T  c #1A177F",
"R  c #13107C",
"E  c #2D2A8A",
"W  c #221F84",
"Q  c #BEBDDB",
"!  c #1E1A82",
"~  c #B2B1D4",
"^  c #4C499B",
"/  c #010072",
"(  c #3A3791",
")  c #2F2C8B",
"_  c #221E83",
"`  c #393691",
"'  c #383590",
"]  c #19157E",
"[  c #332F8D",
"{  c #242185",
"}  c #292588",
"|  c #33308D",
" . c #373490",
".. c #282587",
"X. c #454297",
"o. c #17137E",
"O. c #403D95",
"+. c #1D1A81",
"@. c #292587",
"#. c #201C83",
"$. c #1E1A81",
"%. c #4D4A9C",
"&. c #7A78B5",
"*. c #7876B4",
"=. c #454398",
"-. c #272487",
";. c #0F0C79",
":. c #000071",
">. c #36338F",
",. c #9F9ECA",
"<. c #9D9CC8",
"1. c #070374",
"2. c #49469A",
"3. c #3B3892",
"4. c #37348F",
"5. c #504D9E",
"6. c #8482BA",
"7. c #5653A0",
"8. c #0E0A78",
"9. c #474599",
"0. c #262386",
"q. c #110E7B",
"w. c #C2C1DD",
"e. c #14117C",
"r. c #1F1B82",
"t. c #282487",
"y. c #484599",
"u. c #2E2A8A",
"i. c #5451A0",
"p. c #35328E",
"a. c #18157E",
"s. c #5553A0",
"d. c #9190C2",
"f. c #1C1880",
"g. c #080575",
"h. c #34318E",
"j. c #6D6BAE",
"k. c #444196",
"l. c #302D8C",
"z. c #5754A1",
"x. c #1A167F",
"c. c #7D7BB6",
"v. c #5F5CA6",
"b. c #2E2B8A",
"n. c #5D5AA4",
"m. c #0C0978",
"M. c #3C3992",
"N. c #0C0878",
"B. c #5C5AA4",
"V. c #1F1C82",
"C. c #524F9E",
"Z. c #A3A1CC",
"A. c #7E7CB7",
"S. c #5C59A4",
"D. c #5956A2",
"F. c #1B1880",
"G. c #53509F",
"H. c #6664AA",
"J. c #D0CFE5",
"K. c #716EB0",
"L. c #5552A0",
"P. c #53519F",
"I. c #3D3A93",
"U. c #9593C4",
"Y. c #232084",
"T. c #504E9E",
"R. c #272386",
"E. c #CBCAE2",
"W. c #5F5DA6",
"Q. c #0E0879",
"!. c #2E208D",
"~. c #312E8C",
"^. c #383490",
"/. c #706EAF",
"(. c #A09ECA",
"). c #413E95",
"_. c #050074",
"`. c #070076",
"'. c #C5C4DF",
"]. c #211E83",
"[. c #1C1981",
"{. c #6563A9",
"}. c #5654A1",
"|. c #35328F",
" X c #5D5AA5",
".X c #2B2789",
"XX c #4A479A",
"oX c #A2A1CB",
"OX c #16127D",
"+X c #4B489A",
"@X c #6A67AC",
"#X c #3F3C94",
"$X c #37338F",
"%X c #232085",
"&X c #393590",
"*X c #474498",
"=X c #0B0877",
"-X c #35318E",
";X c #0E0B79",
":X c #2C2889",
">X c #7977B4",
",X c #6B69AC",
"<X c #36328F",
"1X c #1A1780",
"2X c #7674B3",
"3X c #120F7B",
"4X c #C5C4DE",
"5X c #6C69AD",
"6X c #6D6AAD",
"7X c #484699",
"8X c #393690",
"9X c #8987BD",
"0X c #8A88BE",
"qX c #1C1980",
"wX c #5B59A4",
"eX c #6A68AC",
"rX c #7371B1",
"tX c #050274",
"yX c #2A2688",
"uX c #5E5BA5",
"iX c #6866AB",
"pX c #514E9E",
"aX c #DAD9EA",
"sX c #3B3791",
"dX c #9391C3",
"fX c #4E4B9C",
"gX c #B6B5D6",
"hX c #423F96",
"jX c #252185",
"kX c #34308E",
"lX c #090676",
"zX c #B9B8D8",
"xX c #231F84",
"cX c #A4A2CC",
"vX c #302C8B",
"bX c #9E9DC9",
"nX c #D4D4E7",
"mX c #060374",
"MX c #5B58A3",
"NX c #4D4B9C",
"BX c #100D7A",
"VX c #ADABD1",
"CX c white",
/* pixels */
"                                    . X o                                                   O                       + @                                         ",
"                      # $           + % & O                                               * = .                   - ; : .                                       ",
"                    > , < >         . 1 +                                         2 3   O @ 4 3                     # 5                                         ",
"                    O 6 7 O           -               3 *                       8 9 0 8 O & q $                     . w                                         ",
"                      O -                   + o     * e r -                     O t ; O   + y *                     u % .                                       ",
"            + .                           - i p 8     a s                         O -       8                   8 d f g O                                       ",
"      o     i d -                       - h j k -     8             o                                           O l z x 8                                       ",
"    l c $   v b O           .           O $ n m 8                 o M N O                                         - B V O                                       ",
"    w C w   8 O         8 Z A -           - S D -                 * F l                                             8 O                                         ",
"      8                 8 G H J -           8 O                     8           8 K L 8                                                                         ",
"                        8 P I D -                                               - ; 9 -           U & O                                       O Y T -           ",
"                        - R E -                                                   O 8         8 W Q m >                           -           O , 7 -           ",
"                          O 8                                                             - O 8 ! ~ ^ /                         - ( J -         8 O             ",
"                                                                                        8 ) _ 8   ` 6 O                         - ' ] -                         ",
"                                - -                                   8 O               8 [ { 8   -                               - O                           ",
"                              8 } ! 8                                 | D O         / 8   - O                 8                         - -                     ",
"                              8  ...8   O 8                           X.o.-       O O.' -   - -             o , $                     8 Z +.8                   ",
"                                      - N @.O                                     - 4 m > - #.$.-           w %.V                     * &.*.*                   ",
"          O 8                         8 a =.8                                   8     -.;.:.>., /                                     # ,.<.#                   ",
"        O 6 $.-                           *                                   1.-.w - 2.3.@   .                               O -     / ' 4./                   ",
"        8 5.6.3                                   - -                         3 7.8.    9.0.8                         8     O q.$.O     * *           / -       ",
"        - 6.w.h -                               - e.o.-                         w     O o   O                       $ r.    8 t.y.8                 + [ r - -   ",
"        8 u.i.-                                 > p.L >                               # ] r @ O                   - a.s..     o w                 O = d.3./ f.s ",
"          o #                                     w g.                              8 h.j.k.l./                     o 3                   -         . V w * z.x.",
"                                                                                    > c.k w w                                           * o.o         O     l o ",
"                    O O                                                             8 v.b.8                                           - # n.b                   ",
"                    m.=                                         O                     V +                                           O ;.x.@ *                   ",
"                  > 3.M.>                                     * V *                   O                               O             :.i n o                     ",
"            + N.  O V ;.-                                     = B.$                                                 o =           o & h V..                     ",
"          8 a C.-   O   $ *                                   o ; o                                               - ] z..       - x.Z.p :.                      ",
"* #         l J       1.P N O                                   -       * #                           * #           $ #.        8 B A.V O                       ",
"J i.*         -       . r.#                                           - +.S.o                       - o.D.*         F.G..         $ d O                         ",
"l u                     8               o .         1.                > H.J.-.8                     - y K.o     - $.L.a             *                           ",
"  8                                   * P.; -     w P.6 O             8 I.U.& -         *             $ Y.  * * O V W 8         - ; T.                          ",
"                                    8 R.E.W.>     o p 3               O Q.!.O       - x.%.              8 / ~.^./ O 8           8 W /.        . .               ",
"                                  3 %.V.(.).8       8                   _.`.        > 4 '.].8             - [.B 8               8 i < -     - {.}.8             ",
"          O                     / |. Xo .X= O               O                   O   8 XXoXOX-         O V +Xo   0 & O           8 @X9 8     O #X>.-             ",
"      8 v $X8                   8 %X#.8 8                 8 &XK 8             # *Xl - V E O         - O =X-Xo . | ;XO     O O   O E e.8 O     / 8               ",
"      8 r.:X8                     > -                     8 E y -             N.>XD O O 8         - I.1 - 8     8       8 F E 8   8 > [ v 8                     ",
"        - -                     l O.w                       - O               w 3.$             - T ,XN -               :.R.@.8     8 E S 8                     ",
"                              O 3 O.w                                           8               > d >.8               l '   -         - -                       ",
"                              8.<X                                                            o ' N.> O             / #Xf { 8                         8         ",
"                            - 1X2X+                                 8                         + *XV b.3XO           > XX4XC 8                       $ p.+       ",
"                            O D 0 o                               * l.=                         O - 5X-.8           O ;.0 o                         b x w       ",
"                                                    - -           o ^ & O                         - 6Xt.8                                                       ",
"                                  - -             - r u -           .                             > 7Xf.-                                                       ",
"                                - x.; -           8 .X)./                                       - l.9 O                                                         ",
"                                > 8X>.>             * o                                       > 6 9XS.>                                                         ",
"                                  1.o                                                       * C ).XXo                                   -                       ",
"                                                                                      - 8   w 0Xx .                                   + f.o                     ",
"                  O O                                                           -   O qXZ     V 3 O                                   V wX3                     ",
"                O @ 8.O                           -                           * OXo / eXrX8   O                             -         * = .                     ",
"              O > < h.>                         * R *                   O     s n.V O @ D                                 * & o         O                       ",
"              V w = $                       O   N. X=                 w ;.    * D o   O O                                 3 n.t O                               ",
"            8 G.b.8                       + 8.  tXN o               8 ].G.-     O                         $ 3             * N o                       O         ",
"            8 yXuX                      - +.L.    -                   3 7                               > #X$X>             -                       . l         ",
"              w a.                        3 1                           -                               O & @ O                                   O OXiX=       ",
"                -                           -                                                             O O                                     > pXaXsX>     ",
"                                                                                                                                                  8 t.dXx.-     ",
"                            . o                                                                                                                     + #..       ",
"                          - ; fX                                                                                                                      8         ",
"                          O b ..                                                                                                                                ",
"                            O 8                                                             8 E 4.8                                                             ",
"                                                                w XX8.                      8 ! { 8                       w y.m.                                ",
"    O O                           -                             + >.s -                       - -                       8 , '.Y >           -                   ",
"  8 ) t.8                       N.< w                             :.! ^.8                                               8 .XgX8X8         o hXV O       8       ",
"  8 :XjX8                       l L o                             - [.kX8                                                 1.( 3           o I.b       # #X3     ",
"    - -                           1.&X#                             O -                                                     8               8         lXhX3     ",
"                                  3 dXp.8                                                                                                               -       ",
"                  - -           8 yXzX#X>                                             8 O                                                                       ",
"                - xXx.8         > M.cXb O                                           O F & O               8                                     8 O             ",
"                > L L.. - 8       3 M N.          8                                 - *Xy -             w t..                                 O t.@ O           ",
"                  8.G.# N ].-       .           + @.w                                 .               8 vXbX+.-           - -                 - XX+.-           ",
"                    o 8 -.X.8                   =XL.l                   - O                           > 5.nX>.>         - 1 ; -         - -     o .             ",
"                        * mX                      +                   O $.;XO                         O R  X3           > $X` >       - 5 OX-                   ",
"                                                                      8 fXS 8                             1.              + +         > ( ' >             -     ",
"                                                        -               # o                   -         + 1X*                           w w             * d w   ",
"    8 O                                               l 7                                   o 1 o     O @ MXw                                           w MXD O ",
"  o a ;XO                                           8 0.NX8                                 $ S.=       * 8.                                              8.o   ",
"O BXVXY >                                             # ;.                                  * D *         O                                               O     "
};
