/* XPM */
static char *result[] = {
/* columns rows colors chars-per-pixel */
"80 80 204 2 ",
"   c #8B0D06",
".  c #970F07",
"X  c #9B0F06",
"o  c #9C0E08",
"O  c #8E1204",
"+  c #9B1406",
"@  c #941B07",
"#  c #96130B",
"$  c #9C140C",
"%  c #971606",
"&  c #A40C07",
"*  c #A90C06",
"=  c #A50E0A",
"-  c #B70E08",
";  c #B60F06",
":  c #A41106",
">  c #AD140C",
",  c #A7180F",
"<  c #AB190E",
"1  c #A41908",
"2  c #B41207",
"3  c #B41D06",
"4  c #BA1A06",
"5  c #B3130A",
"6  c #BA130A",
"7  c #B31B0F",
"8  c #BA1909",
"9  c #A01F13",
"0  c #B91F12",
"q  c #9B2308",
"w  c #A62308",
"e  c #A92608",
"r  c #B22506",
"t  c #AA3609",
"y  c #B93708",
"u  c #AA2114",
"i  c #B62C19",
"p  c #B72715",
"a  c #BC3B21",
"s  c #C60B05",
"d  c #C51406",
"f  c #CA1607",
"g  c #C31308",
"h  c #C0180E",
"j  c #C41908",
"k  c #D21F04",
"l  c #CA2406",
"z  c #C22B09",
"x  c #C52507",
"c  c #D32607",
"v  c #D32A05",
"b  c #D42C08",
"n  c #DC2F05",
"m  c #CB3506",
"M  c #D33A06",
"N  c #D63C09",
"B  c #C0371D",
"V  c #C13D23",
"C  c #AF4309",
"Z  c #BE4206",
"A  c #B44209",
"S  c #BC4D0A",
"D  c #BB4607",
"F  c #BF500A",
"G  c #BE5E0A",
"H  c #C94706",
"J  c #CD4C07",
"K  c #CC440A",
"L  c #C34508",
"P  c #D84907",
"I  c #CD5B06",
"U  c #C9570A",
"Y  c #D65708",
"T  c #DD5A06",
"R  c #D05A1A",
"E  c #E54F06",
"W  c #E75E00",
"Q  c #E85F01",
"!  c #E15B08",
"~  c #DD6B06",
"^  c #D9630A",
"/  c #D36D09",
"(  c #D76605",
")  c #CE700B",
"_  c #D3720A",
"`  c #DE750A",
"'  c #D57A0C",
"]  c #CD7014",
"[  c #DD7F18",
"{  c #EB6201",
"}  c #EE6C02",
"|  c #E56C09",
" . c #E36408",
".. c #F36601",
"X. c #F56A01",
"o. c #FE6D00",
"O. c #E67506",
"+. c #EC7504",
"@. c #E77905",
"#. c #F67302",
"$. c #FD7302",
"%. c #F47B03",
"&. c #FD7C02",
"*. c #F47B09",
"=. c #E48C0B",
"-. c #EB8D0B",
";. c #E9810A",
":. c #F58303",
">. c #FD8402",
",. c #F58904",
"<. c #FE8C02",
"1. c #F48209",
"2. c #EB970C",
"3. c #EC9C0B",
"4. c #E7910C",
"5. c #FF9201",
"6. c #FE9B04",
"7. c #F49509",
"8. c #FD9608",
"9. c #F59B09",
"0. c #FD9D08",
"q. c #FD9912",
"w. c #FEA406",
"e. c #FEAB06",
"r. c #F3A20B",
"t. c #FEA609",
"y. c #F7A90A",
"u. c #FEAA09",
"i. c #FEB006",
"p. c #FFB109",
"a. c #FBA612",
"s. c #FCAA12",
"d. c #FBAD1D",
"f. c #FEB513",
"g. c #FFB916",
"h. c #FFBB1C",
"j. c #FEB61D",
"k. c #EA8122",
"l. c #F19B24",
"z. c #EAA322",
"x. c #FCAE21",
"c. c #F9A92A",
"v. c #FEB720",
"b. c #FEBC24",
"n. c #FBB32B",
"m. c #FDBB2B",
"M. c #FDAE3F",
"N. c #FBB434",
"B. c #FCBC32",
"V. c #FCBA3D",
"C. c #FEC12B",
"Z. c #FEC333",
"A. c #FEC339",
"S. c #E99F40",
"D. c #FBBB44",
"F. c #FBBC4C",
"G. c #F7B848",
"H. c #FBB954",
"J. c #FDC342",
"K. c #FEC944",
"L. c #FDC44D",
"P. c #FECA4B",
"I. c #FCC153",
"U. c #FFCC53",
"Y. c #FBC25A",
"T. c #FDCC5A",
"R. c #FFD05E",
"E. c #FDCC65",
"W. c #FCCF6B",
"Q. c #FED166",
"!. c #FED26B",
"~. c #FBCC7B",
"^. c #F6C975",
"/. c #FDD275",
"(. c #FED57C",
"). c #F8CE84",
"_. c #FCD484",
"`. c #FFD984",
"'. c #FDD788",
"]. c #FEDA8C",
"[. c #FBD594",
"{. c #FEDB93",
"}. c #F7DA9D",
"|. c #FDDD9D",
" X c #FCDEA3",
".X c #F8DEA8",
"XX c #FEE1A4",
"oX c #FEE2AA",
"OX c #FDE5B4",
"+X c #FEE7BA",
"@X c #FEE8BD",
"#X c #F7E3B7",
"$X c #FEEBC4",
"%X c #FDEDCC",
"&X c #FCE7C3",
"*X c #FCEFD3",
"=X c #F7EBD0",
"-X c #FDF0D6",
";X c #FEF2DC",
":X c #FFF4E2",
">X c #FEF6EB",
",X c #FFF8EF",
"<X c #FEF9F1",
"1X c None",
/* pixels */
"1X1X1X1X1X1X1X1X1X1X1X1X1X1X1X1X1X1X1X1X1X1X1X1X1X1X1X1X1X1X1X1X1X1X1X1X1X1X1X1X1X1X1X1X1X1X1X1X1X1X1X1X1X1X1X1X1X1X1X1X1X1X1X1X1X1X1X1X1X1X1X1X1X1X1X1X1X1X1X1X",
"1X1X1X1X1X1X1X1X1X1X1X1X1X1X1X1X1X1X1X1X1X1X1X1X1X1X1X1X1X1X1X1X1X1X1X1X1X1X1X1X1X1X1X1X1X1X1X1X1X1X1X1X1X1X1X1X1X1X1X1X1X1X1X1X1X1X1X1X1X1X1X1X1X1X1X1X1X1X1X1X",
"1X1X1X1X1X1X1X1X1X1X1X1X1X1X1X1X1X1X1X1X1X1X1X1X1X1X1X1X1X1X1X1X1X1X1X1X1X1X1X1X1X1X1X1X1X1X1X1X1X1X1X1X1X1X1X1X1X1X1X1X1X1X1X1X1X1X1X1X1X1X1X1X1X1X1X1X1X1X1X1X",
"1X1X1X1X1X1X1X1X1X1X1X1X1X1X1X1X1X1X1X1X1X1X1X1X1X1X1X1X1X1X1X1X1X1X1X1X1X1X1X1X1X1X1X1X1X1X1X1X1X1X1X1X1X1X1X1X1X1X1X1X1X1X1X1X1X1X1X1X1X1X1X1X1X1X1X1X1X1X1X1X",
"1X1X1X1X1X1X1X1X1X1X1X1X1X1X1X1X1X1X1X1X1X1X1X1X1X1X1X1X1X1X1X1X1X1X1X1X1X1X1X1X1X1X1X1X1X1X1X1X1X1X1X1X1X1X1X1X1X1X1X1X1X1X1X1X1X1X1X1X1X1X1X1X1X1X1X1X1X1X1X1X",
"1X1X1X1X1X1X1X1X1X1X1X1X1X1X1X1X1X1X1X1X1X1X1X1X1X1X1X1X1X1X1X1X1X1X1X1X;X;X;X;X;X1X1X1X1X1X1X1X1X1X1X1X1X1X1X1X1X1X1X1X1X1X1X1X1X1X1X1X1X1X1X1X1X1X1X1X1X1X1X1X",
"1X1X1X1X1X1X1X1X1X1X1X1X1X1X1X1X1X1X1X1X1X1X1X1X1X1X1X1X1X1X;X;X;X;X;X;X;X:X;X;X;X;X;X;X;X;X;X1X1X1X1X1X1X1X1X1X1X1X1X1X1X1X1X1X1X1X1X1X1X1X1X1X1X1X1X1X1X1X1X1X",
"1X1X1X1X1X1X1X1X1X1X1X1X1X1X1X1X1X1X1X1X1X1X1X1X1X1X1X;X;X;X;X;X;X%X@XoX|.].'.'.'.{. XOX$X*X;X;X;X;X1X1X1X1X1X1X1X1X1X1X1X1X1X1X1X1X1X1X1X1X1X1X1X1X1X1X1X1X1X1X",
"1X1X1X1X1X1X1X1X1X1X1X1X1X1X1X1X1X1X1X1X1X1X1X1X1X*X;X;X;X%XoX`.T.B.h.f.p.p.p.p.p.p.p.g.b.J.E.{.@X;X;X;X1X1X1X1X1X1X1X1X1X1X1X1X1X1X1X1X1X1X1X1X1X1X1X1X1X1X1X1X",
"1X1X1X1X1X1X1X1X1X1X1X1X1X1X1X1X1X1X1X1X1X1X1X;X;X;X;X;X+XL.g.e.e.w.w.6.6.6.6.6.6.w.w.t.e.i.i.p.j.L.].%X;X;X1X1X1X1X1X1X1X1X1X1X1X1X1X1X1X1X1X1X1X1X1X1X1X1X1X1X",
"1X1X1X1X1X1X1X1X1X1X1X1X1X1X1X1X1X1X1X1X1X;X;X*X;X;X;X*X*XI.6.6.5.5.5.5.5.5.<.5.5.5.5.5.5.6.w.e.i.i.p.m./.@X;X;X1X1X1X1X1X1X1X1X1X1X1X1X1X1X1X1X1X1X1X1X1X1X1X1X",
"1X1X1X1X1X1X1X1X1X1X1X1X1X1X1X1X1X1X1X1X;X;X;X;X;X;X;X;X:X).5.5.5.5.5.5.5.5.5.5.5.5.5.5.5.5.5.5.6.w.u.i.i.m./.$X;X1X1X1X1X1X1X1X1X1X1X1X1X1X1X1X1X1X1X1X1X1X1X1X",
"1X1X1X1X1X1X1X1X1X1X1X1X1X1X1X1X1X1X;X;X;X;X;X;X;X;X;X;X;X~.<.5.5.5.5.5.5.5.5.5.5.5.5.5.5.5.5.5.5.5.6.w.p.i.p.B.}.*X*X1X1X1X1X1X1X1X1X1X1X1X1X1X1X1X1X1X1X1X1X1X",
"1X1X1X1X1X1X1X1X1X1X1X1X1X1X1X1X1X;X;X;X;X;X;X;X;X;X;X;X;XH.5.5.5.5.5.5.5.5.5.5.5.5.5.5.<.5.5.5.5.6.w.u.p.p.p.e.s.E.%X*X1X1X1X1X1X1X1X1X1X1X1X1X1X1X1X1X1X1X1X1X",
"1X1X1X1X1X1X1X1X1X1X1X1X1X1X1X1X;X;X;X;X;X;X;X;X:X;X:X:X&Xd.6.6.5.5.5.5.5.5.5.5.5.5.5.5.5.5.5.w.e.p.u.p.p.p.p.p.u.u.D.OX=X1X1X1X1X1X1X1X1X1X1X1X1X1X1X1X1X1X1X1X",
"1X1X1X1X1X1X1X1X1X1X1X1X1X1X1X;X;X;X;X;X;X:X;X:X:X:X:X:X/.w.6.6.6.5.5.6.5.5.5.5.5.5.5.5.5.6.e.p.p.p.p.p.p.u.w.6.u.u.t.n. X*X1X1X1X1X1X1X1X1X1X1X1X1X1X1X1X1X1X1X",
"1X1X1X1X1X1X1X1X1X1X1X1X1X1X;X;X;X;X;X;X:X:X:X:X:X>X>X%XA.b.h.f.s.t.w.6.5.5.5.5.5.5.5.6.e.u.p.p.p.u.p.e.6.5.5.<.<.w.u.w.x.}.=X1X1X1X1X1X1X1X1X1X1X1X1X1X1X1X1X1X",
"1X1X1X1X1X1X1X1X1X1X1X1X1X;X;X;X;X;X;X;X:X:X:X>X>X>X>XXXQ.R.K.C.h.g.f.p.e.w.6.5.5.5.6.u.p.p.p.p.p.e.6.5.<.5.5.5.>.<.0.t.w.v. X1X1X1X1X1X1X1X1X1X1X1X1X1X1X1X1X1X",
"1X1X1X1X1X1X1X1X1X1X1X1X1X;X;X;X;X;X;X:X:X>X>X,X<X<X%X|.].!.U.A.C.g.f.p.p.p.u.w.6.6.u.p.p.p.p.e.w.5.5.5.5.5.5.<.<.>.>.w.w.w.n..X1X1X1X1X1X1X1X1X1X1X1X1X1X1X1X1X",
"1X1X1X1X1X1X1X1X1X1X1X1X;X;X-X;X;X;X:X:X:X>X,X<X<X:X@XOX|.`.Q.A.C.h.g.p.p.p.p.p.p.u.i.p.p.p.e.6.5.5.5.5.5.5.5.5.<.<.>.>.w.w.w.V.#X1X1X1X1X1X1X1X1X1X1X1X1X1X1X1X",
"1X1X1X1X1X1X1X1X1X1X1X;X;X%X%X;X;X;X:X>X>X>X,X<X:X$X$X@XoX].!.K.C.h.f.p.p.p.p.p.p.p.i.p.p.w.5.5.5.5.5.5.5.5.5.5.,.>.>.&.<.w.t.w.Y.#X1X1X1X1X1X1X1X1X1X1X1X1X1X1X",
"1X1X1X1X1X1X1X1X1X1X1X;X*X'.%X;X;X;X:X:X>X,X<X:X$X$X$X@XoX].Q.K.C.g.g.p.p.p.p.p.p.p.p.p.p.e.6.5.5.5.5.5.5.5.5.5.<.%.>.&.$.8.t.t.t._.1X1X1X1X1X1X1X1X1X1X1X1X1X1X",
"1X1X1X1X1X1X1X1X1X1X;X;X].Y.;X;X:X:X:X:X>X>X-X$X$X$X$XOX|.(.T.A.C.g.f.p.p.p.p.p.p.p.p.p.p.p.u.6.5.5.5.5.5.5.5.5.5.%.#.&.$.$.0.t.w.n. X1X1X1X1X1X1X1X1X1X1X1X1X1X",
"1X1X1X1X1X1X1X1X1X1X;X%XB.J.;X;X;X;X:X:X%XoXoXOX@X@XOXoX].!.P.C.h.g.f.p.p.p.p.p.i.p.p.p.r.p.p.u.5.5.5.5.5.5.5.5.5.>.| $.$.o.<.t.y.w.Y.1X1X1X1X1X1X1X1X1X1X1X1X1X",
"1X1X1X1X1X1X1X1X1X;X;X(.y.s.[.*X;X-XOX`.!.(.{.XXoXoX|.]./.S.B.C.g.f.f.i.p.p.p.p.p.p.p.u.^ 3.p.p.e.5.5.5.5.5.5.5.5.<.} { $.o.$.0.u.w.d.).1X1X1X1X1X1X1X1X1X1X1X1X",
"1X1X1X1X1X1X1X1X1X;X%XB.e.5.q.M.F.K.C.Z.K.Q./.`.`.`.(.Q.G.R z.h.f.p.p.i.i.p.p.p.p.p.p.9.z ) p.p.p.w.5.5.5.5.5.5.5.5.%.Q X.$.o.>.t.t.t.F.1X1X1X1X1X1X1X1X1X1X1X1X",
"1X1X1X1X1X1X1X1X;X;X'.p.w.5.5.5.w.f.h.C.Z.K.U.T.R.R.U.A.k.z ] h.g.p.p.i.p.p.p.p.p.p.p. .6 t p.p.p.p.6.5.5.5.5.5.5.5.:.W { o.o.$.0.u.t.x.^.1X1X1X1X1X1X1X1X1X1X1X",
"1X1X1X1X1X1X1X1X;X*XJ.e.7.5.5.5.e.f.b.h.C.C.Z.A.N.N.n.z.N 8 t -.7.7.r.y.p.i.p.-.+.#. .l - + Y ~ ~ ` 9.5.5.5.5.5.5.5.,.{ Q X.o.o.<.t.u.t.G.1X1X1X1X1X1X1X1X1X1X1X",
"1X1X1X1X1X1X1X1X;XoXf.t.5.5.5.6.i.P.oXA.g.h.b.h.[ K M b f 7 5 h 8 e / p.p.p.p.4.y > 4 g 0 7 - & w ' u.6.5.5.5.5.5.5.,.} Q ..o.o.&.t.t.w.n.1X1X1X1X1X1X1X1X1X1X1X",
"1X1X1X1X1X1X1X;X;X/.i.w.5.5.5.6.m.@X&Xb.f.g.f.g.f.' w = p V , # q ' p.p.p.p.p.p.r.S + , V 9   t =.i.e.w.5.5.5.5.5.5.<.} W { o.o.$.0.u.t.t.1X1X1X1X1X1X1X1X1X1X1X",
"1X1X1X1X1X1X1X;X-XJ.y.6.5.5.5.w.E.;XW.p.p.p.f.f.f.f.=.4 5 i # @ =.p.p.i.p.p.i.p.p.a.m - 7 , O =.u.p.p.w.5.5.5.5.5.5.<.} W Q ..o.o.8.u.y.t.x.1X1X1X1X1X1X1X1X1X1X",
"1X1X1X1X1X1X1X;X+Xv.e.5.5.5.5.w.L.W.f.i.p.p.p.p.p.p.9.c = - 6 @ 2.p.p.p.p.p.p.p.p.8.b o 3 f # _ w.p.p.e.5.5.5.5.5.5.<.X.W W ..o.o.>.t.t.t.a.1X1X1X1X1X1X1X1X1X1X",
"1X1X1X1X1X1X1X;X|.p.e.5.5.5.5.w.p.i.i.p.p.p.p.p.p.p.*.3 e ^ b & ) p.p.p.p.p.p.p.p.1.r A =. .2 D 0.p.p.e.6.5.5.5.5.5.<.X.W W { o.o.>.t.t.t.a.1X1X1X1X1X1X1X1X1X1X",
"1X1X1X1X1X1X1X;X(.e.w.5.5.5.5.w.p.p.p.p.p.p.p.p.p.p.^ F 3.p.9.J S p.p.p.p.p.p.p.p.` / y.p.p.;.L ,.y.p.i.5.5.5.5.5.<.,.} W W { o.o.$.t.t.t.t.1X1X1X1X1X1X1X1X1X1X",
"1X1X1X1X1X1X1X;XT.i.6.5.5.5.5.w.p.p.p.p.p.i.i.p.p.u.4.y.p.p.p.y.=.y.p.p.p.p.p.p.u.r.p.i.p.p.p.9.,.e.p.p.6.5.5.5.5.5.>.} W Q { X.o.$.w.t.t.t.1X1X1X1X1X1X1X1X1X1X",
"1X1X1X1X1X1X;X-XL.i.w.<.5.5.5.6.p.p.p.p.p.p.p.p.p.p.p.p.p.p.p.p.p.u.p.p.p.p.p.p.p.p.p.p.p.p.p.t.5.w.p.u.5.5.5.5.5.5.>.{ Q Q Q o.o.o.0.t.t.t.1X1X1X1X1X1X1X1X1X1X",
"1X1X1X1X1X1X;X*XV.i.6.5.5.5.5.6.e.p.p.p.p.p.p.p.p.p.p.p.p.p.p.p.p.p.p.p.p.u.p.p.p.p.p.p.p.p.u.w.5.w.p.y.6.5.5.5.5.<.%.W W W Q o.o.$.6.t.t.a.1X1X1X1X1X1X1X1X1X1X",
"1X1X1X1X1X1X;X%Xm.y.6.5.5.5.5.5.u.p.p.p.u.p.p.p.p.p.p.p.p.p.p.p.p.p.p.p.p.p.i.p.p.p.p.p.p.p.p.6.5.6.p.u.5.5.5.5.5.<.%.W W W Q X.o.$.0.t.u.t.1X1X1X1X1X1X1X1X1X1X",
"1X1X1X1X1X1X;X%Xm.e.6.<.5.5.5.5.w.p.p.p.p.p.p.p.p.p.p.p.p.p.p.p.p.i.i.p.p.p.p.p.p.p.p.p.i.p.u.5.<.6.p.w.5.5.5.5.<.<.X.W W W Q o.o.o.0.u.t.t.1X1X1X1X1X1X1X1X1X1X",
"1X1X1X1X1X1X1X%Xn.e.6.<.<.5.5.5.6.i.p.p.p.p.p.p.p.p.p.p.p.p.p.p.p.p.p.p.p.p.p.p.p.p.p.p.p.u.w.,.5.6.p.6.5.5.5.5.<.>.{ W W W Q o.o.$.0.t.t.t.1X1X1X1X1X1X1X1X1X1X",
"1X1X1X1X1X1X1X*XN.e.6.<.<.5.5.5.5.w.p.p.p.p.p.i.p.p.i.p.p.p.p.u.2.y.p.p.p.p.p.p.p.p.p.p.p.e.5.O.,.6.u.5.5.5.5.<.<.#.W W W W { o.o.$.t.t.t.a.1X1X1X1X1X1X1X1X1X1X",
"1X1X1X1X1X1X1X-XV.u.0.>.<.<.5.5.5.5.u.p.p.p.p.p.p.p.p.p.p.p.p.t.J r.p.p.i.p.p.p.p.u.p.i.p.6.,.M ~ w.w.5.5.5.5.<.>.{ W W W W { o.o.&.t.t.t.t.1X1X1X1X1X1X1X1X1X1X",
"1X1X1X1X1X1X1X;XF.t.w.>.<.<.5.5.5.5.6.p.i.p.p.p.p.p.p.i.p.p.p.1.3 ' p.p.p.p.p.p.p.p.p.p.w.5.} j A 6.5.5.5.5.<.<.&.W W W Q Q ..o.o.>.t.t.t.t.1X1X1X1X1X1X1X1X1X1X",
"1X1X1X1X1X1X1X;XE.w.t.>.>.<.<.5.5.5.5.6.p.p.p.p.p.p.p.p.p.u.p.P 2 C p.p.p.p.p.p.p.p.t.6.>.:.M - @ @.:.:.:.<.>.>.} W W W Q Q X.o.o.<.u.u.t.a.1X1X1X1X1X1X1X1X1X1X",
"1X1X1X1X1X1X1X:X'.t.w.<.>.>.<.<.5.5.5.5.w.u.p.p.p.p.y.` ! E N f > & M K J / y.p.p.y.` m l c s 2 * d 4 r H :.>.#.W W W W Q Q o.o.$.8.t.t.t.1X1X1X1X1X1X1X1X1X1X1X",
"1X1X1X1X1X1X1X1X.Xt.u.8.&.>.<.>.<.5.5.5.5.6.u.p.p.p.p.2.Z : 6 h i 7 > . A 2.p.p.p.w.5.( 1 + 7 a p $ % L :.<.&.{ W Q W W Q ..o.o.$.w.t.u.t.1X1X1X1X1X1X1X1X1X1X1X",
"1X1X1X1X1X1X1X1X$Xn.w.0.&.&.>.:.%.5.<.5.5.5.6.w.p.p.p.p.y.U o < a # O G y.p.p.e.6.5.5.5.@.r ; i #   I <.>.&.{ W W W W W { X.o.o.<.t.u.t.y.1X1X1X1X1X1X1X1X1X1X1X",
"1X1X1X1X1X1X1X1X-XI.w.t.>.$.&.>.+.%.5.5.<.5.5.5.6.w.p.i.p.r.c > 2 < @ r.u.e.6.5.5.5.5.5.<.n > * 8 . ~ <.&.X.Q W W W W W ..o.o.o.0.t.t.t.a.1X1X1X1X1X1X1X1X1X1X1X",
"1X1X1X1X1X1X1X1X1X'.t.w.8.$.$.>.%.{ :.<.5.5.5.5.5.5.5.6.w.:.j . x f + / 6.5.5.5.5.5.5.5.&.x + H b * y >.X.W W W W W W W X.o.o.&.t.t.t.t.1X1X1X1X1X1X1X1X1X1X1X1X",
"1X1X1X1X1X1X1X1X1X#Xv.w.t.&.$.$.&.X.{ :.<.5.<.5.5.5.5.5.8.W r I :.W 4 Z 5.5.5.5.5.5.5.5. .y | 5.%.M r { Q W W W W W W ..o.o.o.8.u.t.t.t.1X1X1X1X1X1X1X1X1X1X1X1X",
"1X1X1X1X1X1X1X1X1X*XY.w.u.8.$.o.$.$.{  .%.<.<.5.<.5.5.5.<.^ O.5.5.5.+.U ,.5.5.5.5.5.5.5.O.:.<.>.>.$.P ! W W W W W W { o.o.o.&.t.t.t.t.1X1X1X1X1X1X1X1X1X1X1X1X1X",
"1X1X1X1X1X1X1X1X1X1X|.s.t.t.>.o.$.$.X.Q W } >.<.<.5.5.5.5.<.5.5.5.5.5.<.5.5.5.5.5.5.5.<.<.>.>.&.#.{ Q Q W W W W W W X.o.o.$.0.u.u.t.t.1X1X1X1X1X1X1X1X1X1X1X1X1X",
"1X1X1X1X1X1X1X1X1X1X%XD.w.u.0.$.o.o.$.X.Q W { X.>.<.<.<.<.5.5.5.5.5.5.5.5.5.5.<.<.<.>.>.>.&.$...Q W W W W W W W Q ..o.o.o.>.t.t.t.u.1X1X1X1X1X1X1X1X1X1X1X1X1X1X",
"1X1X1X1X1X1X1X1X1X1X1X[.s.w.t.8.$.o.$.o...Q Q W { #.>.>.>.<.<.<.<.5.<.<.<.<.<.>.>.>.&.&.$...Q W Q W W W W W W Q ..o.o.o.&.w.t.t.t.t.1X1X1X1X1X1X1X1X1X1X1X1X1X1X",
"1X1X1X1X1X1X1X1X1X1X1X1XL.w.t.w.>.o.$.o.o.{ W { ..X.$.$.$.%.>.>.>.>.>.>.>.&.&.&.$.$.X...Q W W W W W W W Q W W { o.o.o.$.0.u.u.t.t.1X1X1X1X1X1X1X1X1X1X1X1X1X1X1X",
"1X1X1X1X1X1X1X1X1X1X1X1X|.x.w.u.t.>.o.o.o.o.o.X.X.X...Q { { { X.X.#.$.X.#.X.X.{ { { W W W W W W W W W W W Q ..o.o.o.$.8.t.t.t.t.a.1X1X1X1X1X1X1X1X1X1X1X1X1X1X1X",
"1X1X1X1X1X1X1X1X1X1X1X1X1X^.u.t.t.w.&.o.o.o.o.X.Q Q W Q W W Q W Q W W W W W W W W W W W W W W W W W W W Q X.o.o.o.o.8.t.w.t.t.t.1X1X1X1X1X1X1X1X1X1X1X1X1X1X1X1X",
"1X1X1X1X1X1X1X1X1X1X1X1X1X1XF.t.u.w.0.&.o.o.o.o.o.{ W Q W W W W W W Q W W W W W W W W W W W W Q W W W ..o.o.o.o.$.8.t.u.t.t.t.1X1X1X1X1X1X1X1X1X1X1X1X1X1X1X1X1X",
"1X1X1X1X1X1X1X1X1X1X1X1X1X1X}.n.w.e.t.w.>.o.o.o.o.o...{ W W W W W W W W W W W W W W W W W W W W W { ..o.o.o.o.$.8.w.t.t.t.t.1X1X1X1X1X1X1X1X1X1X1X1X1X1X1X1X1X1X",
"1X1X1X1X1X1X1X1X1X1X1X1X1X1X1X1Xd.t.t.t.t.8.o.o.o.o.o.o...{ Q Q W W W W Q W W W W W W W W W Q { ..o.o.o.o.o.&.0.t.t.u.w.t.1X1X1X1X1X1X1X1X1X1X1X1X1X1X1X1X1X1X1X",
"1X1X1X1X1X1X1X1X1X1X1X1X1X1X1X1X1Xs.t.t.t.t.6.&.o.o.o.o.o.o.X.X...Q Q Q W Q Q W Q Q Q Q { ..o.o.o.o.o.o.$.<.t.t.t.t.t.t.1X1X1X1X1X1X1X1X1X1X1X1X1X1X1X1X1X1X1X1X",
"1X1X1X1X1X1X1X1X1X1X1X1X1X1X1X1X1X1Xs.u.t.t.t.t.<.$.o.o.o.o.o.o.o.o.X.X...........X.o.o.o.o.o.o.o.o.o.>.6.t.t.w.t.u.a.1X1X1X1X1X1X1X1X1X1X1X1X1X1X1X1X1X1X1X1X1X",
"1X1X1X1X1X1X1X1X1X1X1X1X1X1X1X1X1X1X1Xt.u.w.t.w.t.w.8.$.o.o.o.o.o.o.o.o.o.o.o.o.o.o.o.o.o.o.o.o.$.>.0.t.u.t.u.t.t.t.1X1X1X1X1X1X1X1X1X1X1X1X1X1X1X1X1X1X1X1X1X1X",
"1X1X1X1X1X1X1X1X1X1X1X1X1X1X1X1X1X1X1X1Xs.t.t.t.t.u.t.t.8.>.$.o.o.o.o.o.o.o.o.o.o.o.o.o.o.$.&.<.0.t.t.t.t.t.t.t.t.1X1X1X1X1X1X1X1X1X1X1X1X1X1X1X1X1X1X1X1X1X1X1X",
"1X1X1X1X1X1X1X1X1X1X1X1X1X1X1X1X1X1X1X1X1X1Xy.u.t.u.u.t.u.t.w.8.<.>.&.$.$.$.$.$.$.$.>.>.8.0.w.t.u.t.t.t.t.t.s.1X1X1X1X1X1X1X1X1X1X1X1X1X1X1X1X1X1X1X1X1X1X1X1X1X",
"1X1X1X1X1X1X1X1X1X1X1X1X1X1X1X1X1X1X1X1X1X1X1X1Xt.t.t.t.w.t.t.e.w.t.t.t.0.t.w.0.w.w.t.s.t.u.t.t.t.t.t.t.t.1X1X1X1X1X1X1X1X1X1X1X1X1X1X1X1X1X1X1X1X1X1X1X1X1X1X1X",
"1X1X1X1X1X1X1X1X1X1X1X1X1X1X1X1X1X1X1X1X1X1X1X1X1X1Xa.t.t.u.t.w.t.u.t.u.t.t.u.u.w.t.t.t.t.u.t.t.w.t.t.1X1X1X1X1X1X1X1X1X1X1X1X1X1X1X1X1X1X1X1X1X1X1X1X1X1X1X1X1X",
"1X1X1X1X1X1X1X1X1X1X1X1X1X1X1X1X1X1X1X1X1X1X1X1X1X1X1X1Xt.t.t.t.t.t.t.t.u.t.t.t.u.t.u.t.t.t.t.t.t.1X1X1X1X1X1X1X1X1X1X1X1X1X1X1X1X1X1X1X1X1X1X1X1X1X1X1X1X1X1X1X",
"1X1X1X1X1X1X1X1X1X1X1X1X1X1X1X1X1X1X1X1X1X1X1X1X1X1X1X1X1X1X1X1Xt.t.a.t.t.t.t.t.t.t.t.t.t.1X1X1X1X1X1X1X1X1X1X1X1X1X1X1X1X1X1X1X1X1X1X1X1X1X1X1X1X1X1X1X1X1X1X1X",
"1X1X1X1X1X1X1X1X1X1X1X1X1X1X1X1X1X1X1X1X1X1X1X1X1X1X1X1X1X1X1X1X1X1X1X1X1X1X1X1X1X1X1X1X1X1X1X1X1X1X1X1X1X1X1X1X1X1X1X1X1X1X1X1X1X1X1X1X1X1X1X1X1X1X1X1X1X1X1X1X",
"1X1X1X1X1X1X1X1X1X1X1X1X1X1X1X1X1X1X1X1X1X1X1X1X1X1X1X1X1X1X1X1X1X1X1X1X1X1X1X1X1X1X1X1X1X1X1X1X1X1X1X1X1X1X1X1X1X1X1X1X1X1X1X1X1X1X1X1X1X1X1X1X1X1X1X1X1X1X1X1X",
"1X1X1X1X1X1X1X1X1X1X1X1X1X1X1X1X1X1X1X1X1X1X1X1X1X1X1X1X1X1X1X1X1X1X1X1X1X1X1X1X1X1X1X1X1X1X1X1X1X1X1X1X1X1X1X1X1X1X1X1X1X1X1X1X1X1X1X1X1X1X1X1X1X1X1X1X1X1X1X1X",
"1X1X1X1X1X1X1X1X1X1X1X1X1X1X1X1X1X1X1X1X1X1X1X1X1X1X1X1X1X1X1X1X1X1X1X1X1X1X1X1X1X1X1X1X1X1X1X1X1X1X1X1X1X1X1X1X1X1X1X1X1X1X1X1X1X1X1X1X1X1X1X1X1X1X1X1X1X1X1X1X",
"1X1X1X1X1X1X1X1X1X1X1X1X1X1X1X1X1X1X1X1X1X1X1X1X1X1X1X1X1X1X1X1X1X1X1X1X1X1X1X1X1X1X1X1X1X1X1X1X1X1X1X1X1X1X1X1X1X1X1X1X1X1X1X1X1X1X1X1X1X1X1X1X1X1X1X1X1X1X1X1X",
"1X1X1X1X1X1X1X1X1X1X1X1X1X1X1X1X1X1X1X1X1X1X1X1X1X1X1X1X1X1X1X1X1X1X1X1X1X1X1X1X1X1X1X1X1X1X1X1X1X1X1X1X1X1X1X1X1X1X1X1X1X1X1X1X1X1X1X1X1X1X1X1X1X1X1X1X1X1X1X1X",
"1X1X1X1X1X1X1X1X1X1X1X1X1X1X1X1X1X1X1X1X1X1X1X1X1X1X1X1X1X1X1X1X1X1X1X1X1X1X1X1X1X1X1X1X1X1X1X1X1X1X1X1X1X1X1X1X1X1X1X1X1X1X1X1X1X1X1X1X1X1X1X1X1X1X1X1X1X1X1X1X",
"1X1X1X1X1X1X1X1X1X1X1X1X1X1X1X1X1X1X1X1X1X1X1X1X1X1X1X1X1X1X1X1X1X1X1X1X1X1X1X1X1X1X1X1X1X1X1X1X1X1X1X1X1X1X1X1X1X1X1X1X1X1X1X1X1X1X1X1X1X1X1X1X1X1X1X1X1X1X1X1X",
"1X1X1X1X1X1X1X1X1X1X1X1X1X1X1X1X1X1X1X1X1X1X1X1X1X1X1X1X1X1X1X1X1X1X1X1X1X1X1X1X1X1X1X1X1X1X1X1X1X1X1X1X1X1X1X1X1X1X1X1X1X1X1X1X1X1X1X1X1X1X1X1X1X1X1X1X1X1X1X1X",
"1X1X1X1X1X1X1X1X1X1X1X1X1X1X1X1X1X1X1X1X1X1X1X1X1X1X1X1X1X1X1X1X1X1X1X1X1X1X1X1X1X1X1X1X1X1X1X1X1X1X1X1X1X1X1X1X1X1X1X1X1X1X1X1X1X1X1X1X1X1X1X1X1X1X1X1X1X1X1X1X",
"1X1X1X1X1X1X1X1X1X1X1X1X1X1X1X1X1X1X1X1X1X1X1X1X1X1X1X1X1X1X1X1X1X1X1X1X1X1X1X1X1X1X1X1X1X1X1X1X1X1X1X1X1X1X1X1X1X1X1X1X1X1X1X1X1X1X1X1X1X1X1X1X1X1X1X1X1X1X1X1X"
};
