/* XPM */
static char *result[] = {
/* columns rows colors chars-per-pixel */
"80 80 185 2 ",
"   c #150C33",
".  c #15113D",
"X  c #15092D",
"o  c #151545",
"O  c #15194D",
"+  c #161D57",
"@  c #16205E",
"#  c #281F72",
"$  c #351C7B",
"%  c #162261",
"&  c #18256B",
"*  c #1B2164",
"=  c #1A2974",
"-  c #1D2C7D",
";  c #26277E",
":  c #2B237C",
">  c #222A7F",
",  c #32207F",
"<  c #1D2E82",
"1  c #1F3087",
"2  c #1F3089",
"3  c #2E2584",
"4  c #2D2A8C",
"5  c #282B89",
"6  c #312486",
"7  c #20318D",
"8  c #292F92",
"9  c #332890",
"0  c #233494",
"q  c #293193",
"w  c #24369B",
"e  c #24389F",
"r  c #28359C",
"t  c #31319E",
"y  c #2A37A4",
"u  c #263AA3",
"i  c #273CA9",
"p  c #293DAD",
"a  c #2B38A7",
"s  c #3039AD",
"d  c #2A3FB3",
"f  c #2A40B5",
"g  c #2C43BC",
"h  c #2E45C4",
"j  c #2E47C8",
"k  c #2F49CB",
"l  c #2B49C0",
"z  c #3049CD",
"x  c #3047CE",
"c  c #324CD5",
"v  c #334EDB",
"b  c #2F5DDA",
"n  c #315ADC",
"m  c #3151D8",
"M  c #2B68DD",
"N  c #2A74D2",
"B  c #297DD7",
"V  c #3B78DD",
"C  c #257CC6",
"Z  c #344FE0",
"A  c #2F5FE0",
"S  c #3451E0",
"D  c #315BE1",
"F  c #2E62E0",
"G  c #2C6CE3",
"H  c #3164E2",
"J  c #3169E6",
"K  c #2775E0",
"L  c #2B74E2",
"P  c #257BE0",
"I  c #2D7CE4",
"U  c #2E78E8",
"Y  c #3070E3",
"T  c #4E5ADB",
"R  c #7452D4",
"E  c #4C7FDC",
"W  c #5571D8",
"Q  c #7C69D6",
"!  c #727FD6",
"~  c #9453CF",
"^  c #9953CF",
"/  c #8D5CD2",
"(  c #8359D2",
")  c #9359D1",
"_  c #8565D5",
"`  c #8A63D5",
"'  c #1F8BDF",
"]  c #219DCA",
"[  c #2284DF",
"{  c #2C85DE",
"}  c #208ADF",
"|  c #21A5C8",
" . c #23B2D8",
".. c #1F8DE0",
"X. c #1F92E2",
"o. c #1F9BE1",
"O. c #2284E0",
"+. c #2D84E5",
"@. c #218DE0",
"#. c #2B8BE1",
"$. c #2B8EED",
"%. c #2C82E8",
"&. c #3E8CE2",
"*. c #2491E1",
"=. c #2B92E2",
"-. c #2198E5",
";. c #299BE3",
":. c #219CE8",
">. c #2B97ED",
",. c #2A9DF0",
"<. c #1FA8EC",
"1. c #1EA6E3",
"2. c #1DB3E5",
"3. c #1FB1EF",
"4. c #27ACE5",
"5. c #21A4EA",
"6. c #29A6E9",
"7. c #21ADEE",
"8. c #28A8E4",
"9. c #27B3E5",
"0. c #24B2ED",
"q. c #27B7E8",
"w. c #2AA4F2",
"e. c #27AFF2",
"r. c #3EAEF2",
"t. c #22B6F2",
"y. c #22BAF3",
"u. c #3CBAF5",
"i. c #33A9E8",
"p. c #7086D8",
"a. c #6894D9",
"s. c #5DA3DB",
"d. c #52B4DD",
"f. c #5899E9",
"g. c #579AEA",
"h. c #5588E1",
"j. c #6C84E1",
"k. c #648BE4",
"l. c #6091E6",
"z. c #4DA4ED",
"x. c #42A4EF",
"c. c #51A1EC",
"v. c #45BBE5",
"b. c #42B1F2",
"n. c #1EC7E6",
"m. c #1ED8E9",
"M. c #23CCE7",
"N. c #24C6E9",
"B. c #39C7EF",
"V. c #21D3E6",
"C. c #21DCE7",
"Z. c #21DCEC",
"A. c #2DD8E4",
"S. c #30D9ED",
"D. c #23C3F6",
"F. c #22CBF3",
"G. c #24C5FA",
"H. c #24CCFD",
"J. c #2BCDFC",
"K. c #29C4F8",
"L. c #33CBFA",
"P. c #3BC2F8",
"I. c #21DDF4",
"U. c #24D3FF",
"Y. c #2AD4FF",
"T. c #29DCFC",
"R. c #32D7FF",
"E. c #3ED9FF",
"W. c #1EE4EC",
"Q. c #1EECEB",
"!. c #1EF3EC",
"~. c #1EFAE9",
"^. c #1FF1F1",
"/. c #23E2EB",
"(. c #20FCE7",
"). c #21E0F3",
"_. c #20E9F3",
"`. c #22E0FA",
"'. c #40C1E6",
"]. c #77E4FF",
"[. c #85E7FF",
"{. c #9BECFF",
"}. c #A5EBFE",
"|. c #DDF8FF",
" X c None",
/* pixels */
" X X X X X X X X X X X X X X X X X X X X X X X X X X X X X X X X X X X X X X X X X X X X X X X X X X X X X X X X X X X X X X X X X X X X X X X X X X X X X X X X",
" X X X X X X X X X X X X X X X X X X X X X X X X X X X X X X X X X X X X X X X X X X X X X X X X X X X X X X X X X X X X X X X X X X X X X X X X X X X X X X X X",
" X X X X X X X X X X X X X X X X X X X X X X X X X X X X X X X X X X X X X X X X X X X X X X X X X X X X X X X X X X X X X X X X X X X X X X X X X X X X X X X X",
" X X X X X X X X X X X X X X X X X X X X X X X X X X X X X X X X X X X X X X X X X X X X X X X X X X X X X X X X X X X X X X X X X X X X X X X X X X X X X X X X",
" X X X X X X X X X X X X X X X X X X X X X X X X X X X X X X X X X X X X X X X X X X X X X X X X X X X X X X X X X X X X X X X X X X X X X X X X X X X X X X X X",
" X X X X X X X X X X X X X X X X X X X X X X X X X X X X X X X X X XU.U.U.Y.U.Y. X X X X X X X X X X X X X X X X X X X X X X X X X X X X X X X X X X X X X X X X",
" X X X X X X X X X X X X X X X X X X X X X X X X X X X X X X X X XY.U.U.U.U.U.U.Y. X X X X X X X X X X X X X X X X X X X X X X X X X X X X X X X X X X X X X X X",
" X X X X X X X X X X X X X X X X X X X X X X X X X X X X X X X X XY.U.U.U.U.].[.R.D. X X X X X X X X X X X X X X X X X X X X X X X X X X X X X X X X X X X X X X",
" X X X X X X X X X X X X X X X X X X X X X X X X X X X X X X X X XY.Y.Y.G.J.{.|.E.G.5. X X X X X X X X X X X X X X X X X X X X X X X X X X X X X X X X X X X X X",
" X X X X X X X X X X X X X X X X X X X X X X X X X X X X X X X X X X X X*.t.L.}.E.U.y.*. X X X X X X X X X X X X X X X X X X X X X X X X X X X X X X X X X X X X",
" X X X X X X X X X X X X X X X X X X X X X X X X X X X X X X X X X X X X..X.X.L.U.U.y.@. X X X X X X X X X X X X X X X X X X X X X X X X X X X X X X X X X X X X",
" X X X X X X X X X X X X X X X X X X X X X X X X X X X X X X X X X X*.@.......:.U.!.m...*. X X X X X X X X X X X X X X X X X X X X X X X X X X X X X X X X X X X",
" X X X X X X X X X X X X X X X X X X X X X X X X X X X X X X X X X X X@.......@.>._.W.5...@.@. X X X X X X X X X X X X X X X X X X X X X X X X X X X X X X X X X",
" X X X X X X X X X X X X X X X X X X X X X X X X X X X X X X X X X=. X@.......K D q.^.F.-...@. X X X X X X X X X X X X X X X X X X X X X X X X X X X X X X X X X",
" X X X X X X X X X X X X X X X X X X X X X X X X X X X X X X X X@. X@...@.O.P A Z I !.^.0.' .. X X X X X X X X X X X X X X X X X X X X X X X X X X X X X X X X X",
" X X X X X X X X X X X X X X X X X X X X X X X X X X X X X X X X*. X..@.G v S S Z Y I.~.n....... X X X X X X X X X X X X X X X X X X X X X X X X X X X X X X X X",
" X X X X X X X X X X X X X X X X X X X X X X X X X X X X X X X X..@.*.K S Z S S S S $._.).:..... X X X X X X X X X X X X X X X X X X X X X X X X X X X X X X X X",
" X X X X X X X X X X X X X X X X X X X X X X X X X X X X X X X*.....O.n S S Z S S S D 0._.$.O...*. X X X X X X X X X X X X X X X X X X X X X X X X X X X X X X X",
" X X X X X X X X X X X X X X X X X X X X X X X X X X X X X X X*...O.F S S Z v S v c Z ;.!.%.K ..@. X X X X X X X X X X X X X X X X X X X X X X X X X X X X X X X",
" X X X X X X X X X X X X X X X X X X X X X X X X X X X X X X X@...K Z Z S S v v c j c ;.~.6.O...*. X X X X X X X X X X X X X X X X X X X X X X X X X X X X X X X",
" X X X X X X X X X X X X X X X X X X X X X X X X X X X X X X X*.O.D D D S v j g g g g B _.I.:.@.@. X X X X X X X X X X X X X X X X X X X X X X X X X X X X X X X",
" X X X X X X X X X X X X X X X X X X X X X X X X X X X X X X..X.O.Y K.$.Z k g g g g g l  .`.U [ *.@. X X X X X X X X X X X X X X X X X X X X X X X X X X X X X X",
" X X X X X X X X X X X X X X X X X X X X X X X X X X X X X X..X.t.D.^.6.c g g i u i i u | 6.D O.} }  X X X X X X X X X X X X X X X X X X X X X X X X X X X X X X",
" X X X X X X X X X X X X X X X X X X X X X X X X X X X X X X@.X.H.^./.%.z g p r w w w w | #.Z G @.}  XY. X X X X X X X X X X X X X X X X X X X X X X X X X X X X",
" X X X X X X X X X X X X X X X X X X X X X X X X X X X X X*.@.<.).!.;.v j d u r e w w r ] +.v S P }  XY. X X X X X X X X X X X X X X X X X X X X X X X X X X X X",
" X X X X X X X X X X X X X X X X X X X X X X X X X X X X X@.*.F.~.q.n z d u w e w e 0 0 C N c S D O. XY. X X X X X X X X X X X X X X X X X X X X X X X X X X X X",
" X X X X X X X X X X X X X X X X X X X X X X X X X X X X X..X.F.C.J v f 1 w w w e 8 $ $ 8 f c S n @. XR. X X X X X X X X X X X X X X X X X X X X X X X X X X X X",
" X X X X X X X X X X X X X X X X X X X X X X X X X X X X@.X.y.!.C.n j 7 w u 2 < 2 2 q 4 4 d c S P @. X X X X X X X X X X X X X X X X X X X X X X X X X X X X X X",
" X X X X X X X X X X X X X X X X X X X X X X X X X X X X@.X.D.!.F.D l 7 u u 1 - = < 7 4 6 s v D @.@.5.Y. X X X X X X X X X X X X X X X X X X X X X X X X X X X X",
" X X X X X X X X X X X X X X X X X X X X X X X X X X X X@...D.^.,.m u w i 0 < = % = 2 q $ a c S K ..5.U. X X X X X X X X X X X X X X X X X X X X X X X X X X X X",
" X X X X X X X X X X X X X X X X X X X X X X X X X X X X@.X.F.Z.H j 2 0 w 2 = & % & 2 e 2 i c Z D } 5.U.P. X X X X X X X X X X X X X X X X X X X X X X X X X X X",
" X X X X X X X X X X X X X X X X X X X X X X X X X X X X..X.m.F.n h g i w 1 & % @ & 2 e 7 i c Z A } 5.U.k. X X X X X X X X X X X X X X X X X X X X X X X X X X X",
" X X X X X X X X X X X X X X X X X X X X X X X X X X X X@.t._.+.v c d r 7 - & @ % & < 2 2 i c Z n ..<.c./  X X X X X X X X X X X X X X X X X X X X X X X X X X X",
" X X X X X X X X X X X X X X X X X X X X X X X X X X X X' N.(.M v j s 6 6 $ * % % % = < e g j v A ..<.f.^  X X X X X X X X X X X X X X X X X X X X X X X X X X X",
" X X X X X X X X X X X X X X X X X X X X X X X X X X X X3.W.!.Y c d 9 6 3 # * % % % & < u g h v D ..t.g. X X X X X X X X X X X X X X X X X X X X X X X X X X X X",
" X X X X X X X X X X X X X X X X X X X X X X X X X X X Xb./.V.H v s $ 6 2 & % % + % & < 0 g g v A :.U.g. X X X X X X X X X X X X X X X X X X X X X X X X X X X X",
" X X X X X X X X X X X X X X X X X X X X X X X X X X X X) v.%.Z c s $ : < & % + o + & < < u h v D :.U.f. X X X X X X X X X X X X X X X X X X X X X X X X X X X X",
" X X X X X X X X X X X X X X X X X X X X X X X X X X X X~ z.U c h s 4 0 - & + . . + & 2 2 < d c S :.U.f. X X X X X X X X X X X X X X X X X X X X X X X X X X X X",
" X X X X X X X X X X X X X X X X X X X X X X X X X X X Xa.9.F v h d a 2 - & o     o & 2 w 2 d m A o.b._  X X X X X X X X X X X X X X X X X X X X X X X X X X X X",
" X X X X X X X X X X X X X X X X X X X X X X X X X X X^ d.2.A v h d u 2 < & . X   O & 2 e 2 p v A :.z.~  X X X X X X X X X X X X X X X X X X X X X X X X X X X X",
" X X X X X X X X X X X X X X X X X X X X X X X X X X X_ v.3.A v h p 7 7 - & o X   @ & 2 w w g v D :.z.~  X X X X X X X X X X X X X X X X X X X X X X X X X X X X",
" X X X X X X X X X X X X X X X X X X X X X X X X X X Xk.H.<.A v h i 7 0 < & @ o o @ & 2 w d c S D 5.z.~  X X X X X X X X X X X X X X X X X X X X X X X X X X X X",
" X X X X X X X X X X X X X X X X X X X X X X X X X X Xk.7.' M v h i 7 7 < & % @ @ % & 2 r f v Z J H.z.~  X X X X X X X X X X X X X X X X X X X X X X X X X X X X",
" X X X X X X X X X X X X X X X X X X X X X X X X X X X` E ' A Z c p 7 7 < & @ % % % & - < f c Z J H.z.~  X X X X X X X X X X X X X X X X X X X X X X X X X X X X",
" X X X X X X X X X X X X X X X X X X X X X X X X X X X^ W ..F Z v d < 7 2 & % % % % & - 1 w k Z J H.z.~  X X X X X X X X X X X X X X X X X X X X X X X X X X X X",
" X X X X X X X X X X X X X X X X X X X X X X X X X X X_ &...F Z v d w 0 0 = % % % % & 1 0 e k S J H.z.~  X X X X X X X X X X X X X X X X X X X X X X X X X X X X",
" X X X X X X X X X X X X X X X X X X X X X X X X X X Xj.7.@.A Z v j g e 2 1 & % % % & > u f c Z J H.z.~  X X X X X X X X X X X X X X X X X X X X X X X X X X X X",
" X X X X X X X X X X X X X X X X X X X X X X X X X X X`  X@.F S Z c h u < - & @ % & - ; t e j S J H.g.~  X X X X X X X X X X X X X X X X X X X X X X X X X X X X",
" X X X X X X X X X X X X X X X X X X X X X X X X X X Xk. X#.F Z S c g e - < & % % & - : t g c S G r.`  X X X X X X X X X X X X X X X X X X X X X X X X X X X X X",
" X X X X X X X X X X X X X X X X X X X X X X X X X X Xk.t.@.A Z S S k u < < = * = = < 7 q p v D e.B.)  X X X X X X X X X X X X X X X X X X X X X X X X X X X X X",
" X X X X X X X X X X X X X X X X X X X X X X X X X X Xb.7...K S Z S c u - < < = - < : 5 0 i c D I.A.E  X X X X X X X X X X X X X X X X X X X X X X X X X X X X X",
" X X X X X X X X X X X X X X X X X X X X X X X X X X XU.5.....D Z S c u ; ; - - < ; $ 4 u f c #.!.m.*. X X X X X X X X X X X X X X X X X X X X X X X X X X X X X",
" X X X X X X X X X X X X X X X X X X X X X X X X X X XU.0.@.@.A D S c i 3 $ ; - - 5 3 w i g n C.Q.y.*. X X X X X X X X X X X X X X X X X X X X X X X X X X X X X",
" X X X X X X X X X X X X X X X X X X X X X X X X X X XU.L.@.@.G w.D c g q : $ - < < w w f z H V.1.X.*. X X X X X X X X X X X X X X X X X X X X X X X X X X X X X",
" X X X X X X X X X X X X X X X X X X X X X X X X X X XY. X*.@.J D.V.8.k d w 8 < < 2 w u f m 9.Q.o.' *. X X X X X X X X X X X X X X X X X X X X X X X X X X X X X",
" X X X X X X X X X X X X X X X X X X X X X X X X X X X X X XO.G G.^.N.v j f e 1 < 7 u f f k M.n.X.}  X X X X X X X X X X X X X X X X X X X X X X X X X X X X X X",
" X X X X X X X X X X X X X X X X X X X X X X X X X X X X X X} L x.`.q.S z f u 7 2 w u g f N m.1..... X X X X X X X X X X X X X X X X X X X X X X X X X X X X X X",
" X X X X X X X X X X X X X X X X X X X X X X X X X X X X X X..{ Q B.M.H z 0 i i e 0 0 f c q.W.o...@. X X X X X X X X X X X X X X X X X X X X X X X X X X X X X X",
" X X X X X X X X X X X X X X X X X X X X X X X X X X X X X XX.{ ( p.~.4.k w f f e 0 2 p k ,.%.O.@... X X X X X X X X X X X X X X X X X X X X X X X X X X X X X X",
" X X X X X X X X X X X X X X X X X X X X X X X X X X X X X X..O.T ! (.4.v g g f w 1 0 g l b P ..@. X X X X X X X X X X X X X X X X X X X X X X X X X X X X X X X",
" X X X X X X X X X X X X X X X X X X X X X X X X X X X X X X....V _ d.9.Z v h f 2 2 d j c M @...*. X X X X X X X X X X X X X X X X X X X X X X X X X X X X X X X",
" X X X X X X X X X X X X X X X X X X X X X X X X X X X X X X....B R a.N.J Z j f 2 u k c v K .... X X X X X X X X X X X X X X X X X X X X X X X X X X X X X X X X",
" X X X X X X X X X X X X X X X X X X X X X X X X X X X X X X@...O.T ! S.$.S z f 0 j S S D P .... X X X X X X X X X X X X X X X X X X X X X X X X X X X X X X X X",
" X X X X X X X X X X X X X X X X X X X X X X X X X X X X X X XX.X.V / s.4.S v g e v S S K ...... X X X X X X X X X X X X X X X X X X X X X X X X X X X X X X X X",
" X X X X X X X X X X X X X X X X X X X X X X X X X X X X X X X X..@.W s.!.+.Z v c Z F O.@....... X X X X X X X X X X X X X X X X X X X X X X X X X X X X X X X X",
" X X X X X X X X X X X X X X X X X X X X X X X X X X X X X X X X....{ i.^.N.J Z Z Z F ......@. X X X X X X X X X X X X X X X X X X X X X X X X X X X X X X X X X",
" X X X X X X X X X X X X X X X X X X X X X X X X X X X X X X X X X@.@.7.`._.6.D S G P ....@.@. X X X X X X X X X X X X X X X X X X X X X X X X X X X X X X X X X",
" X X X X X X X X X X X X X X X X X X X X X X X X X X X X X X X X X*.} e.G.).).I G @.......@. X X X XY.Y. X X X X X X X X X X X X X X X X X X X X X X X X X X X X",
" X X X X X X X X X X X X X X X X X X X X X X X X X X X X X X X X X@.*. X Xy.W.4.X.X.......}  X X X XY. X X X X X X X X X X X X X X X X X X X X X X X X X X X X X",
" X X X X X X X X X X X X X X X X X X X X X X X X X X X X X X X X X X*.*. Xo.D.H.D.X.' ' *. XY. X X X X X X X X X X X X X X X X X X X X X X X X X X X X X X X X X",
" X X X X X X X X X X X X X X X X X X X X X X X X X X X X X X X X X X X@.@.*.y.Y.U.t...=. XY.U.U. X X X X X X X X X X X X X X X X X X X X X X X X X X X X X X X X",
" X X X X X X X X X X X X X X X X X X X X X X X X X X X X X X X X X X X....@.h.f.H.H.t.K.R.U.U. X X X X X X X X X X X X X X X X X X X X X X X X X X X X X X X X X",
" X X X X X X X X X X X X X X X X X X X X X X X X X X X X X X X X X X X X*.=.Q ) c.U.U.U.u.c.P. X X X X X X X X X X X X X X X X X X X X X X X X X X X X X X X X X",
" X X X X X X X X X X X X X X X X X X X X X X X X X X X X X X X X X X X X X X X^ _ b.u.u.j.^  X X X X X X X X X X X X X X X X X X X X X X X X X X X X X X X X X X",
" X X X X X X X X X X X X X X X X X X X X X X X X X X X X X X X X X X X X X X X X) ) ) / ~  X X X X X X X X X X X X X X X X X X X X X X X X X X X X X X X X X X X",
" X X X X X X X X X X X X X X X X X X X X X X X X X X X X X X X X X X X X X X X X X X X X X X X X X X X X X X X X X X X X X X X X X X X X X X X X X X X X X X X X",
" X X X X X X X X X X X X X X X X X X X X X X X X X X X X X X X X X X X X X X X X X X X X X X X X X X X X X X X X X X X X X X X X X X X X X X X X X X X X X X X X",
" X X X X X X X X X X X X X X X X X X X X X X X X X X X X X X X X X X X X X X X X X X X X X X X X X X X X X X X X X X X X X X X X X X X X X X X X X X X X X X X X",
" X X X X X X X X X X X X X X X X X X X X X X X X X X X X X X X X X X X X X X X X X X X X X X X X X X X X X X X X X X X X X X X X X X X X X X X X X X X X X X X X",
" X X X X X X X X X X X X X X X X X X X X X X X X X X X X X X X X X X X X X X X X X X X X X X X X X X X X X X X X X X X X X X X X X X X X X X X X X X X X X X X X"
};
