/* XPM */
static char *result[] = {
/* columns rows colors chars-per-pixel */
"80 80 246 2 ",
"   c #010101",
".  c #020A0D",
"X  c #0B0B0B",
"o  c #070506",
"O  c #150A09",
"+  c #170805",
"@  c #040C13",
"#  c #01141C",
"$  c #0A1216",
"%  c #141414",
"&  c #1B1B1B",
"*  c #16191A",
"=  c #1C140B",
"-  c #27150A",
";  c #2F1009",
":  c #372716",
">  c #2C2012",
",  c #021A25",
"<  c #12172A",
"1  c #28192E",
"2  c #04222E",
"3  c #002434",
"4  c #052B3B",
"5  c #172D37",
"6  c #232323",
"7  c #2B2B2B",
"8  c #343434",
"9  c #3C3C3C",
"0  c #343B3D",
"q  c #312C31",
"w  c #4B1807",
"e  c #4D170C",
"r  c #641B15",
"t  c #7B1B18",
"y  c #512D17",
"u  c #6C2912",
"i  c #583D24",
"p  c #4A2F2E",
"a  c #712D2A",
"s  c #611F21",
"d  c #47462E",
"f  c #7B532C",
"g  c #785534",
"h  c #70452B",
"j  c #6C712B",
"k  c #002D41",
"l  c #023145",
"z  c #00364E",
"x  c #05354F",
"c  c #023A51",
"v  c #063D56",
"b  c #11364B",
"n  c #2C3052",
"m  c #29306B",
"M  c #1A2450",
"N  c #01415D",
"B  c #1C424D",
"V  c #27485B",
"C  c #004A6B",
"Z  c #054766",
"A  c #014D71",
"S  c #01547A",
"D  c #045374",
"F  c #165B75",
"G  c #1D4E65",
"H  c #2E5968",
"J  c #1C627F",
"K  c #4C4C4C",
"L  c #434445",
"P  c #5D5D5D",
"I  c #575954",
"U  c #4F524C",
"Y  c #7A5548",
"T  c #6D5548",
"R  c #746748",
"E  c #6C6C6C",
"W  c #636362",
"Q  c #7C7C7C",
"!  c #747474",
"~  c #73706D",
"^  c #575976",
"/  c #95241C",
"(  c #8E2D0D",
")  c #BB370D",
"_  c #AB371B",
"`  c #93322E",
"'  c #AF2F2B",
"]  c #C23C11",
"[  c #DA3D37",
"{  c #D3362B",
"}  c #E53935",
"|  c #EB3E31",
" . c #895A2E",
".. c #885D33",
"X. c #98563F",
"o. c #92502B",
"O. c #B5473E",
"+. c #B85636",
"@. c #AD4D34",
"#. c #8D6237",
"$. c #94653A",
"%. c #AC6E37",
"&. c #CA4B1B",
"*. c #C74417",
"=. c #D44C1D",
"-. c #CA5524",
";. c #D65A28",
":. c #C74339",
">. c #D84137",
",. c #CF502D",
"<. c #ED432F",
"1. c #EB4A2A",
"2. c #F54B29",
"3. c #F74D28",
"4. c #E9552A",
"5. c #FD5524",
"6. c #F45528",
"7. c #EC4D35",
"8. c #D6612A",
"9. c #DA632B",
"0. c #DA6C34",
"q. c #D9783B",
"w. c #CE6B31",
"e. c #E3783A",
"r. c #ED632E",
"t. c #963B5B",
"y. c #8C334E",
"u. c #B43644",
"i. c #D13D46",
"p. c #974E43",
"a. c #845346",
"s. c #895543",
"d. c #965641",
"f. c #AA4945",
"g. c #B87D45",
"h. c #A97542",
"j. c #964677",
"k. c #874476",
"l. c #A55C65",
"z. c #D2734D",
"x. c #9C8D3F",
"c. c #FA9732",
"v. c #F7A237",
"b. c #DFBD32",
"n. c #A3826B",
"m. c #C58347",
"M. c #D99552",
"N. c #D88748",
"B. c #E98745",
"V. c #EC904C",
"C. c #F0924D",
"Z. c #FF924D",
"A. c #F99A54",
"S. c #EC914D",
"D. c #FBA55A",
"F. c #FDAB5E",
"G. c #F6A25A",
"H. c #ECA35B",
"J. c #DD9469",
"K. c #FFAE61",
"L. c #F6A463",
"P. c #FFB263",
"I. c #F2AF74",
"U. c #2D3B85",
"Y. c #005C85",
"T. c #055E86",
"R. c #02628C",
"E. c #09658F",
"W. c #016B9B",
"Q. c #036894",
"!. c #14688A",
"~. c #3C51B9",
"^. c #3C4DB0",
"/. c #0272A4",
"(. c #0176A9",
"). c #017AAF",
"_. c #0478AC",
"`. c #356980",
"'. c #6F508E",
"]. c #77738C",
"[. c #4C56AE",
"{. c #716AA1",
"}. c #805182",
"|. c #0182BC",
" X c #0A88BE",
".X c #76878E",
"XX c #4583A0",
"oX c #0186C1",
"OX c #028DCB",
"+X c #0489C4",
"@X c #0193D4",
"#X c #0499DB",
"$X c #0B9BDC",
"%X c #0A96D5",
"&X c #0D94D0",
"*X c #039DE2",
"=X c #03A4ED",
"-X c #09A2E6",
";X c #03AAF4",
":X c #0AABF3",
">X c #09AEF8",
",X c #02AEFB",
"<X c #06B3FF",
"1X c #0BB3FE",
"2X c #0DB9FF",
"3X c #07B9FF",
"4X c #14BAFF",
"5X c #13B2FA",
"6X c #12A5E7",
"7X c #3B98C2",
"8X c #6DB3D2",
"9X c #48B2E2",
"0X c #51C8FF",
"qX c #74D3FC",
"wX c #838383",
"eX c #8B8B8B",
"rX c #848789",
"tX c #9A9A9A",
"yX c #959494",
"uX c #859297",
"iX c #B2A39B",
"pX c #97A3A8",
"aX c #A6A6A6",
"sX c #BCBAB9",
"dX c #B1AEAD",
"fX c #A9868C",
"gX c #F3B78F",
"hX c #D2A799",
"jX c #EBC8BE",
"kX c #DBC1A9",
"lX c #ABBCC4",
"zX c #8EDCFD",
"xX c #B9E5F9",
"cX c #C4C4C4",
"vX c #CBCBCA",
"bX c #CAC8C7",
"nX c #D7D7D7",
"mX c #ECDDD9",
"MX c #F8E9DD",
"NX c #D7EDF7",
"BX c #E6E6E6",
"VX c #F2EEED",
"CX c #F3F3F3",
"ZX c #FDFDFD",
"AX c #F0FCFF",
"SX c None",
/* pixels */
"SXSXSXSXSXSXSXSXSXSXSXSXSXSXSXSXSXSXSXSXSXSXSXSXSXSXSXSXSXSXSXSXSXSXSXSXSXSXSXSXSXSXSXSXSXSXSXSXSXSXSXSXSXSXSXSXSXSXSXSXSXSXSXSXSXSXSXSXSXSXSXSXSXSXSXSXSXSXSXSX",
"SXSXSXSXSXSXSXSXSXSXSXSXSXSXSXSXSXSXSXSXSXSXSXSXSXSXSXSXSXSXSXSXSXSXSXSXSXSXSXSXSXSXSXSXSXSXSXSXSXSXSXSXSXSXSXSXSXSXSXSXSXSXSXSXSXSXSXSXSXSXSXSXSXSXSXSXSXSXSXSX",
"SXSXSXSXSXSXSXSXSXSXSXSXSXSXSXSXSXSXSXSXSXSXSXSXSXSXSXSXSXSXSXSXSXSXSXSXSXSXSXSXSXSXSXSXSXSXSXSXSXSXSXSXSXSXSXSXSXSXSXSXSXSXSXSXSXSXSXSXSXSXSXSXSXSXSXSXSXSXSXSX",
"SXSXSXSXSXSXSXSXSXSXSXSXSXSXSXSXSXSXSXSXSXSXSXSXSXSXSXSXSXSXSXSXSXSXSXSXSXSXSXSXSXSXSXSXSXSXSXSXSXSXSXSXSXSXSXSXSXSXSXSXSXSXSXSXSXSXSXSXSXSXSXSXSXSXSXSXSXSXSXSX",
"SXSXSXSXSXSXSXSXSXSXSXSXSXSXSXSXSXSXSXSXSXSXSXSXSXSXSXSXSXSXSXSXSXSXSXSX2X2X2XSXSXSXSXSXSXSXSXSXSXSXSXSXSXSXSXSXSXSXSXSXSXSXSXSXSXSXSXSXSXSXSXSXSXSXSXSXSXSXSXSX",
"SXSXSXSXSXSXSXSXSXSXSXSXSXSXSXSXSXSXSXSXSXSXSXSXSXSXSXSXSXSXSXSXSXSXSXSX*XR.Q.SXSXSXSXSXSXSXSXSXSXSXSXSXSXSXSXSXSXSXSXSXSXSXSXSXSXSXSXSXSXSXSXSXSXSXSXSXSXSXSXSX",
"SXSXSXSXSXSXSXSXSXSXSXSXSXSXSXSXSXSXSXSXSXSXSXSXSXSXSXSXSXSXSXSXSXSXSXSX|.o # ).SXSXSXSXSXSXSXSXSX<X<X=XoX|.oXoXoXSXSXSXSXSXSXSXSXSXSXSXSXSXSXSXSXSXSXSXSXSXSXSX",
"SXSXSXSXSXSXSXSXSXSXSXSXSXSXSXSXSXSXSXSXSXSXSXSXSXSXSXSXSXSXSXSXSXSXSXSXoX. % , OXSXSXSXSXSX1X3X0XSXSXSX. . . # 3 %XSXSXSXSXSXSXSXSXSXSXSXSXSXSXSXSXSXSXSXSXSXSX",
"SXSXSXSXSXSXSXSXSXSXSXSXSXSXSXSXSXSXSXSXSXSXSXSXSXSXSXSX4XSXSXSXSXSXSXSX|.8 aX* 3 %XSXSXSXSX1XqXAXtXo o     , +X$XSXSXSXSXSXSXSXSXSXSXSXSXSXSXSXSXSXSXSXSXSXSXSX",
"SXSXSXSXSXSXSXSXSXSXSXSXSXSXSXSXSXSXSXSXSXSXSXSXSXSXSX5XT._.SXSXSXSXSXSX|.9 BXtX% z $XSXSXSXR.pXdX7       # ).<XSXSXSXSXSXSXSXSXSXSXSXSXSXSXSXSXSXSXSXSXSXSXSXSX",
"SXSXSXSXSXSXSXSXSXSXSXSXSXSXSXSXSXSXSXSXSXSXSXSXSXSXSX>Xx /.SXSXSXSXSXSXoXn VXCXQ % D &XSX(.^ cXcX! K   # Y.=XW.SXSXSXSXSXSXSXSXSXSXSXSXSXSXSXSXSXSXSXSXSXSXSXSX",
"SXSXSXSXSXSXSXSXSXSXSXSXSXSXSXSXSXSXSXSXSXSXSXSXSXSXSX>Xc D $XSXSXSXSXSX).0 VXZXsXU X R.=Xz ! cXBXVXQ @ C ,X@X3 #XSXSXSXSXSXSXSXSXSXSXSXSXSXSXSXSXSXSXSXSXSXSXSX",
"SXSXSXSXSXSXSXSXSXSXSXSXSXSXSXSXSXSXSXSXSXSXSXSXSXSXSX>Xz   R.SXSXSXSX4X+XK CXBXV sX8 % SX. o % Q eXo l =X,X+X3 #XSXSXSXSXSXSXSXSXSXSXSXSXSXSXSXSXSXSXSXSXSXSXSX",
"SXSXSXSXSXSXSXSXSXSXSXSXSXSXSXSXSXSXSXSXSXSX<X<X1XSXSX>Xc   @ Q.SXSX0XNXNXmXZXnX8 bX9 tXU     ! rX*   c <X@X3 , #XSXSXSXSXSXSXSXSXSXSXSXSXSXSXSXSXSXSXSXSXSXSXSX",
"SXSXSXSXSXSXSXSXSXSXSXSXSXSXSXSXSXSXSXSXSXSXN v Z $X4XzXlX9   2 R.SXXXP I Q ZXBXp vXsX~ &     eXeX  4 +X@XG Q 5 #XSXSXSXSXSXSXSXSXSXSXSXSXSXSXSXSXSXSXSXSXSXSXSX",
"SXSXSXSXSXSXSXSXSXSXSXSXSXSXSXSXSXSXSXSXSXSXC N $ S Q..XtXQ 7   H 8X+     * eXQ 6 nXaX6       eXeX  3 Q.!.rXbX5 #XSXSXSXSXSXSXSXSXSXSXSXSXSXSXSXSXSXSXSXSXSXSXSX",
"SXSXSXSXSXSXSXSXSXSXSXSXSXSXSXSXSXSXSXSXSXSX1X-Xc 3 .     wX! * Q tX            9 aX7       6 rXE % 9 8 E CXnX5 #XSXSXSXSXSXSXSXSXSXSXSXSXSXSXSXSXSXSXSXSXSXSXSX",
"SXSXSXSXSXSXSXSXSXSXSXSXSXSXSXSXSXSXSXSXSXSXSXSX*X*X4     o eX! wXtX          6 sX8         eXQ o E CXCXVXCXnX5 #XSXSXSXSXSXSXSXSXSXSXSXSXSXSXSXSXSXSXSXSXSXSXSX",
"SXSXSXSXSXSXSXSXSXSXSXSXSXSXSXSXSXSXSXSXSXSXSX$XN #X@X3     & rXVXyX          6 vX7         tXQ P BXZXZXbXW vX5 #XSXSXSXSXSXSXSXSXSXSXSXSXSXSXSXSXSXSXSXSXSXSXSX",
"SXSXSXSXSXSXSXSXSXSXSXSXSXSXSXSXSXSXSXSXSXSXSX#X, SX<X|.,     q P q 9 aXQ o * eXP $         yXQ 7 P P W L 8 bX5 #XSXSXSXSXSXSXSXSXSXSXSXSXSXSXSXSXSXSXSXSXSXSXSX",
"SXSXSXSXSXSXSXSXSXSXSXSXSXSXSXSXSXSXSXSXSXSXSX#X, * 6X4XR., 9 8   6 Q tX! & E wX%       U E cXQ         % ! .XF $XSXSXSXSXSXSXSXSXSXSXSXSXSXSXSXSXSXSXSXSXSXSXSX",
"SXSXSXSXSXSXSXSXSXSXSXSXSXSXSXSXSXSXSXSXSXSXSX$Xl . SXSX9X`.dXQ % Q rX    8 bX%         yXvXvXQ *   % 6 0 tXb -XSXSXSXSXSXSXSXSXSXSXSXSXSXSXSXSXSXSXSXSXSXSXSXSX",
"SXSXSXSXSXSXSXSXSXSXSXSXSXSXSXSXSXSXSXSXSXSXSXSX$X3   X pXBXBXE ! yXo o % L bX7       $ & * X Q wXX P tXo < OXSXSXSXSXSXSXSXSXSXSXSXSXSXSXSXSXSXSXSXSXSXSXSXSXSX",
"SXSXSXSXSXSXSXSXSXSXSXSXSXSXSXSXSXSXSXSXSXSXSXSXSXOX,   6 8 7 % Q tX  9 vXnXCXsX*   X tXvXK o % Q nXtX6     l *XSXSXSXSXSXSXSXSXSXSXSXSXSXSXSXSXSXSXSXSXSXSXSXSX",
"SXSXSXSXSXSXSXSXSXSXSXSXSXSXSXSXSXSXSXSXSXSXSXSXSXSX/.,         Q tXo U MXJ.J.VXpX$ o cXZXcXL o 7 aXaX      . Z 6XSXSXSXSXSXSXSXSXSXSXSXSXSXSXSXSXSXSXSXSXSXSXSX",
"SXSXSXSXSXSXSXSXSXSXSXSXSXSXSXSXSXSXSXSXSXSXSXSXSXSX<XR.#       K eXn K jX) ,.hXCXl.& sXmXiXwX8   E aX        . R.SXSXSXSXSXSXSXSXSXSXSXSXSXSXSXSXSXSXSXSXSXSXSX",
"SXSXSXSXSXSXSXSXSXSXSXSXSXSXSXSXSXSXSXSXSXSXSXSX&XOXOXOXk         I yXW hX-.=.*.jXVX9 sXz.w ! }.% I uX4 3 3 3 3 l %XSXSXSXSXSXSXSXSXSXSXSXSXSXSXSXSXSXSXSXSXSXSX",
"SXSXSXSXSXSXSXSXSXSXSXSXSXSXSXSXSXSXSXSXSXSXSX$X4 # , @             P aXi J.S.] ,.bXK sXz.w . rXQ   N =X=X=X=X=X=XSXSXSXSXSXSXSXSXSXSXSXSXSXSXSXSXSXSXSXSXSXSXSX",
"SXSXSXSXSXSXSXSXSXSXSXSXSXSXSXSXSXSXSXSXSXSXSXSXOXOX+X3           o O K W 7 i N.*.w.sXgXG.y D J &   v 1XSXSXSXSXSXSXSXSXSXSXSXSXSXSXSXSXSXSXSXSXSXSXSXSXSXSXSXSX",
"SXSXSXSXSXSXSXSXSXSXSXSXSXSXSXSXSXSXSXSXSXSXSXSXSXSXSX_.W.3     y d   8 m.a n.f q.*.z.L.K.i W.@Xx   N <XSXSXSXSXSXSXSXSXSXSXSXSXSXSXSXSXSXSXSXSXSXSXSXSXSXSXSXSX",
"SXSXSXSXSXSXSXSXSXSXSXSXSXSXSXSXSXSXSXSXSXSXSXSXSXSXSXSX<XR.,    .m.y y e.z.nX! #.( -.A.K.i Q.3X_.3 N 1XSXSXSXSXSXSXSXSXSXSXSXSXSXSXSXSXSXSXSXSXSXSXSXSXSXSXSXSX",
"SXSXSXSXSXSXSXSXSXSXSXSXSXSXSXSXSXSXSXSXSXSXSXSXSXSXSXSXSX2XS @ g P.%.i C.z.MXBX0 : M.P.M.d W.SXSXW.A 5XSXSXSXSXSXSXSXSXSXSXSXSXSXSXSXSXSXSXSXSXSXSXSXSXSXSXSXSX",
"SXSXSXSXSXSXSXSXSXSXSXSXSXSXSXSXSXSXSXSXSXSXSXSXSXSXSXSXSXSX;XC g H.q.-.F.D.I.MXiXM.K.F.d Q.SXSXSXSX6XSXSXSXSXSXSXSXSXSXSXSXSXSXSXSXSXSXSXSXSXSXSXSXSXSXSXSXSXSX",
"SXSXSXSXSXSXSXSXSXSXSXSXSXSXSXSXSXSXSXSXSXSXSXSXSXSXSXSXSXSXSX%XF : u ;.K.K.P.gXI.K.P.F.y W.SXSXSXSXSXSXSXSXSXSXSXSXSXSXSXSXSXSXSXSXSXSXSXSXSXSXSXSXSXSXSXSXSXSX",
"SXSXSXSXSXSXSXSXSXSXSXSXSXSXSXSXSXSXSXSXSXSXSXSXSXSXSXSXSXSXSX3XOXW.G e ..G.P.P.F.K.F.#.J #XSXSXSXSXSXSXSXSXSXSXSXSXSXSXSXSXSXSXSXSXSXSXSXSXSXSXSXSXSXSXSXSXSXSX",
"SXSXSXSXSXSXSXSXSXSXSXSXSXSXSXSXSXSXSXSXSXSXSXSXSXSXSXSXSXSX XW./.(.C o y m.F.P.K.F.g.> D (.+XSXSXSXSXSXSXSXSXSXSXSXSXSXSXSXSXSXSXSXSXSXSXSXSXSXSXSXSXSXSXSXSXSX",
"SXSXSXSXSXSXSXSXSXSXSXSXSXSXSXSXSXSXSXSXSXSXSXSXSXSXSXSXSX%XG - - > - w ( y m.N.M.m.: + o = J 6XSXSXSXSXSXSXSXSXSXSXSXSXSXSXSXSXSXSXSXSXSXSXSXSXSXSXSXSXSXSXSXSX",
"SXSXSXSXSXSXSXSXSXSXSXSXSXSXSXSXSXSXSXSXSXSXSXSXSXSXSXSX5XN $.w.w.H.q.) ] ( - = = - ( ) ; $.h R.2XSXSXSXSXSXSXSXSXSXSXSXSXSXSXSXSXSXSXSXSXSXSXSXSXSXSXSXSXSXSXSX",
"SXSXSXSXSXSXSXSXSXSXSXSXSXSXSXSXSXSXSXSXSXSXSXSXSXSXSX5XD R w.e.A.K.H.V.C.V.m.( + %.V.C.N.w.w R.2XSXSXSXSXSXSXSXSXSXSXSXSXSXSXSXSXSXSXSXSXSXSXSXSXSXSXSXSXSXSXSX",
"SXSXSXSXSXSXSXSXSXSXSXSXSXSXSXSXSXSXSXSXSXSXSXSXSXSXSX>Xz %.9.0.P.S.c.K.K.K.D.q.%.w.D.P.K.9.o.K /.SXSXSXSXSXSXSXSXSXSXSXSXSXSXSXSXSXSXSXSXSXSXSXSXSXSXSXSXSXSXSX",
"SXSXSXSXSXSXSXSXSXSXSXSXSXSXSXSXSXSXSXSXSXSXSXSXSXSXSX<Xc o.;.;.B.;.8.K.K.K.K.P.D.&.C.P.K.8.c.f S <XSXSXSXSXSXSXSXSXSXSXSXSXSXSXSXSXSXSXSXSXSXSXSXSXSXSXSXSXSXSX",
"SXSXSXSXSXSXSXSXSXSXSXSXSXSXSXSXSXSXSXSXSXSXSXSXSXSXSX%XB ( *.&.*.) ;.A.K.K.D.A.C.&.B.K.F.8.0.h S 3XSXSXSXSXSXSXSXSXSXSXSXSXSXSXSXSXSXSXSXSXSXSXSXSXSXSXSXSXSXSX",
"SXSXSXSXSXSXSXSXSXSXSXSXSXSXSXSXSXSXSXSXSXSXSXSXSXSX=XN %.8.q.D.0.) ] 8.D.K.A.=.*.] *.C.F.8.*.u D 1XSXSXSXSXSXSXSXSXSXSXSXSXSXSXSXSXSXSXSXSXSXSXSXSXSXSXSXSXSXSX",
"SXSXSXSXSXSXSXSXSXSXSXSXSXSXSXSXSXSXSXSXSXSXSXSXSXSX;X4 %.0.e.P.q.,.S.c.&.-.;.C.C.C.S.;.&.e.V.M.g Y.SXSXSXSXSXSXSXSXSXSXSXSXSXSXSXSXSXSXSXSXSXSXSXSXSXSXSXSXSXSX",
"SXSXSXSXSXSXSXSXSXSXSXSXSXSXSXSXSXSXSXSXSXSXSXSXSXSXR.T M.9.e.g.u o.P.G.q.e.e.L.F.e.0.q.*.B.P.P.g C <XSXSXSXSXSXSXSXSXSXSXSXSXSXSXSXSXSXSXSXSXSXSXSXSXSXSXSXSXSX",
"SXSXSXSXSXSXSXSXSXSXSXSXSXSXSXSXSXSXSXSXSXSXSXSXSX=X5 m.K.9.+.U c U z.Z.Z.Z.A.K.G.&.=.Z.4.+.M.P. .C 1XSXSXSXSXSXSXSXSXSXSXSXSXSXSXSXSXSXSXSXSXSXSXSXSXSXSXSXSXSX",
"SXSXSXSXSXSXSXSXSXSXSXSXSXSXSXSXSXSXSXSXSXSXSXSXSX=X4 m.K.-.e W.4XQ.e =.=.7.6.D.A.=.B.r.=.w #.I.g C <XSXSXSXSXSXSXSXSXSXSXSXSXSXSXSXSXSXSXSXSXSXSXSXSXSXSXSXSXSX",
"SXSXSXSXSXSXSXSXSXSXSXSXSXSXSXSXSXSXSXSXSXSXSXSXSX=X4 m.F.h Y.qXqXW.X = 6 '.r.6.7.7.7.e + o m [.n C <XSXSXSXSXSXSXSXSXSXSXSXSXSXSXSXSXSXSXSXSXSXSXSXSXSXSXSXSXSX",
"SXSXSXSXSXSXSXSXSXSXSXSXSXSXSXSXSXSXSXSXSXSXSXSXSX=X4 ^ {.1 Q.zXNX8X+XS 2 [.'.'.'.'.'.< S l m ~.M C >XSXSXSXSXSXSXSXSXSXSXSXSXSXSXSXSXSXSXSXSXSXSXSXSXSXSXSXSXSX",
"SXSXSXSXSXSXSXSXSXSXSXSXSXSXSXSXSXSXSXSXSXSXSXSXSX=X3 U.^.M k 7XxXzX@XV ` k.~.[.~.~.[.h H I l.fXK Z 1XSXSXSXSXSXSXSXSXSXSXSXSXSXSXSXSXSXSXSXSXSXSXSXSXSXSXSXSXSX",
"SXSXSXSXSXSXSXSXSXSXSXSXSXSXSXSXSXSXSXSXSXSXSXSXSX=Xk ^ ].I i G 9XqX/.w 2.i.'.'.'.'.'.,.w  .N.M. .Z <XSXSXSXSXSXSXSXSXSXSXSXSXSXSXSXSXSXSXSXSXSXSXSXSXSXSXSXSXSX",
"SXSXSXSXSXSXSXSXSXSXSXSXSXSXSXSXSXSXSXSXSXSXSXSXSX=X3 z.K.H.S.f F -XE.r 2.<.5.5.} 7.X.=.u u w ....C <XSXSXSXSXSXSXSXSXSXSXSXSXSXSXSXSXSXSXSXSXSXSXSXSXSXSXSXSXSX",
"SXSXSXSXSXSXSXSXSXSXSXSXSXSXSXSXSXSXSXSXSXSXSXSXSX=X4 m.K.w.e  .g # y 1.<.5.5.5.} 6.d.;.[ e o ....Z <XSXSXSXSXSXSXSXSXSXSXSXSXSXSXSXSXSXSXSXSXSXSXSXSXSXSXSXSXSX",
"SXSXSXSXSXSXSXSXSXSXSXSXSXSXSXSXSXSXSXSXSXSXSXSXSX=X4 m.K.8.w ..#.w *.1.5.5.5.5.<.7.d.4.<.e h H. .C <XSXSXSXSXSXSXSXSXSXSXSXSXSXSXSXSXSXSXSXSXSXSXSXSXSXSXSXSXSX",
"SXSXSXSXSXSXSXSXSXSXSXSXSXSXSXSXSXSXSXSXSXSXSXSXSXSXE.T M.Z.%. .: r <.<.5.5.5.5.<.6.d.;.3._ o.f U (.SXSXSXSXSXSXSXSXSXSXSXSXSXSXSXSXSXSXSXSXSXSXSXSXSXSXSXSXSXSX",
"SXSXSXSXSXSXSXSXSXSXSXSXSXSXSXSXSXSXSXSXSXSXSXSXSXSX5XA R %.g.i = o.} <.5.5.5.3.<.5.d.>.3.5.( < W.SXSXSXSXSXSXSXSXSXSXSXSXSXSXSXSXSXSXSXSXSXSXSXSXSXSXSXSXSXSXSX",
"SXSXSXSXSXSXSXSXSXSXSXSXSXSXSXSXSXSXSXSXSXSXSXSXSXSXSX5XZ . + = j v.} <.5.3.<.3.>.4.X.:.} 6.6.].*XSXSXSXSXSXSXSXSXSXSXSXSXSXSXSXSXSXSXSXSXSXSXSXSXSXSXSXSXSXSXSX",
"SXSXSXSXSXSXSXSXSXSXSXSXSXSXSXSXSXSXSXSXSXSXSXSXSXSXSXSX$Xz / ` m.v.} <.3.<.3.>.p.a.Y { } v.c.u S <XSXSXSXSXSXSXSXSXSXSXSXSXSXSXSXSXSXSXSXSXSXSXSXSXSXSXSXSXSXSX",
"SXSXSXSXSXSXSXSXSXSXSXSXSXSXSXSXSXSXSXSXSXSXSXSXSXSXSXSX1X^ { f.%.r.| } <.3.1.p.Y Y -.6.<.7.v.w.p T.SXSXSXSXSXSXSXSXSXSXSXSXSXSXSXSXSXSXSXSXSXSXSXSXSXSXSXSXSXSX",
"SXSXSXSXSXSXSXSXSXSXSXSXSXSXSXSXSXSXSXSXSXSXSXSXSXSXSXSXW.Y f.s.+.5.<.2.2.>.t : p T +.6.2.| z.q./ C <XSXSXSXSXSXSXSXSXSXSXSXSXSXSXSXSXSXSXSXSXSXSXSXSXSXSXSXSXSX",
"SXSXSXSXSXSXSXSXSXSXSXSXSXSXSXSXSXSXSXSXSXSXSXSXSXSXSX>Xz s a.Y +.2.| 3.1.` X . O y.a.+.;.>.p.O.t C ,XSXSXSXSXSXSXSXSXSXSXSXSXSXSXSXSXSXSXSXSXSXSXSXSXSXSXSXSXSX",
"SXSXSXSXSXSXSXSXSXSXSXSXSXSXSXSXSXSXSXSXSXSXSXSXSXSXSX;Xx / f.Y +.2.[ [ :.h X SXO ' p.Y Y Y a.O.t C <XSXSXSXSXSXSXSXSXSXSXSXSXSXSXSXSXSXSXSXSXSXSXSXSXSXSXSXSXSX",
"SXSXSXSXSXSXSXSXSXSXSXSXSXSXSXSXSXSXSXSXSXSXSXSXSXSXSX,Xz / f.Y f.:.a.a.f.' O SXO ' [ s.Y Y f.} t C 1XSXSXSXSXSXSXSXSXSXSXSXSXSXSXSXSXSXSXSXSXSXSXSXSXSXSXSXSXSX",
"SXSXSXSXSXSXSXSXSXSXSXSXSXSXSXSXSXSXSXSXSXSXSXSXSXSXSX>Xx / [ p.a.a.Y a.>.' X SXSXe { [ O.[ [ / V +XSXSXSXSXSXSXSXSXSXSXSXSXSXSXSXSXSXSXSXSXSXSXSXSXSXSXSXSXSXSX",
"SXSXSXSXSXSXSXSXSXSXSXSXSXSXSXSXSXSXSXSXSXSXSXSXSXSXSXSXE.p y.t.f.O.O.' t s v SXSXSXa t.j.i.' n /.SXSXSXSXSXSXSXSXSXSXSXSXSXSXSXSXSXSXSXSXSXSXSXSXSXSXSXSXSXSXSX",
"SXSXSXSXSXSXSXSXSXSXSXSXSXSXSXSXSXSXSXSXSXSXSXSXSXSXSXSX2XN m j.i.' ' a l N SXSXSXSX@ U.[.j.r Y.SXSXSXSXSXSXSXSXSXSXSXSXSXSXSXSXSXSXSXSXSXSXSXSXSXSXSXSXSXSXSXSX",
"SXSXSXSXSXSXSXSXSXSXSXSXSXSXSXSXSXSXSXSXSXSXSXSXSXSXSXSX<XN m j.j.m $ v =X>XSXSXSXSX3 U.[.t.s T.SXSXSXSXSXSXSXSXSXSXSXSXSXSXSXSXSXSXSXSXSXSXSXSXSXSXSXSXSXSXSXSX",
"SXSXSXSXSXSXSXSXSXSXSXSXSXSXSXSXSXSXSXSXSXSXSXSXSXSXSXSX>XZ / j.m C #X$XSXSXSXSXSXSX@Xx m n T.6XSXSXSXSXSXSXSXSXSXSXSXSXSXSXSXSXSXSXSXSXSXSXSXSXSXSXSXSXSXSXSXSX",
"SXSXSXSXSXSXSXSXSXSXSXSXSXSXSXSXSXSXSXSXSXSXSXSXSXSXSX5XS m t.a A  XSXSXSXSXSXSXSXSX:Xl x.8 Q.2XSXSXSXSXSXSXSXSXSXSXSXSXSXSXSXSXSXSXSXSXSXSXSXSXSXSXSXSXSXSXSXSX",
"SXSXSXSXSXSXSXSXSXSXSXSXSXSXSXSXSXSXSXSXSXSXSXSXSXSXSX>Xx R M.u S 2XSXSXSXSXSXSXSXSX:Xl R  .n T.).SXSXSXSXSXSXSXSXSXSXSXSXSXSXSXSXSXSXSXSXSXSXSXSXSXSXSXSXSXSXSX",
"SXSXSXSXSXSXSXSXSXSXSXSXSXSXSXSXSXSXSXSXSXSXSXSXSXSXSX3Xz %.b.j R.SXSXSXSXSXSXSXSXSX:Xl m }.a ; V @XSXSXSXSXSXSXSXSXSXSXSXSXSXSXSXSXSXSXSXSXSXSXSXSXSXSXSXSXSXSX",
"SXSXSXSXSXSXSXSXSXSXSXSXSXSXSXSXSXSXSXSXSXSXSXSXSXSXSX#Xb ` s Q.5XSXSXSXSXSXSXSXSXSX:Xl m ^.t.{ r C 2XSXSXSXSXSXSXSXSXSXSXSXSXSXSXSXSXSXSXSXSXSXSXSXSXSXSXSXSXSX",
"SXSXSXSXSXSXSXSXSXSXSXSXSXSXSXSXSXSXSXSXSXSXSXSXSXSX:XN ` k.1 Y.2XSXSXSXSXSXSXSXSXSX:Xl @ # O - + C <XSXSXSXSXSXSXSXSXSXSXSXSXSXSXSXSXSXSXSXSXSXSXSXSXSXSXSXSXSX",
"SXSXSXSXSXSXSXSXSXSXSXSXSXSXSXSXSXSXSXSXSXSXSXSXSXSX;Xk ; 1 @ Y.4XSXSXSXSXSXSXSXSXSX<XoX(.(.).(.).OX1XSXSXSXSXSXSXSXSXSXSXSXSXSXSXSXSXSXSXSXSXSXSXSXSXSXSXSXSXSX",
"SXSXSXSXSXSXSXSXSXSXSXSXSXSXSXSXSXSXSXSXSXSXSXSXSXSX>XQ.A A A |.2XSXSXSXSXSXSXSXSXSXSX2X5X5X2X2X2X2XSXSXSXSXSXSXSXSXSXSXSXSXSXSXSXSXSXSXSXSXSXSXSXSXSXSXSXSXSXSX",
"SXSXSXSXSXSXSXSXSXSXSXSXSXSXSXSXSXSXSXSXSXSXSXSXSXSX1X<X<X<X<X,XSXSXSXSXSXSXSXSXSXSXSXSXSXSXSXSXSXSXSXSXSXSXSXSXSXSXSXSXSXSXSXSXSXSXSXSXSXSXSXSXSXSXSXSXSXSXSXSX",
"SXSXSXSXSXSXSXSXSXSXSXSXSXSXSXSXSXSXSXSXSXSXSXSXSXSXSXSXSXSXSXSXSXSXSXSXSXSXSXSXSXSXSXSXSXSXSXSXSXSXSXSXSXSXSXSXSXSXSXSXSXSXSXSXSXSXSXSXSXSXSXSXSXSXSXSXSXSXSXSX",
"SXSXSXSXSXSXSXSXSXSXSXSXSXSXSXSXSXSXSXSXSXSXSXSXSXSXSXSXSXSXSXSXSXSXSXSXSXSXSXSXSXSXSXSXSXSXSXSXSXSXSXSXSXSXSXSXSXSXSXSXSXSXSXSXSXSXSXSXSXSXSXSXSXSXSXSXSXSXSXSX",
"SXSXSXSXSXSXSXSXSXSXSXSXSXSXSXSXSXSXSXSXSXSXSXSXSXSXSXSXSXSXSXSXSXSXSXSXSXSXSXSXSXSXSXSXSXSXSXSXSXSXSXSXSXSXSXSXSXSXSXSXSXSXSXSXSXSXSXSXSXSXSXSXSXSXSXSXSXSXSXSX",
"SXSXSXSXSXSXSXSXSXSXSXSXSXSXSXSXSXSXSXSXSXSXSXSXSXSXSXSXSXSXSXSXSXSXSXSXSXSXSXSXSXSXSXSXSXSXSXSXSXSXSXSXSXSXSXSXSXSXSXSXSXSXSXSXSXSXSXSXSXSXSXSXSXSXSXSXSXSXSXSX"
};
