/* XPM */
static char *result[] = {
/* columns rows colors chars-per-pixel */
"80 80 244 2 ",
"   c #010101",
".  c #0C0201",
"X  c #00040B",
"o  c #0C0C0C",
"O  c #060B0D",
"+  c #140503",
"@  c #000B16",
"#  c #00111D",
"$  c #0E1114",
"%  c #131313",
"&  c #1B1B1B",
"*  c #1A1705",
"=  c #210A03",
"-  c #2F1005",
";  c #382516",
":  c #35220E",
">  c #001928",
",  c #001F30",
"<  c #0A133F",
"1  c #11142F",
"2  c #24122A",
"3  c #012132",
"4  c #00253A",
"5  c #052838",
"6  c #0E2732",
"7  c #2B2B2B",
"8  c #232323",
"9  c #343434",
"0  c #3C3C3C",
"q  c #31383B",
"w  c #262935",
"e  c #450902",
"r  c #4C1302",
"t  c #551904",
"y  c #4E1411",
"u  c #641A06",
"i  c #7A1612",
"p  c #6B1610",
"a  c #563719",
"s  c #4D2912",
"d  c #6C3312",
"f  c #791C22",
"g  c #4D2E2D",
"h  c #75312E",
"j  c #7A522A",
"k  c #6F502F",
"l  c #605626",
"z  c #002C42",
"x  c #022E4E",
"c  c #00344E",
"v  c #05344B",
"b  c #013E5C",
"n  c #003853",
"m  c #1A225D",
"M  c #2B3351",
"N  c #182C6A",
"B  c #282E6B",
"V  c #2A1F45",
"C  c #114158",
"Z  c #2D4D58",
"A  c #00466A",
"S  c #004B6D",
"D  c #024564",
"F  c #004D72",
"G  c #00547B",
"H  c #065574",
"J  c #16536A",
"K  c #395A66",
"L  c #494A4A",
"P  c #5C5B5B",
"I  c #51514A",
"U  c #7B5446",
"Y  c #705348",
"T  c #756746",
"R  c #686867",
"E  c #7C7C7C",
"W  c #737372",
"Q  c #72706D",
"!  c #565977",
"~  c #971C18",
"^  c #962907",
"/  c #872805",
"(  c #B3300D",
")  c #912E29",
"_  c #AF2D28",
"`  c #C33908",
"'  c #CE3E1A",
"]  c #C93F37",
"[  c #D93C35",
"{  c #D43327",
"}  c #EC3C2D",
"|  c #E63732",
" . c #8A5A2B",
".. c #885E35",
"X. c #98553E",
"o. c #96512D",
"O. c #AD483D",
"+. c #B4453D",
"@. c #B75530",
"#. c #8E6134",
"$. c #936436",
"%. c #A9723C",
"&. c #B16A34",
"*. c #9C581C",
"=. c #CA4714",
"-. c #D94A1A",
";. c #CC511B",
":. c #CD4B15",
">. c #FE551D",
",. c #C85627",
"<. c #D45C22",
"1. c #DB5528",
"2. c #CD4C35",
"3. c #ED412B",
"4. c #EB4926",
"5. c #F94D22",
"6. c #F44926",
"7. c #EA5527",
"8. c #F65423",
"9. c #EA4C34",
"0. c #CE672C",
"q. c #D96327",
"w. c #DB7737",
"e. c #D17137",
"r. c #E37837",
"t. c #EE632A",
"y. c #97385B",
"u. c #8D304D",
"i. c #B53342",
"p. c #D23B44",
"a. c #964D41",
"s. c #855244",
"d. c #8D4F43",
"f. c #A2494D",
"g. c #B77D43",
"h. c #964476",
"j. c #84437B",
"k. c #A65C65",
"l. c #D77652",
"z. c #9D8E3D",
"x. c #EE8539",
"c. c #F6A334",
"v. c #E0BE2E",
"b. c #BD824F",
"n. c #8B827D",
"m. c #C58546",
"M. c #D78746",
"N. c #D7924F",
"B. c #DC9954",
"V. c #EB8944",
"C. c #ED914B",
"Z. c #F0934C",
"A. c #FF934C",
"S. c #E59A53",
"D. c #F99952",
"F. c #F38943",
"G. c #FDAB5E",
"H. c #F9A459",
"J. c #ECA45B",
"K. c #FFAE61",
"L. c #F6A563",
"P. c #FFB162",
"I. c #EEAC70",
"U. c #DC8A70",
"Y. c #293886",
"T. c #015D85",
"R. c #005E89",
"E. c #00628D",
"W. c #0C6586",
"Q. c #006A9A",
"!. c #006795",
"~. c #106789",
"^. c #3B4FB6",
"/. c #3951BB",
"(. c #3A49A5",
"). c #0072A4",
"_. c #0076AA",
"`. c #0079AC",
"'. c #0077AB",
"]. c #326981",
"[. c #6F4F8F",
"{. c #746E94",
"}. c #4B56AF",
"|. c #726AA2",
" X c #815083",
".X c #0083BC",
"XX c #0480B2",
"oX c #7B8488",
"OX c #4484A2",
"+X c #0086C2",
"@X c #018AC4",
"#X c #028ECA",
"$X c #0091CE",
"%X c #0095D5",
"&X c #019BDC",
"*X c #0599D6",
"=X c #029EE2",
"-X c #02A1E4",
";X c #00A5EC",
":X c #08A6E7",
">X c #01ACF3",
",X c #01AFF8",
"<X c #02B4FE",
"1X c #04BAFF",
"2X c #0AB7FC",
"3X c #11B8FD",
"4X c #3BA9D8",
"5X c #6DB4D3",
"6X c #4FAED7",
"7X c #50CAFF",
"8X c #70D1FA",
"9X c #828282",
"0X c #8C8C8C",
"qX c #85888A",
"wX c #9B9B9B",
"eX c #959494",
"rX c #869398",
"tX c #B3A49C",
"yX c #94A2A8",
"uX c #A6A7A7",
"iX c #BCBBBB",
"pX c #B2AFAE",
"aX c #AA878D",
"sX c #F3B890",
"dX c #C8B8B1",
"fX c #D5A290",
"gX c #EEC9BE",
"hX c #F2C294",
"jX c #ACBDC5",
"kX c #88DDFF",
"lX c #96DBFA",
"zX c #BAE6F9",
"xX c #CBCACA",
"cX c #C4C3C3",
"vX c #D6D6D6",
"bX c #E9D6D1",
"nX c #F8EADE",
"mX c #D4EDF8",
"MX c #E7E7E7",
"NX c #F2EEEE",
"BX c #F3F3F3",
"VX c #FBFDFE",
"CX c #E0EEF5",
"ZX c None",
/* pixels */
"ZXZXZXZXZXZXZXZXZXZXZXZXZXZXZXZXZXZXZXZXZXZXZXZXZXZXZXZXZXZXZXZXZXZXZXZXZXZXZXZXZXZXZXZXZXZXZXZXZXZXZXZXZXZXZXZXZXZXZXZXZXZXZXZXZXZXZXZXZXZXZXZXZXZXZXZXZXZXZXZX",
"ZXZXZXZXZXZXZXZXZXZXZXZXZXZXZXZXZXZXZXZXZXZXZXZXZXZXZXZXZXZXZXZXZXZXZXZXZXZXZXZXZXZXZXZXZXZXZXZXZXZXZXZXZXZXZXZXZXZXZXZXZXZXZXZXZXZXZXZXZXZXZXZXZXZXZXZXZXZXZXZX",
"ZXZXZXZXZXZXZXZXZXZXZXZXZXZXZXZXZXZXZXZXZXZXZXZXZXZXZXZXZXZXZXZXZXZXZXZXZXZXZXZXZXZXZXZXZXZXZXZXZXZXZXZXZXZXZXZXZXZXZXZXZXZXZXZXZXZXZXZXZXZXZXZXZXZXZXZXZXZXZXZX",
"ZXZXZXZXZXZXZXZXZXZXZXZXZXZXZXZXZXZXZXZXZXZXZXZXZXZXZXZXZXZXZXZXZXZXZXZXZXZXZXZXZXZXZXZXZXZXZXZXZXZXZXZXZXZXZXZXZXZXZXZXZXZXZXZXZXZXZXZXZXZXZXZXZXZXZXZXZXZXZXZX",
"ZXZXZXZXZXZXZXZXZXZXZXZXZXZXZXZXZXZXZXZXZXZXZXZXZXZXZXZXZXZXZXZXZXZXZXZXZXZXZXZXZX2X2X<XZXZXZXZXZXZXZXZXZXZXZXZXZXZXZXZXZXZXZXZXZXZXZXZXZXZXZXZXZXZXZXZXZXZXZXZX",
"ZXZXZXZXZXZXZXZXZXZXZXZXZXZXZXZXZXZXZXZXZXZXZXZXZXZXZXZXZXZXZXZXZXZXZXZXZXZXZXZXZX!.!.=XZXZXZXZXZXZXZXZXZXZXZXZXZXZXZXZXZXZXZXZXZXZXZXZXZXZXZXZXZXZXZXZXZXZXZXZX",
"ZXZXZXZXZXZXZXZXZXZXZXZXZXZXZXZXZXZXZXZXZXZXZX@X+X.X+X+X;X<X<XZXZXZXZXZXZXZXZXZX`.@   .XZXZXZXZXZXZXZXZXZXZXZXZXZXZXZXZXZXZXZXZXZXZXZXZXZXZXZXZXZXZXZXZXZXZXZXZX",
"ZXZXZXZXZXZXZXZXZXZXZXZXZXZXZXZXZXZXZXZXZXZX*X3 @ X   X ZXZXZX7X<X2XZXZXZXZXZX#X> o X .XZXZXZXZXZXZXZXZXZXZXZXZXZXZXZXZXZXZXZXZXZXZXZXZXZXZXZXZXZXZXZXZXZXZXZXZX",
"ZXZXZXZXZXZXZXZXZXZXZXZXZXZXZXZXZXZXZXZXZXZXZX&X@X>         wXVX8X<XZXZXZXZX*X, $ uXq .XZXZXZXZXZXZXZX3XZXZXZXZXZXZXZXZXZXZXZXZXZXZXZXZXZXZXZXZXZXZXZXZXZXZXZXZX",
"ZXZXZXZXZXZXZXZXZXZXZXZXZXZXZXZXZXZXZXZXZXZXZXZX<X`.@       7 pXyXE.ZXZXZX*Xc o wXMXq .XZXZXZXZXZXZXXXG 3XZXZXZXZXZXZXZXZXZXZXZXZXZXZXZXZXZXZXZXZXZXZXZXZXZXZXZX",
"ZXZXZXZXZXZXZXZXZXZXZXZXZXZXZXZXZXZXZXZXZXZXZXZXQ.;XE.X   L W cXxXK _.ZX*XS O E BXNXq .XZXZXZXZXZXZX).c ,XZXZXZXZXZXZXZXZXZXZXZXZXZXZXZXZXZXZXZXZXZXZXZXZXZXZXZX",
"ZXZXZXZXZXZXZXZXZXZXZXZXZXZXZXZXZXZXZXZXZXZXZX-X, %X<XS X E MXMXxXW c ;XE.X L cXVXNX9 .XZXZXZXZXZX&XG c <XZXZXZXZXZXZXZXZXZXZXZXZXZXZXZXZXZXZXZXZXZXZXZXZXZXZXZX",
"ZXZXZXZXZXZXZXZXZXZXZXZXZXZXZXZXZXZXZXZXZXZXZX&X, +X,X>Xz   eX9Xo   X ZXo 9 iX0 MXNXL @X3XZXZXZXZXE.  c ,XZXZXZXZXZXZXZXZXZXZXZXZXZXZXZXZXZXZXZXZXZXZXZXZXZXZXZX",
"ZXZXZXZXZXZXZXZXZXZXZXZXZXZXZXZXZXZXZXZXZXZXZX-X> > %X,Xc   o 0XW     L wX0 cX9 MXVXvXmXmX7XZXZX!.@   c 1XZXZX<X<X<XZXZXZXZXZXZXZXZXZXZXZXZXZXZXZXZXZXZXZXZXZXZX",
"ZXZXZXZXZXZXZXZXZXZXZXZXZXZXZXZXZXZXZXZXZXZXZX-X6  XJ %X@X4   0X0X    % R iXvX9 MXVXE P P OXZXE.,   9 jXkX3X&XD n b ZXZXZXZXZXZXZXZXZXZXZXZXZXZXZXZXZXZXZXZXZXZX",
"ZXZXZXZXZXZXZXZXZXZXZXZXZXZXZXZXZXZXZXZXZXZXZX-X6 xXqX~.!.,   0X0X      & uXvX8 E qX$     . 5XK   8 n.wXoX!.G X b S ZXZXZXZXZXZXZXZXZXZXZXZXZXZXZXZXZXZXZXZXZXZX",
"ZXZXZXZXZXZXZXZXZXZXZXZXZXZXZXZXZXZXZXZXZXZXZX&X6 vXVXR 9 9 o R 9X&       8 uX0             wXE o E 9X      3 c ;X<XZXZXZXZXZXZXZXZXZXZXZXZXZXZXZXZXZXZXZXZXZXZX",
"ZXZXZXZXZXZXZXZXZXZXZXZXZXZXZXZXZXZXZXZXZXZXZX&X6 vXBXNXBXBXW   E eX        7 cX&           wX9XW 0X      4 =X-XZXZXZXZXZXZXZXZXZXZXZXZXZXZXZXZXZXZXZXZXZXZXZXZX",
"ZXZXZXZXZXZXZXZXZXZXZXZXZXZXZXZXZXZXZXZXZXZXZX&X6 xXR xXVXVXMXP E wX        8 xX&           eXNX9X%     , %X&Xn &XZXZXZXZXZXZXZXZXZXZXZXZXZXZXZXZXZXZXZXZXZXZXZX",
"ZXZXZXZXZXZXZXZXZXZXZXZXZXZXZXZXZXZXZXZXZXZXZX&X6 cX9 0 R P P 7 E wX        . P 0X$   E uX9 9 P 7     > .X<XZX> &XZXZXZXZXZXZXZXZXZXZXZXZXZXZXZXZXZXZXZXZXZXZXZX",
"ZXZXZXZXZXZXZXZXZXZXZXZXZXZXZXZXZXZXZXZXZXZXZX=XH oXW $         E xXR L       O 9XR % W wX9X8   7 0 > E.3X:X$ # &XZXZXZXZXZXZXZXZXZXZXZXZXZXZXZXZXZXZXZXZXZXZXZX",
"ZXZXZXZXZXZXZXZXZXZXZXZXZXZXZXZXZXZXZXZXZXZXZXZX:Xv uX9 & o   % E xXxXeX        % xX9     qXE O E pXJ 7XZXZX  z -XZXZXZXZXZXZXZXZXZXZXZXZXZXZXZXZXZXZXZXZXZXZXZX",
"ZXZXZXZXZXZXZXZXZXZXZXZXZXZXZXZXZXZXZXZXZXZXZXZXZX#X>   wXP   9X9X  o & O       8 xXL       eXQ Q MXMXuX.   , &XZXZXZXZXZXZXZXZXZXZXZXZXZXZXZXZXZXZXZXZXZXZXZXZX",
"ZXZXZXZXZXZXZXZXZXZXZXZXZXZXZXZXZXZXZXZXZXZXZXZX-Xz     & wXvXE o   L vXwX    % iXVXvXxX0   wXn.O 7 7 &   > @XZXZXZXZXZXZXZXZXZXZXZXZXZXZXZXZXZXZXZXZXZXZXZXZXZX",
"ZXZXZXZXZXZXZXZXZXZXZXZXZXZXZXZXZXZXZXZXZXZXZX:XD X       uXuX7   0 cXVXcX  o wXBXfXU.bXI . wX{.        # ).ZXZXZXZXZXZXZXZXZXZXZXZXZXZXZXZXZXZXZXZXZXZXZXZXZXZX",
"ZXZXZXZXZXZXZXZXZXZXZXZXZXZXZXZXZXZXZXZXZXZXZXE.          uXR   7 oXtXbXdX& E NXfX=.` gXL 0 0XL       # E.<XZXZXZXZXZXZXZXZXZXZXZXZXZXZXZXZXZXZXZXZXZXZXZXZXZXZX",
"ZXZXZXZXZXZXZXZXZXZXZXZXZXZXZXZXZXZXZXZXZXZX*Xz , 3 , , , rXP o k.oX- l.iX0 MXgX;.=.;.dXR eXI         4 #X$X#X$XZXZXZXZXZXZXZXZXZXZXZXZXZXZXZXZXZXZXZXZXZXZXZXZX",
"ZXZXZXZXZXZXZXZXZXZXZXZXZXZXZXZXZXZXZXZXZXZXZX;X;X;X;X;X;XD   E oX# e l.dX0 bX,.=.V.S.g uXP             X @ # 4 &XZXZXZXZXZXZXZXZXZXZXZXZXZXZXZXZXZXZXZXZXZXZXZX",
"ZXZXZXZXZXZXZXZXZXZXZXZXZXZXZXZXZXZXZXZXZXZXZXZXZXZXZXZX<Xb   % H G a H.sXdX0.' N.a : R L o             , @X#X$XZXZXZXZXZXZXZXZXZXZXZXZXZXZXZXZXZXZXZXZXZXZXZXZX",
"ZXZXZXZXZXZXZXZXZXZXZXZXZXZXZXZXZXZXZXZXZXZXZXZXZXZXZXZX<Xb   c *XQ.a P.L.l.=.e.k k.h b.;   a a     , Q.'.ZXZXZXZXZXZXZXZXZXZXZXZXZXZXZXZXZXZXZXZXZXZXZXZXZXZXZX",
"ZXZXZXZXZXZXZXZXZXZXZXZXZXZXZXZXZXZXZXZXZXZXZXZXZXZXZXZX<Xb , _.1X!.a P.D.;./ $.Q MXl.V.a ; m.j   > E.<XZXZXZXZXZXZXZXZXZXZXZXZXZXZXZXZXZXZXZXZXZXZXZXZXZXZXZXZX",
"ZXZXZXZXZXZXZXZXZXZXZXZXZXZXZXZXZXZXZXZXZXZXZXZXZXZXZXZX2XF Q.ZXZX).0 B.P.N.: 9 bXnXe.C.a g.P.j   G 2XZXZXZXZXZXZXZXZXZXZXZXZXZXZXZXZXZXZXZXZXZXZXZXZXZXZXZXZXZX",
"ZXZXZXZXZXZXZXZXZXZXZXZXZXZXZXZXZXZXZXZXZXZXZXZXZXZXZXZXZX;XZXZXZXZXQ.a P.K.B.uXnXhXG.G.;.M.G.k S >XZXZXZXZXZXZXZXZXZXZXZXZXZXZXZXZXZXZXZXZXZXZXZXZXZXZXZXZXZXZX",
"ZXZXZXZXZXZXZXZXZXZXZXZXZXZXZXZXZXZXZXZXZXZXZXZXZXZXZXZXZXZXZXZXZXZX_.a K.K.P.I.I.P.K.K.<.u : J &XZXZXZXZXZXZXZXZXZXZXZXZXZXZXZXZXZXZXZXZXZXZXZXZXZXZXZXZXZXZXZX",
"ZXZXZXZXZXZXZXZXZXZXZXZXZXZXZXZXZXZXZXZXZXZXZXZXZXZXZXZXZXZXZXZXZXZX=XJ #.G.K.K.P.P.P.#.t C Q.%X1XZXZXZXZXZXZXZXZXZXZXZXZXZXZXZXZXZXZXZXZXZXZXZXZXZXZXZXZXZXZXZX",
"ZXZXZXZXZXZXZXZXZXZXZXZXZXZXZXZXZXZXZXZXZXZXZXZXZXZXZXZXZXZXZXZXZX#X).F * g.K.P.P.P.%.t . S `._.)..XZXZXZXZXZXZXZXZXZXZXZXZXZXZXZXZXZXZXZXZXZXZXZXZXZXZXZXZXZXZX",
"ZXZXZXZXZXZXZXZXZXZXZXZXZXZXZXZXZXZXZXZXZXZXZXZXZXZXZXZXZXZXZXZX:X~.+ . + s m.N.N.m.s ^ t + - = = J *XZXZXZXZXZXZXZXZXZXZXZXZXZXZXZXZXZXZXZXZXZXZXZXZXZXZXZXZXZX",
"ZXZXZXZXZXZXZXZXZXZXZXZXZXZXZXZXZXZXZXZXZXZXZXZXZXZXZXZXZXZXZX2XR.l $.- ( ^ = . + * ^ ` ( M.J.0.0.#.S >XZXZXZXZXZXZXZXZXZXZXZXZXZXZXZXZXZXZXZXZXZXZXZXZXZXZXZXZX",
"ZXZXZXZXZXZXZXZXZXZXZXZXZXZXZXZXZXZXZXZXZXZXZXZXZXZXZXZXZXZXZX1XT.t 0.M.C.C.%.+ / e.C.Z.Z.H.P.H.r.0.#.S 2XZXZXZXZXZXZXZXZXZXZXZXZXZXZXZXZXZXZXZXZXZXZXZXZXZXZXZX",
"ZXZXZXZXZXZXZXZXZXZXZXZXZXZXZXZXZXZXZXZXZXZXZXZXZXZXZXZXZXZXZX_.L *.<.P.P.H.e.&.w.G.G.P.P.x.Z.P.r.q.%.c ,XZXZXZXZXZXZXZXZXZXZXZXZXZXZXZXZXZXZXZXZXZXZXZXZXZXZXZX",
"ZXZXZXZXZXZXZXZXZXZXZXZXZXZXZXZXZXZXZXZXZXZXZXZXZXZXZXZXZXZX<XG  .r.q.K.K.Z.:.H.P.P.K.K.P.q.<.V.<.<.*.v <XZXZXZXZXZXZXZXZXZXZXZXZXZXZXZXZXZXZXZXZXZXZXZXZXZXZXZX",
"ZXZXZXZXZXZXZXZXZXZXZXZXZXZXZXZXZXZXZXZXZXZXZXZXZXZXZXZXZXZX1XG k q.<.K.G.V.:.Z.D.K.P.G.D.<.` ` :.` / C *XZXZXZXZXZXZXZXZXZXZXZXZXZXZXZXZXZXZXZXZXZXZXZXZXZXZXZX",
"ZXZXZXZXZXZXZXZXZXZXZXZXZXZXZXZXZXZXZXZXZXZXZXZXZXZXZXZXZXZX<XG u ` q.G.Z.=.` ` :.D.G.H.q.` ` q.H.r.q.%.n >XZXZXZXZXZXZXZXZXZXZXZXZXZXZXZXZXZXZXZXZXZXZXZXZXZXZX",
"ZXZXZXZXZXZXZXZXZXZXZXZXZXZXZXZXZXZXZXZXZXZXZXZXZXZXZXZXZXZXT.k C.Z.r.;.q.Z.Z.C.V.<.;.;.r.C.<.r.P.r.q.%.z ;XZXZXZXZXZXZXZXZXZXZXZXZXZXZXZXZXZXZXZXZXZXZXZXZXZXZX",
"ZXZXZXZXZXZXZXZXZXZXZXZXZXZXZXZXZXZXZXZXZXZXZXZXZXZXZXZXZX<XA o.P.P.x.=.w.q.r.G.G.x.r.r.D.P.*.a b.x.<.N.T G ZXZXZXZXZXZXZXZXZXZXZXZXZXZXZXZXZXZXZXZXZXZXZXZXZXZX",
"ZXZXZXZXZXZXZXZXZXZXZXZXZXZXZXZXZXZXZXZXZXZXZXZXZXZXZXZXZX,XA ..P.B.&.7.x.<.=.H.K.D.A.A.A.m.L n I @.<.P.m.3 ;XZXZXZXZXZXZXZXZXZXZXZXZXZXZXZXZXZXZXZXZXZXZXZXZXZX",
"ZXZXZXZXZXZXZXZXZXZXZXZXZXZXZXZXZXZXZXZXZXZXZXZXZXZXZXZXZX<XA j I.#.r -.t.F.-.D.D.t.9.7.-.r Q.2X!.s <.P.m.3 ;XZXZXZXZXZXZXZXZXZXZXZXZXZXZXZXZXZXZXZXZXZXZXZXZXZX",
"ZXZXZXZXZXZXZXZXZXZXZXZXZXZXZXZXZXZXZXZXZXZXZXZXZXZXZXZXZX<Xb M }.B X . t 7.9.9.8.9.[.2 +   Q.kX8XE.a G.b.5 ;XZXZXZXZXZXZXZXZXZXZXZXZXZXZXZXZXZXZXZXZXZXZXZXZXZX",
"ZXZXZXZXZXZXZXZXZXZXZXZXZXZXZXZXZXZXZXZXZXZXZXZXZXZXZXZXZX<XS m /.N 4 T.$ [.[.[.[.[.^.> R.@X5XCXkXE.8 |.! , ;XZXZXZXZXZXZXZXZXZXZXZXZXZXZXZXZXZXZXZXZXZXZXZXZXZX",
"ZXZXZXZXZXZXZXZXZXZXZXZXZXZXZXZXZXZXZXZXZXZXZXZXZXZXZXZXZX2XA L tXk.I Z h ^./.^./.^.j.) Z &XlXzX4X, < /.Y.3 ;XZXZXZXZXZXZXZXZXZXZXZXZXZXZXZXZXZXZXZXZXZXZXZXZXZX",
"ZXZXZXZXZXZXZXZXZXZXZXZXZXZXZXZXZXZXZXZXZXZXZXZXZXZXZXZXZX<XD  .B.M.#.t 2.[.[.[.[. X[ 5.e ).8X6XJ a I  X! 3 ;XZXZXZXZXZXZXZXZXZXZXZXZXZXZXZXZXZXZXZXZXZXZXZXZXZX",
"ZXZXZXZXZXZXZXZXZXZXZXZXZXZXZXZXZXZXZXZXZXZXZXZXZXZXZXZXZX<XA  ...e p p 1.d.7.| 8.8.3.6.u !.-XH j S.K.P.m.5 >XZXZXZXZXZXZXZXZXZXZXZXZXZXZXZXZXZXZXZXZXZXZXZXZXZX",
"ZXZXZXZXZXZXZXZXZXZXZXZXZXZXZXZXZXZXZXZXZXZXZXZXZXZXZXZXZX<XD  .#.  t | 1.X.>.} >.>.>.3.-.s @ j ..t q.P.m.5 ;XZXZXZXZXZXZXZXZXZXZXZXZXZXZXZXZXZXZXZXZXZXZXZXZXZX",
"ZXZXZXZXZXZXZXZXZXZXZXZXZXZXZXZXZXZXZXZXZXZXZXZXZXZXZXZXZX<XD  .S.l r } 1.X.8.} 5.>.>.8.3.' r ....e <.K.m.5 ;XZXZXZXZXZXZXZXZXZXZXZXZXZXZXZXZXZXZXZXZXZXZXZXZXZX",
"ZXZXZXZXZXZXZXZXZXZXZXZXZXZXZXZXZXZXZXZXZXZXZXZXZXZXZXZXZXZX_.K  .j ( 6.1.X.8.} >.>.>.>.} 3.d :  .&.V.B.I E.ZXZXZXZXZXZXZXZXZXZXZXZXZXZXZXZXZXZXZXZXZXZXZXZXZXZX",
"ZXZXZXZXZXZXZXZXZXZXZXZXZXZXZXZXZXZXZXZXZXZXZXZXZXZXZXZXZXZXZX!.1 ^ >.5.2.X.8.} >.>.>.>.4.{ *.* a g.g.T S 2XZXZXZXZXZXZXZXZXZXZXZXZXZXZXZXZXZXZXZXZXZXZXZXZXZXZX",
"ZXZXZXZXZXZXZXZXZXZXZXZXZXZXZXZXZXZXZXZXZXZXZXZXZXZXZXZXZXZXZX=X[.8.8.| ] X.7.[ 6.} 5.8.3.| c. .. +   D >XZXZXZXZXZXZXZXZXZXZXZXZXZXZXZXZXZXZXZXZXZXZXZXZXZXZXZX",
"ZXZXZXZXZXZXZXZXZXZXZXZXZXZXZXZXZXZXZXZXZXZXZXZXZXZXZXZXZXZX,XT.i c.c.| ] s...X.9.5.3.5.} | c.b.) i n -XZXZXZXZXZXZXZXZXZXZXZXZXZXZXZXZXZXZXZXZXZXZXZXZXZXZXZXZX",
"ZXZXZXZXZXZXZXZXZXZXZXZXZXZXZXZXZXZXZXZXZXZXZXZXZXZXZXZXZXZXR.g 0.c.t.} 7.2.U U a.| 5.3.| | t.&.f.{ [.1XZXZXZXZXZXZXZXZXZXZXZXZXZXZXZXZXZXZXZXZXZXZXZXZXZXZXZXZX",
"ZXZXZXZXZXZXZXZXZXZXZXZXZXZXZXZXZXZXZXZXZXZXZXZXZXZXZXZXZX<Xb / w.e.} 5.8.O.k g ; f -.3.6.} 6.@.d.2.Y Q.ZXZXZXZXZXZXZXZXZXZXZXZXZXZXZXZXZXZXZXZXZXZXZXZXZXZXZXZX",
"ZXZXZXZXZXZXZXZXZXZXZXZXZXZXZXZXZXZXZXZXZXZXZXZXZXZXZXZXZX<XS i f.a.] 1.@.s.j .     _ 3.5.} 3.@.U s.d x ,XZXZXZXZXZXZXZXZXZXZXZXZXZXZXZXZXZXZXZXZXZXZXZXZXZXZXZX",
"ZXZXZXZXZXZXZXZXZXZXZXZXZXZXZXZXZXZXZXZXZXZXZXZXZXZXZXZXZX<XS i ] s.s.U s.a._ . ZX  k ] | [ 4.@.Y O.~ n ,XZXZXZXZXZXZXZXZXZXZXZXZXZXZXZXZXZXZXZXZXZXZXZXZXZXZXZX",
"ZXZXZXZXZXZXZXZXZXZXZXZXZXZXZXZXZXZXZXZXZXZXZXZXZXZXZXZXZX<XF p | +.U U a.] { . ZX. _ f.s.s.2.O.U f.~ n ,XZXZXZXZXZXZXZXZXZXZXZXZXZXZXZXZXZXZXZXZXZXZXZXZXZXZXZX",
"ZXZXZXZXZXZXZXZXZXZXZXZXZXZXZXZXZXZXZXZXZXZXZXZXZXZXZXZXZXZX@XM ~ [ ] ] ] { y ZXZX. _ ] a.Y s.s.O.[ ~ x ,XZXZXZXZXZXZXZXZXZXZXZXZXZXZXZXZXZXZXZXZXZXZXZXZXZXZXZX",
"ZXZXZXZXZXZXZXZXZXZXZXZXZXZXZXZXZXZXZXZXZXZXZXZXZXZXZXZXZXZXZX`.M _ p.h.y.p ZXZXZXb p i _ f.O.f.f.y.g Q.ZXZXZXZXZXZXZXZXZXZXZXZXZXZXZXZXZXZXZXZXZXZXZXZXZXZXZXZX",
"ZXZXZXZXZXZXZXZXZXZXZXZXZXZXZXZXZXZXZXZXZXZXZXZXZXZXZXZXZXZXZXZXT.p y.}.Y.@ ZXZXZXZXb z f _ _ p.h.B b <XZXZXZXZXZXZXZXZXZXZXZXZXZXZXZXZXZXZXZXZXZXZXZXZXZXZXZXZX",
"ZXZXZXZXZXZXZXZXZXZXZXZXZXZXZXZXZXZXZXZXZXZXZXZXZXZXZXZXZXZXZXZXE.y y./.Y., ZXZXZXZX,X>Xn @ B h.h.m b <XZXZXZXZXZXZXZXZXZXZXZXZXZXZXZXZXZXZXZXZXZXZXZXZXZXZXZXZX",
"ZXZXZXZXZXZXZXZXZXZXZXZXZXZXZXZXZXZXZXZXZXZXZXZXZXZXZXZXZXZXZXZX;XR.V Y.x %XZXZXZXZXZXZX&X&Xb B h.~ b <XZXZXZXZXZXZXZXZXZXZXZXZXZXZXZXZXZXZXZXZXZXZXZXZXZXZXZXZX",
"ZXZXZXZXZXZXZXZXZXZXZXZXZXZXZXZXZXZXZXZXZXZXZXZXZXZXZXZXZXZXZXZX1XQ.a z.z ,XZXZXZXZXZXZXZXZX+XF h u.N H 3XZXZXZXZXZXZXZXZXZXZXZXZXZXZXZXZXZXZXZXZXZXZXZXZXZXZXZX",
"ZXZXZXZXZXZXZXZXZXZXZXZXZXZXZXZXZXZXZXZXZXZXZXZXZXZXZXZXZXZXZX`.R.M j T z >XZXZXZXZXZXZXZXZX2XG d B.P v >XZXZXZXZXZXZXZXZXZXZXZXZXZXZXZXZXZXZXZXZXZXZXZXZXZXZXZX",
"ZXZXZXZXZXZXZXZXZXZXZXZXZXZXZXZXZXZXZXZXZXZXZXZXZXZXZXZXZXZX%XC = f h.Y.z >XZXZXZXZXZXZXZXZXZXE.l v.&.v <XZXZXZXZXZXZXZXZXZXZXZXZXZXZXZXZXZXZXZXZXZXZXZXZXZXZXZX",
"ZXZXZXZXZXZXZXZXZXZXZXZXZXZXZXZXZXZXZXZXZXZXZXZXZXZXZXZXZX2XF p { y.(.B z >XZXZXZXZXZXZXZXZXZX<XE.d ) v =XZXZXZXZXZXZXZXZXZXZXZXZXZXZXZXZXZXZXZXZXZXZXZXZXZXZXZX",
"ZXZXZXZXZXZXZXZXZXZXZXZXZXZXZXZXZXZXZXZXZXZXZXZXZXZXZXZXZX2XS . = + @ X z >XZXZXZXZXZXZXZXZXZX1XE.1 j.) b >XZXZXZXZXZXZXZXZXZXZXZXZXZXZXZXZXZXZXZXZXZXZXZXZXZXZX",
"ZXZXZXZXZXZXZXZXZXZXZXZXZXZXZXZXZXZXZXZXZXZXZXZXZXZXZXZXZX<X%X_.`.`._._.@X,XZXZXZXZXZXZXZXZXZX1XG O 2 - 4 >XZXZXZXZXZXZXZXZXZXZXZXZXZXZXZXZXZXZXZXZXZXZXZXZXZXZX",
"ZXZXZXZXZXZXZXZXZXZXZXZXZXZXZXZXZXZXZXZXZXZXZXZXZXZXZXZXZXZX<X2X1X1X1X1X<XZXZXZXZXZXZXZXZXZXZX2X.XF S S Q.,XZXZXZXZXZXZXZXZXZXZXZXZXZXZXZXZXZXZXZXZXZXZXZXZXZXZX",
"ZXZXZXZXZXZXZXZXZXZXZXZXZXZXZXZXZXZXZXZXZXZXZXZXZXZXZXZXZXZXZXZXZXZXZXZXZXZXZXZXZXZXZXZXZXZXZXZX<X<X<X<X<X<XZXZXZXZXZXZXZXZXZXZXZXZXZXZXZXZXZXZXZXZXZXZXZXZXZXZX",
"ZXZXZXZXZXZXZXZXZXZXZXZXZXZXZXZXZXZXZXZXZXZXZXZXZXZXZXZXZXZXZXZXZXZXZXZXZXZXZXZXZXZXZXZXZXZXZXZXZXZXZXZXZXZXZXZXZXZXZXZXZXZXZXZXZXZXZXZXZXZXZXZXZXZXZXZXZXZXZXZX",
"ZXZXZXZXZXZXZXZXZXZXZXZXZXZXZXZXZXZXZXZXZXZXZXZXZXZXZXZXZXZXZXZXZXZXZXZXZXZXZXZXZXZXZXZXZXZXZXZXZXZXZXZXZXZXZXZXZXZXZXZXZXZXZXZXZXZXZXZXZXZXZXZXZXZXZXZXZXZXZXZX",
"ZXZXZXZXZXZXZXZXZXZXZXZXZXZXZXZXZXZXZXZXZXZXZXZXZXZXZXZXZXZXZXZXZXZXZXZXZXZXZXZXZXZXZXZXZXZXZXZXZXZXZXZXZXZXZXZXZXZXZXZXZXZXZXZXZXZXZXZXZXZXZXZXZXZXZXZXZXZXZXZX",
"ZXZXZXZXZXZXZXZXZXZXZXZXZXZXZXZXZXZXZXZXZXZXZXZXZXZXZXZXZXZXZXZXZXZXZXZXZXZXZXZXZXZXZXZXZXZXZXZXZXZXZXZXZXZXZXZXZXZXZXZXZXZXZXZXZXZXZXZXZXZXZXZXZXZXZXZXZXZXZXZX"
};
