/* XPM */
static char *e459fe77bd5e466fbfaace8d50a06d1emSYg9Fu4Hh58nfju[] = {
/* columns rows colors chars-per-pixel */
"80 80 170 2 ",
"   c #341A05",
".  c #3A1D03",
"X  c #391E0A",
"o  c #371C13",
"O  c #391E13",
"+  c #37220E",
"@  c #3D230E",
"#  c #3E2512",
"$  c #3F2913",
"%  c #3D2219",
"&  c #3E291A",
"*  c #41250E",
"=  c #412612",
"-  c #442A15",
";  c #4A2D16",
":  c #42271A",
">  c #452C1A",
",  c #492E1A",
"<  c #4A3016",
"1  c #46301A",
"2  c #4D321C",
"3  c #4E391C",
"4  c #513216",
"5  c #563816",
"6  c #52351D",
"7  c #59371C",
"8  c #54391E",
"9  c #5A3B1E",
"0  c #472D20",
"q  c #492F20",
"w  c #463022",
"e  c #4D3421",
"r  c #4E3923",
"t  c #4C3628",
"y  c #4B3B2B",
"u  c #523621",
"i  c #533721",
"p  c #523620",
"a  c #513422",
"s  c #503522",
"d  c #513623",
"f  c #523722",
"g  c #533722",
"h  c #513620",
"j  c #523724",
"k  c #503426",
"l  c #523621",
"z  c #5A3721",
"x  c #533920",
"c  c #523821",
"v  c #533823",
"b  c #543820",
"n  c #553921",
"m  c #563820",
"M  c #543822",
"N  c #543823",
"B  c #533A26",
"V  c #553924",
"C  c #563A24",
"Z  c #573B25",
"A  c #553D25",
"S  c #553A23",
"D  c #5A3A21",
"F  c #5B3B22",
"G  c #583C24",
"H  c #593D25",
"J  c #5A3C24",
"K  c #5B3D25",
"L  c #583C26",
"P  c #593D27",
"I  c #5A3E26",
"U  c #5B3F27",
"Y  c #5D3D24",
"T  c #5E3E25",
"R  c #5D3D26",
"E  c #5D3F27",
"W  c #5F3F26",
"Q  c #5B3D25",
"!  c #513729",
"~  c #523829",
"^  c #513A28",
"/  c #523B2B",
"(  c #54382A",
")  c #553B2A",
"_  c #553B29",
"`  c #593D28",
"'  c #583D28",
"]  c #5A3E28",
"[  c #5B3F29",
"{  c #5C3E29",
"}  c #613E25",
"|  c #613E29",
" . c #5D4126",
".. c #5A4029",
"X. c #5C4028",
"o. c #5D4129",
"O. c #5E4028",
"+. c #5F4129",
"@. c #5E4328",
"#. c #5C402A",
"$. c #5C402B",
"%. c #5D412B",
"&. c #5E422A",
"*. c #5F432B",
"=. c #5E422C",
"-. c #5F432D",
";. c #5E4129",
":. c #5C4231",
">. c #604027",
",. c #624226",
"<. c #6C4626",
"1. c #614128",
"2. c #604029",
"3. c #614329",
"4. c #624229",
"5. c #61412A",
"6. c #60422A",
"7. c #60442C",
"8. c #62442C",
"9. c #63452D",
"0. c #60442E",
"q. c #61452F",
"w. c #62462E",
"e. c #65472D",
"r. c #64462E",
"t. c #65472F",
"y. c #66462F",
"u. c #63432B",
"i. c #69462C",
"p. c #63482D",
"a. c #66482C",
"s. c #68492D",
"d. c #6A4A2D",
"f. c #724D2D",
"g. c #644530",
"h. c #644631",
"j. c #6A4731",
"k. c #664830",
"l. c #674931",
"z. c #664A35",
"x. c #664932",
"c. c #684A32",
"v. c #694B33",
"b. c #6B4B34",
"n. c #6A4B36",
"m. c #6B4C33",
"M. c #6D4E39",
"N. c #704E34",
"B. c #724F39",
"V. c #6E5034",
"C. c #6E5035",
"Z. c #6E513A",
"A. c #715337",
"S. c #725236",
"D. c #795233",
"F. c #7A5936",
"G. c #70543F",
"H. c #75573F",
"J. c #74543A",
"K. c #78563C",
"L. c #77583B",
"P. c #7C5A3C",
"I. c #765840",
"U. c #7C5E44",
"Y. c #7E6149",
"T. c #835B37",
"R. c #835F3D",
"E. c #826349",
"W. c #896B49",
"Q. c #896950",
/* pixels */
"&.H H ] ] ] ] ] 8 &.7.] g e , # 2 2 > ; 2 v S g 2 8 8 6 6 g g g 2 2 1 8 8 2 6 3 3 3 1 6 ..3 , 2 1 - 1 v ( t q , , : $ & : > 1 > = = - 1 c v 1 , @.p.g.7.7.M.c.9.",
"&.H H ] ] Z N Z [ ] Z 8 > # = : < > ; < 2 c 2 ; 2 8 g 6 6 a 6 6 2 8 3 2 8 8 c 2 3 2 2 2 e , = > < > 1 : : = = = @ O @ # - > > $ 1 - 1 1 _ ) t > 7.7.W S N W | W ",
"H H &.] [ ] L ] H 2 , , - X = t ; < < 1 3 3 ; ; , 8 8 g g N N 6 c 6 6 c g j e 2 , 2 , , > - * ; < < - = > e 2 8 L L L ] &.$.H g < > > 2 / / w & - ; 4 N W 8.7.&.",
"&.H ] &.[ ] ] $.8 - - , : = - t 2 < 2 ; ; 1 2 3 4 6 a 6 6 N N N 6 c 3 g e a , 0 0 t 0 - - > ; g 2 > * 2 z.I.n.g.c.c.j.9.g.c.7.H 6 < - : > w 0 & ; g ] 7.9.9.3.J ",
"&.&.] ] Z H ] ] e 2 2 1 > = $ - 2 2 2 < < 1 2 2 2 2 , , 6 a a a 6 e e e e q 0 0 : 0 > : ; 8 8 N g - = O.H.H.c.3.F W D D W ,.W W a.X.2 - = = : > 2 ] :.h.$.3.X.O.",
"H H H H ] $.$.$.e j e - = = $ $ 1 2 8 8 6 g 2 2 6 g 6 , , a a a 3 1 , > > > > > : > > : a L N 6 8 * 5 M.A.s.,.| W W W D D W O.| @.,.&.H e : & X = , j [ h.7.p.-.",
"H H H ] $.$.$.L , e > # $ $ 1 $ : , , g c g e 2 2 a 6 2 8 a a , 0 > > 0 > : 0 > : 8 , ; e L N 6 , ; 9.L.d.,.<.u.7.x.9.&.S D H W 7 Y u.9.8.j , ; = - , Z $.-.&. .",
"&.7.&.H &.] g - > > & # $ $ $ $ - = = - : > 1 > , , , 6 , a ; : 0 0 0 : : : > 0 g L 8 - , j z 8 4 ; i.S.9  .s.4.9.c.c.3.D S J W O.Y J F | 4.| 3.0 : # ; H h.x.u.",
"..r e 0 0 > , 1 1 > + @ 8 ] g = @ $ @ $ $ - 0 > > > > - : & & - & - $ $ - 8 g 2 2 2 , 2 2 , , 2 ; J a.V.3.W g.R C.x.X.A A X.Z c 2 6 A A H O.&.3.Y W - X e :.z.{ ",
"& > > > > > > , @ - , > 2 g j 2 > 1 < - $ $ - : # - : : $ $ - : : # + - 2 2 1 2 , , 2 g 2 - = @ ; O.p.s.u.| 8.L 8 A H J J S S 2 ..H X.u.7.3.W &.i.g.h.- : 0 ! ; ",
"+ $ $ # = : - = - e Z g , 2 a g < 1 1 - $ # # # # : : : # # # : - # @ 1 2 2 ; 3 , , , 2 1 ; > > 4 s.s.u.u.u.$.L 4 6 8 8 Z %.&.%.m.@.H H &.W W 7.,.s.Y.g - # : X ",
"$ $ : # : , 2 > v Z c 8 6 6 2 , < < 1 ; - - > > - > - # # # = - - ; , - - , 1 > 2 , , , , ; 8 c 8 A.s.O.a.u.&.W u. .A A -.m.z.-.x.H 8 A X.H H 9.Y W U.&.= # = - ",
"2 2 e 1 6 _ H 2 4 , ; , N S 8 2 4 2 ; ; < - - - 1 - @ $ = - ; : 1 S c > * - ; ; - , < 2 > * = < 7 A.d.,.3.W W W u.H L W p.x.7.Z A 8 S u.g.3.W W ,.7 G.m.; ; O , ",
"r r j t a 8 8 ; ; 4 z W | O.W J ,.O.Y S 2 - - * - $ @ @ ; e a z H S S c < * - ; 1 , 1 - @ + @ = 9 m.a.,.W D W ,.O.W W L S S L L S c S O.&.[ L L a.Y ,.A.4 , X t ",
"2 t j 2 - - ; 8 | i.s.s.u.O.O.,.N.N.A.C.X.1 * < $ $ - 1 2 g z j ,.J A X.H 1 = - > = * $ * $ - 3 <.d.,.3.| Y ,. .,.u.[ L 6 z R [ H H S 8 8 W 3.3.4.,.} d.z , = e ",
"e j ! , - >  .m.B.N.m.a.,.O.O.3.,.d.M.s.8 $ @ @ $ * > 3 2 z N z D O.3.O.&.%.1 X @ @ @ > 2 2 1 1 d.u.Y 8.,. .a.,.@.u.8.8.8.g.[ z S &.W S L &.9.4.u.s.,.,.z ; = , ",
"g e - - D 7 Y F.m.x.3.[ 3.3.3.3.H ] < * 1 1 > - > ; < 8 g g N L W 3.&.| 9.9.7 * # - > > L ; - , V.a.p.,.| ,.i.<.,.i.4.i.4.4.4.3.8.[ [ ,.3.8.&.8.3.W H 8.8 * - ; ",
"Z e 1 Z 3.S 7 M.x.9.3.&.3.8.3.&.c 8 < - 3 8 2 2 , ; 1 6 c g L R H 3.7.8.9.9.S - # # $ $ g - * ; d.a.,.O.| 4.i.,.4.<.i.4.4.4.3.3.3.&.| [ [ 8.8.8.3.W [ g.N = = = ",
"2 < c p.9.4 7 u.7.u.O.&.8.3.8.&.H < * 2 %.%.4 = , 2 2 N H L H [ [ 8.7.3.9.9.W 6 # @ # @ , - , 6 a.u.u. .| ,.i.4.,.,.i.4.4.3.8.3.3.&.[ &.3.8.8.3.O.,.W 7.g = - = ",
"= > X.x.W < 8 O.@.O.&.X.$.8.[ [ %.> < ..%.Z 2 = 6 2 N L ] [ [ [ 3.3.3.7.9.j.8.[ , ; ; # : - g W ,.a.u.Y | } i.4.,.i.,.4.4.| 8.8.3.| 3.&.3.8.| &.W [ H [ 2 @ = @ ",
"* 8 x.h.S 6 N R O.X.X.&.&.&.&.&.W , 8 :.Z e 6 2 2 6 N L { $.{ [ 8.&.3.g.b.x.8.W W D Z = * @ Z 8.J a.u.| ,.u.| i.,.<.,.i.9.4.9.3.| $.3.| &.u.@.O.H &.Z Z > @ : # ",
"< X.x.W 8 2 N j H H X.O.&.&.H H L , 6 z.Z.x.S > 6 N L [ | | 8.| 8.| 9.M.M.8.S 4 W L ] ; @ @ ] g.8 a.i.9 ,.i.| i.i.4.4.4.4.4.8.8.8.3.&.3.3.u.&.O.&.&.%.v > # > - ",
"5 ,.O.8 N N 6 j A J H X.H H H H W 8 4 { G.c.2 * 6 j | { { g.8.| 9.9.x.m.g.z 2 4 7 6 &.2 * = H H 6 s.9.Y ,.u.} 9.4.4.4.4.9.3.| 3.3.&.3.3.u.&.O.O.&.7.%.v ; = , : ",
" .,.4 ; L L a ( 8 A A X.Z H J L 8.[ 4 ; ; = = 6 , _ g.8.:.| 9.9.9.9.9.7.z ; 4 R 4 8 8.6 - @ 2 > , 9.9.F u.i.| i.i.<.i.9.| 3.3.&.8.&.8.&.8.3.O.X.H $.%.v > - 0 = ",
"@.8 , 8 Z g 6 S N S Z L ] L ] L J A 2 - X O = - 2 6 Z [ 3.3.3.O.W W D g 2 2 8 8 2 8 W Y 8 ; # $ 8 d.d.Y W g.| R | | | | | 8.3.[ O.O.O.J O. .@.@.u.@.%.v , - : ; ",
"X.3 , 2 j N g N D Z L H L ] L ] X.6 , - - : ; , 2 8 A H S 8 6 S S S N 6 4 8 6 6 8 8 W 9.D ; , > - u.A.m.4.| | j.| i.j.| | [ 3.3.O.H H  .@. .O.O. .H c 2 > ; , 6 ",
"J 2 ; 2 j N g N S Z Z L ] ] ] ] ] 8 - = - , , ; - 3 c A 3 3 6 6 4 8 8 2 6 4 g 8 J 7 7 d.7 ; u.&.3 2 Z 9.m.s.i.} | | i.9.8.| 3.8.X.X.H X.X.&.O.W -.A 2 , > - ; j ",
"J 2 , a g g 8 g S j Z Z L L ] ] ] g = # - 2 : = 1 3 A Z ..3 8 r 2 g 6 6 6 8 N N 9 J 5 u.4 < K.C.-.- @ 4 4.N.B.i.j.9.9.i.c.b.g.| @.X.X.O.@.@.&.[ u.c 1 > - = ; L ",
" .8 2 e N N g 8 N N N S L L L ] ) e ; - , a , - 1 r 3 v A A 6 3 8 8 g 6 g D D S 4 O.| 9.4 4 K.s.-.1 - - ; z N.B.N.m.m.m.M.M.j.9.7.u.O.&.$.h.8.$.Z 3 > > - @ 6 g.",
",.S 6 2 N N 6 8 8 N 8 N N Z L ] j 2 - - 2 g 2 ; $ $ 1 2 3 A v 3 g c 8 6 N D R D 7 3.X.6 - 8 J.<.H c ; = * ; R 4.g.c.M.M.j.s.i.j.3.| &.&.:.h.$.%.1 - - - = : L M.",
"p.H 8 2 a g 8 6 g 8 a N N L L H t , - ; 8 c 1 = $ $ - 1 r c v v r 6 8 6 8 L [ R H H g - - J m.i.L 7 4 - - = - 2 | [ | 3.j.j.j.j.| i.7.7.h.$.r 1 > : & $ = : L j.",
"p.H 2 2 6 a a 6 g g N N L L L [ ! , = , c S 2 @ 1 1 3 c c 8 c c 8 6 8 , z R R } 8 2 > - 8 x.s.i.9 F a 6 e - # 8 W 8 , z M.I.B.j.i.s.s.x.x.) 1 # 1 1 : # = - 6 H ",
"O.W 8 ; ; a z 2 Z j g 2 e Z ] ] c = * - 6 e > = ] ] 6 ; 8 A 6 6 8 3 8 7 8 R z j ; : , q | b.4.i.Y 8 8 2 , ; * = = , , - , { { [ :.:.) ( 0 : - 1 1 1 @ @ = > 2 8 ",
"8 N 8 2 ; z a 6 8 2 3 3 A H H N > * * < S 2 - @ = , , > 2 2 c S A 2 4 J L 6 , , : ; ; = , g.u.4.O.J N 4 2 , : : ; 6 ; = , a e , > > 0 > : : > - > 1 - - , 2 2 S ",
"- 2 z , , 2 , 4 3 3 2 6 X.%._ 2 1 > = - < , ; - # : : - > 2 , e 3 g c S a ; : 0 2 a 2 o ; 9.j.4.,.L 8 8 2 , ; ; ; ; : - , , - ; , > : : > > 1 > @ = $ * - , ; < ",
": , q ; ; 2 8 S J S A v Z v q 0 @ - 8 J J g : = , 1 - - 1 g e e 1 c 2 , , a ! t a ' ( = = R j.s.| W 7 6 2 ; = : * = = ; , : - , 1 > > - : = = $ = - - > g 8 2 ; ",
": > > > , g Z $.] ) ! e > 0 O o @ , N D L N , ;   @ # # , 1 , , e ; ; , ] :./ w a j { ; * 8 ,.d.,.Y D 8 4 2 ; ; = ; : ; , ; = ; * > > - > * 1 < 1 < > < Z X.2 - ",
"> > - > > e 2 1 > > : # O # O O , , , ; ; z j j X , e 2 2 : = = - ; ( h.g.t e t q , _ e * 8 ,.u.,.,.Y 8 6 6 2 ; ; ; * ; 2 ; - ; * = > - ; > 3 6 > 1 - ; Z H 2 = ",
"- $ $ $ : - # # # # % # = : = # * ; 6 4 2 z 1 @ A -.h.%.' 2 - = * z M.b.L , e / t ; ( , = z 9.d.,.,.Y 7 6 8 2 ; ; ; = = , 6 , , > - - * @ * - < ; < < < J &.A 8 ",
"$ $ $ $ # & : 0 - - - = 1 2 > @ : 2 2 ; 4 6 ; X 6 8 ; - 6 g - * 2 n.B.z ; ' :.w a ; a ; = R m.d.u.a.,.9 z z z a a z ; ; 2 z 2 4 S 2 ; - = - * - @ - = - 2 X.7 8 ",
"1 < ; - - - > - > ; < > 1 2 , # = ; , ; : - = # $ & 1 w t 2 = * E.M.' g Z S g z ! a 2 , ; 8 c.S.u.s.s.s.s.9.W D 2 = * ; 4 4 D u.S N , - = = - - 1 1 # @ ; N j z ",
"2 3 2 , ; ; < < ; 2 > - - - = # = = X X @ = = @ $ - 1 1 , = 1 $.I.j.N 2 Z N 6 L _ j Z N ; 8 | u.A.m.9.W D 8 6 ; 1 @ = N | |  .Y N N 6 ; - : : - e 1 = = , N z 6 ",
"2 2 3 < < 1 3 2 2 2 , 1 N 8 ; = = ; ; , g L Z 6 * * + @ = # , g.j.[ 8 2 N N z ( g g L Z 2 ; 4 7 8 4 ; = = - = = @ @ ; { | 7 7 7 , 6 , = - , = X $ > # @ ; a N 6 ",
"2 2 1 1 , 2 2 2 - , 8 a 6 , : = , z | 9.9.9.9.j. .< @   # : , ( | L 8 6 N z 6 ( g a N Z g 2 4 < = = = - - ; - = - , z | z 6 8 8 8 N , - ; 2 , # @ - - = - , , a ",
"8 8 8 1 2 < 1 2 - 8 Z 8 = X ; Z | 3.9.[ D F | s.s.a.6 = = ; , a [ | z N Z N z z W N L R L S 6 2 1 2 2 2 2 : = @ , ; ; 4 6 4 6 ; 2 , ; = - 1 > @ + > < - = = ; 6 ",
"1 2 1 2 2 2 2 8 Z g > - ; 2 R j.9.| z R [ | W | ,.M.V.S - = ; Z | 3.R L L L z ( | N j ] L L Z 2 8 2 e 2 , - = = = * = ; = ; : * = = * * = = - = . > ; = * @ = q ",
"= - ; < ; 3 2 2 1 = X - 8 | | 3.| L R g.j.j.9.| 7 4.g.| a - ; S | 9.| [ [ | z { [ N z ] L N c c S 2 2 c 2 2 2 g = - 4 , - : , 4 - ; 2 g 8 , > > = 1 1 = * = = - ",
"- - - - > - = * = - N 8.8.} D R R z { { { [ g.x.s.R z j.n.R 2 8 4.9.3.[ 9.8.{ | W 8 D { L g Z ] S 8 2 8 6 , , 6 2 ; - - - 2 8 : * - e ] g - @ # J H g ; = = * @ ",
"= - 1 e , 1 - @ 5 9 p.<.O.J D L ( z R R | g.9.| 8.[ D R &.W S 6 j.M.} F j.| ' :. .J %.X.c c v Z 8 2 2 2 6 q , , - , > @ - 8 , - $ - * < * . 6 j.F.K.G.<.u. .< . ",
"= - - , 2 r 2 < d.a.,. .9 O.[ R { | | | g.| 3.8.| H D L W [ D 8 a j.N.| | | { |  .8 X.X.c c ) Z g 8 6 a , 6 e , , , ; ; c $.$.Z X.c $ + - ,.H.N.6 7 J 9.M.C.9 ; ",
": = @ # 2 2 1 v f.<. . .| R L z z a z R ' R | 3.[ W L W | 3.[ R ; j g.9.9.9.| g. .8 X.H Z v Z c g g g a g a a , 6 2 - ; L 8.&.W S - 1 2 ,.H.s.; - - - ; 4 Z &.$.",
"Z 6 = @ ; = - $.p.p.<.@.[ z z 2 2 6 a j j L W [ &.H H W [ | 9.8.e - - ' j.j.g.| @. .Z Z c Z ) c g e 8 g N N j 8 N 8 ; 4 F R 8 N O.* A m.c.,.; 4 ; 1 2 8 2 1 g [ ",
"] &.8 , > * - h.d.9.3.D N 8 z L z ' R R H J H O.H W J W W &.9.i.-.1 @ 8 7.b.b.| @.8  .A c v ) c g 6 a g g g N g 8 2 2 4 W L z D < * @.x.J 2 ; W 8 2 ; 1 2 1 2 8 ",
"c H H L 8 * ; 8.3.D 8 6 z L R R Z Z _ ' Z H O.O.Z Z A J H W 4.| a.$.g , Z M.B.i.@.A 8 A A Z Z v j a a z N N N g 8 8 6 8 Z D S D . 8 p.H 4 g 2 ; 2 8 2 ; - ; 1 g ",
"2 8 8 S 2 - - 6 ; 4 6 z [ | ' z , 6 2 8 S H X.&.Z 6 A A W | 3.| ,.N.&.2 J C.d.d. .J A J Z A Z c j j z j N N N N v v 2 1 e 6 ; - 4 m.u.; 2 S N 2 ; S 7.W 8 4 6 4 ",
"8 8 8 N , - = * ; N [ 3.L z a j g g 2 g Z H X.O. .A 8 X.&.8.9.| <.s.D 7 a.m.d.d. .8 H H Z Z ) A j j ! j S Z S N A v , - 2 2 = X Y u.< , H ; - 2 4 8 6 - - 4 N 6 ",
"g g 8 e 8 - @ = ; 2 g Z g j S D 8 e 8 S W O.W O.S S D W 3.4.9.9.9.j.3.4 8.8.b.Z.H 8 R j ] x.r Z ( { ' N z [ [ L $.S < < $ @   A j.| 6 ; 4 | ,.7 , , , 6 6 8 a 2 ",
"g g 2 g 2 - # > , 2 g Z Z Z Z D %.] Z S S D D D 8 c S W W [ | 3.| 3.3.8 [ R h.M.x.g.6 8.Z.2 6 u.' { | $.$.7.$.Z N 1 @ - $ @ - p.9.6 ; 7 j.J.s.Y 6 2 8 g g N g 8 ",
"8 g g g e = = 1 , , 2 g g Z Z g Z c N 2 8 4 8 8 8 N S D L R W H 7 ,.u.8 6 , 2 ! h.Z ) b.8 ; ,.,.| 9.9.$.$.[ A w : = @ - = X 7 a.L ; 4 9.H.A.3.W 6 6 g N j N g a ",
"g 2 e 2 3 = + > , - - - , 2 8 g g 2 g 8 2 2 N D N 8 S L D L H W  .,.@.6 ; = - : , - &.4 - m.P.,.s.s.9.H v 1 1 + # - $ 1 - X a.,.N 4 L c.M.3.z 8 , 2 8 N N g 8 6 ",
"2 2 2 2 < + @ $ - = # - , 2 2 2 6 c c c S S S A S S J A J J J H 9 8 A 6 : , , , $ 3 - X j.Q.N.N.m.9.H 2 - $ + + $ $ - < > = m.i.J 7 2 D 8.| N 4 6 6 a N g 2 6 2 ",
"c g 2 1 1 @ + $ # # - , 2 a , , < > 1 8 6 Z D S S 8 S S A D S 7 A 8 3 c > 1 1 0 1 w @ e M.R R i.W c 3 = # # $ $ > < - - = # J ,.S S 8 2 2 2 6 , a g S N g 6 a g ",
"3 2 > > 1 $ + & # # = > 1 2 , ; $ @ @ - 2 c Z S S S 8 A 8 S S S A 6 2 A = - - $ 1 $ - :.t X q q 1 - = # # # # - 1 3 - - # @ * 8 g S S 8 ; : , g g N S N a 6 8 N ",
"3 1 = - 1 $ + $ # # # = - - : , < > = > 2 c S S 8 8 A 8 A J S A Z 6 3 ..= = $ $ > # : > , ! > > > & & $ # - $ = - < ; 2 : > @ < W g 6 N L H Z N g Z D N 6 6 g S ",
"> 1 > $ = - < 4 - > = @ @ $ = = < 3 2 ; 8 H W 7 Z Z N 8 N N N N 6 g 8 ; - - - - + # = 3 r - $ & 1 $ # = = = = - 8 8 , 2 8 ; * ; 7 7  .8 9 ..8 r 2 c v c 8 D S 8 ",
"$ > = * 1 O.3.8 8 2 3 ; < - = * $ - 1 2 r c 2 2 g g N 8 N 8 N N g 2 6 N 3 @ @ > = - $ # = $ + $ 1 - @ @ @ * ; 2 2 2 2 6 2 ; - 2 -.a.,.9 8 9 Z c 8 g e 2 2 g c c ",
"1 @ * S c.s.s.m.4.3.| 3.u.O.8 4 1 - - - = # # > ; ; ; 2 , 2 , 6 S 8 c v ; # = e e > - # * * - ; 8 4 4 2 < > > 1 , ; 2 r e , = = 2 Z X. . .Y J 6 8 6 8 4 8 e g 2 ",
"- * 8 m.G.u.4.S.M.j.s.s.s.m.m.d.s.u.S 7 < > : : - > , 1 2 2 6 g 8 A e > = - 0 j 1 $ # - - ; 7 4.,.u.c.p.%.2 > - 1 > 3  .2 1 2 ; $ , g c A Y J 8 8 8 g S g e > : ",
"; 8 u.u.,.,.u.,.9.i.} | | 4.i.s.d.d.f.<.d.<.4 @ - - = = - - - ; < 2 ; $ # = ; ; = - > = = J N.S.S.F.A.s.X.6 3 1 - + = - * : a 6 , , 1 2 8 S Y Y 8 8 S S w 1 : # ",
" .u.u.O.Y ,.,.O.[ | | W } L z R 5 } <.<.f.m.7 @ = = = * * * @ # * @ @ > > = * - 4 Y 7.; + J L.i.d.d.V.s.a.X.8 3 < = - - ; , 4 ; - - - > , 2 c 6 A 6 2 1 > - > e ",
"C.u.H &.@.X.O.p.$.8.[ ] R z N 6 6 A 9 ,.<.u.L - 1 2 2 , 1 1 , , 2 = $ > : - 4 9 <.F.U.H @ 8 s.} ,.,.<.a.d.s.,.7 A 8 D ] 8.| } z ; > > , > > > 1 3 1 1 - * = 1 [ ",
"O.&.@.Z %.-.-.%.] H Z Z _ ] S g y r A X.3.Z , - - > , 1 2 2 2 e _ v 1 # # 8 s.F.T.R.E.c.* ; 9.s.a.a.p.,.d.S.f.d.X.H 2 4 4.j.j.N.s.O.2 : - $ - - $ - - - - > g g.",
"3.3.| [ 4.9.9.| R W W L L D S 8 N j ' ' e = = : ; 1 > - - 1 < - e < = ; } D.F.D.W.P.c.3.Y - u.a.a.a. . .@.9.a.a.d.a. .} d.L.S.<.<.d.m.7 ; = X 0 : # # - , 2 Z Z ",
"W W [ W | 9.9.| [ | &.W W W W L F z j a , = # = @ * * - - * - * @ = ; 8 a.P.R.P.a.,.D S D 1 6 ,. . .,.a.u.<.a.u.,.a.p.<.S.L.N.,.,.i.j.} D 2 - ; - - - , g c g 8 ",
"z F | | | 9.4.[ W [ W W &.3.O.J [ L a ; - : - - * ; 8 X.O.8 6 A 2 D | | u.u. .7 5 8 8 8 S 2 * 8 8 9 ,.a.p.p.,.p.,.p.,. .,.s.s.<.i.i.i.} 3.H - = > - : 1 e Z Z S ",
"N L | 3.9.j.9.| W &.W ] [ 3.W L [ L 2 : ; g g 2 < 4 7 u.a.O. . .D Y W R 7 6 8 < A J c 2 c S + 1 3 9  .a.<.p.,.u. .,.,. .Y ,.u.u.d.,.} } a.p.< $ - ; , 3 8 S H X.",
"F | 9.9.j.9.9.9.&.&.3.[ 3.9.[ D H S 2 - , L R 8 ; 8 W W Y Y Y 7 8 7 8 8 8 N L S 8 A 8 2 3 ..+ w 3 A u.u.<.,.u.u.9 ,.a.a.p.,.,.9 7 Y 3.4.j.&.; = 2 S %.Z A A H O.",
"3.4.9.j.i.9.8.| 3.&.,.[ 3.8.W S S 2 , ; 2 N 8 8 4 W O.D J  . .A W 7 8 8 N 8 6 2 3 8 6 S ..%.> > 2 S 3.d.a.u.,.u. .@.@. . . .Y 7 9  .8.z , - = 1 $.x.x.O.S 7 ,.u.",
"9.j.g.9.| | | W W W W [ 3.8.[ z 2 2 , , 2 6 8 8 z D N z 8 N 8 8 N 6 , 6 N 8 3 , 6 Z 8 8 J 6 a = , j [ u.<.,. .O.@.@. . . . . . .7.%.S ; ; ; - g h.x.p.X.7 O.a.a.",
"j.c.c.3.[ | R L [ [ W [ 8.g.3.R 3 1 , 2 8 2 8 7 H g 8 Z D 8 8 D j 2 6 8 N 8 7 8 8 5 8 8 8 2 _ = : 2 L ,. . . .J 8 9 8 @.u.u.O. .%.2 ; ; R g.Z j 2 S @.7.a.m.p. ."
};
