/* XPM */
static char *result[] = {
/* columns rows colors chars-per-pixel */
"80 80 139 2 ",
"   c #26715F",
".  c #2A715F",
"X  c #3F745F",
"o  c #1F787E",
"O  c #257162",
"+  c #2A7260",
"@  c #26756E",
"#  c #397360",
"$  c #3C7864",
"%  c #227673",
"&  c #21787D",
"*  c #2A7A7D",
"=  c #327977",
"-  c #397974",
";  c #327978",
":  c #4C765F",
">  c #53775E",
",  c #5D795E",
"<  c #76674F",
"1  c #776850",
"2  c #7B6A51",
"3  c #64795E",
"4  c #697A5E",
"5  c #7A7C5C",
"6  c #417863",
"7  c #4B796A",
"8  c #537966",
"9  c #5C7960",
"0  c #407970",
"q  c #617C61",
"w  c #6C7F62",
"e  c #727F61",
"r  c #816E53",
"t  c #847055",
"y  c #897355",
"u  c #807D5B",
"i  c #8B7F5B",
"p  c #937655",
"a  c #977855",
"s  c #9B7A56",
"d  c #907759",
"f  c #947C5C",
"g  c #9B7D5C",
"h  c #A27E57",
"j  c #A87F55",
"k  c #6E8265",
"l  c #6D8669",
"z  c #748465",
"x  c #748869",
"c  c #7C8A6A",
"v  c #9C815A",
"b  c #AA8157",
"n  c #A78159",
"m  c #AC8259",
"M  c #B08257",
"N  c #B1855A",
"B  c #B58A5E",
"V  c #B98B5F",
"C  c #878360",
"Z  c #818A68",
"A  c #8B8B68",
"S  c #928661",
"D  c #9F8464",
"F  c #948C67",
"G  c #948D68",
"H  c #A88763",
"J  c #A08A62",
"K  c #B68C62",
"L  c #BA8D61",
"P  c #BE9165",
"I  c #B5A67E",
"U  c #BCA67C",
"Y  c #BFA97D",
"T  c #C29365",
"R  c #C99667",
"E  c #C39568",
"W  c #C7986A",
"Q  c #CB9B6C",
"!  c #CC9E71",
"~  c #D1A06F",
"^  c #DBA26F",
"/  c #CFA072",
"(  c #C4A679",
")  c #D6A472",
"_  c #D9A674",
"`  c #DBA977",
"'  c #D6A678",
"]  c #DDAB7A",
"[  c #E0AE7C",
"{  c #E3B07E",
"}  c #E9B97F",
"|  c #1F7A84",
" . c #1D7C8C",
".. c #1A7D97",
"X. c #1A7E99",
"o. c #217981",
"O. c #24A1AB",
"+. c #3FB0AC",
"@. c #26B2B5",
"#. c #29B2B4",
"$. c #33B1B0",
"%. c #68AD9C",
"&. c #7DAB94",
"*. c #71AC99",
"=. c #49AFA7",
"-. c #43B2AC",
";. c #4AB7AE",
":. c #4AB8AF",
">. c #51B9AE",
",. c #44B6B0",
"<. c #46B8B0",
"1. c #8AAA8F",
"2. c #9FA887",
"3. c #94A98B",
"4. c #86AA91",
"5. c #80B39A",
"6. c #A5A885",
"7. c #B0A780",
"8. c #B5AD84",
"9. c #BEB88C",
"0. c #C4B78A",
"q. c #C0B98D",
"w. c #E5B382",
"e. c #E9B785",
"r. c #E7B980",
"t. c #EAB885",
"y. c #EFBC8B",
"u. c #F0BD8C",
"i. c #AAC7A0",
"p. c #CFCD9A",
"a. c #D4CE9A",
"s. c #D8CF9A",
"d. c #E3C088",
"f. c #F4C38D",
"g. c #F6C98E",
"h. c #F8CB8E",
"j. c #EBCD92",
"k. c #FACD90",
"l. c #FED493",
/* pixels */
"#.#.#.#.#.#.#.#.#.#.#.#.#.#.#.#.@.#.#.#.#.#.#.#.#.#.#.#.#.#.#.#.#.#.#.#.#.#.#.#.#.#.#.#.#.#.#.#.#.#.#.#.#.#.#.#.#.#.#.#.#.#.#.#.#.#.#.#.#.#.#.#.#.#.#.#.#.#.#.#.",
"#.#.#.#.#.#.#.#.#.#.#.#.#.#.#.#.#.#.#.#.#.#.#.#.#.#.#.#.#.#.#.#.#.#.#.#.#.#.#.#.#.#.#.#.#.#.#.#.#.#.#.#.#.#.#.#.#.#.#.#.#.#.#.#.#.#.#.#.#.#.#.#.#.#.#.#.#.#.#.#.",
"#.#.#.#.#.#.#.#.#.#.#.#.#.#.#.#.#.#.#.#.#.#.#.#.#.#.#.#.#.#.#.#.#.#.#.#.#.#.#.#.#.#.#.#.#.#.#.#.#.#.#.#.#.#.#.#.#.#.#.#.#.#.#.#.#.#.#.#.#.#.#.#.#.#.#.#.#.#.#.#.",
"#.#.#.#.#.#.#.#.#.#.#.#.#.#.#.#.#.#.#.#.#.#.#.#.#.#.#.#.#.#.#.#.#.#.#.#.#.#.#.#.#.#.#.#.#.#.#.#.#.#.#.#.#.#.#.#.#.#.#.#.#.#.#.#.#.#.#.#.#.#.#.#.#.#.#.#.#.#.#.#.",
"#.#.#.#.#.#.#.#.#.#.#.#.#.#.#.#.#.#.#.#.#.#.#.#.#.#.#.#.#.#.#.#.#.#.#.#.#.#.#.#.#.#.#.#.#.#.#.#.#.#.#.#.#.#.#.#.#.#.#.#.#.#.#.#.#.#.#.#.#.#.#.#.#.#.#.#.#.#.#.#.",
"#.#.#.#.#.#.#.#.#.#.#.#.#.#.#.#.#.#.#.#.#.#.#.#.#.#.#.#.#.#.#.#.#.#.#.#.#.#.#.#.#.#.#.#.#.#.#.#.#.#.#.#.#.#.#.#.#.#.#.#.#.#.#.#.#.#.#.#.#.#.#.$.#.#.#.#.#.#.#.#.",
"#.#.#.#.#.#.#.#.#.#.#.#.#.#.#.#.#.#.#.#.#.#.#.#.#.#.#.#.#.#.#.#.#.#.#.#.#.#.#.#.#.#.#.#.#.#.#.#.#.#.#.#.#.#.#.#.#.#.#.#.#.#.#.#.#.#.#.#.#.#.#.O.#.#.#.#.#.#.#.#.",
"#.#.#.#.#.#.#.#.#.#.#.#.#.#.#.#.#.#.#.#.#.#.#.@.#.#.#.#.#.#.#.#.#.#.#.#.#.#.#.#.#.#.#.#.#.#.#.#.#.#.#.#.#.#.#.#.#.#.#.#.#.#.#.#.#.#.#.#.#.#.#.#.#.#.#.#.#.#.#.#.",
"#.#.#.#.#.#.#.#.#.#.#.#.#.#.#.#.#.#.#.#.#.#.$.+.+.+.<.<.<.+.,.,.-.<.+.+.+.+.$.#.#.#.#.#.#.#.#.#.#.#.#.#.#.#.#.#.#.#.#.#.#.#.#.#.#.#.#.#.#.#.#.#.#.#.#.#.#.#.#.#.",
"#.#.#.#.#.#.#.#.#.#.#.#.#.#.#.#.#.@.#.#.#.@.%.) ] l.l.l.l.l.l.l.l.j.) ) ) ^ &.@.#.#.#.#.#.#.#.#.#.#.#.#.#.#.#.#.#.#.#.#.#.#.#.#.#.#.#.#.#.#.#.#.#.#.#.#.#.#.#.#.",
"#.#.#.#.#.#.#.#.#.@.@.@.#.#.@.#.@.@.#.#.@.@.%._ ] l.l.l.l.l.l.l.l.l._ _ ~ ^ &.@.#.#.#.#.#.#.#.#.#.#.#.#.#.#.#.#.#.#.#.#.#.#.#.#.#.#.#.#.#.#.#.#.#.#.#.#.#.#.#.#.",
"#.#.#.#.#.#.#.#.#.=.=.-.=.-.;.;.:.:.:.>.>.<.&.] { l.l.l.l.l.l.l.h.j.Y Y U U *.#.#.#.#.#.#.#.#.#.#.#.#.#.#.#.#.#.#.#.#.#.#.#.#.#.#.#.#.#.#.#.#.#.#.#.#.#.#.#.#.#.",
"#.#.#.#.#.#.#.#.$.( ) ^ ) } l.l.l.l.l.l.l.l.l.l.l.l.l.l.l.l.l.f.^ Y $.@.#.#.#.#.#.#.#.#.#.#.#.#.#.#.#.#.#.#.#.#.#.#.#.#.#.#.#.#.#.#.#.#.#.#.#.#.#.#.#.#.#.#.#.#.",
"#.#.#.#.@.#.#.#.$.( _ _ ~ } l.l.l.l.l.l.l.l.l.l.l.l.l.l.l.l.l.g.^ ( $.#.#.#.#.#.#.#.#.#.#.#.#.#.#.#.#.#.#.#.#.#.#.#.#.#.#.#.#.#.#.#.#.#.#.#.#.#.#.#.#.#.#.#.#.#.",
"#.#.+.=.;.>.<.#.$.6.I I I 0.s.s.a.a.a.a.j.l.h.h.l.l.l.l.l.l.h.d.U I #.#.#.#.#.#.#.#.#.#.#.#.#.#.#.#.#.#.#.#.#.#.#.#.#.#.#.#.#.#.#.#.#.#.#.#.#.#.#.#.#.#.#.#.#.#.",
"#.#.6.^ } l.a.#.#.@.@.#.@.@.@.@.@.@.@.@.3.) ) ) ` l.l.l.l.r.^ 2.@.@.#.#.#.#.#.#.#.#.#.#.#.#.#.#.#.#.#.#.#.#.#.#.#.#.#.#.#.#.#.#.#.#.#.#.#.#.#.#.#.#.#.#.#.#.#.#.",
"#.#.6.^ } l.p.#.#.#.#.#.#.#.#.#.#.#.#.@.3.^ ^ ^ ` k.l.l.l.r.) 6.#.#.#.#.#.#.#.#.#.#.#.#.#.#.#.#.#.#.#.#.#.#.#.#.#.#.#.#.#.#.#.#.#.#.#.#.#.#.#.#.#.#.#.#.#.#.#.#.",
"#.#.4.I q.a.i.#.#.#.#.#.#.#.#.#.#.#.#.@.4.7.7.7.8.a.a.p.a.q.I 4.#.#.#.#.#.#.#.#.#.#.#.#.#.#.#.#.#.#.#.#.#.#.#.#.#.#.#.#.#.#.#.#.#.#.#.#.#.#.#.#.#.#.#.#.#.#.#.#.",
"#.#.#.#.@.@.#.#.#.#.#.#.#.#.#.#.#.#.#.#.#.@.@.@.@.@.@.@.@.@.@.@.#.#.#.#.#.#.#.#.#.#.#.#.#.#.#.#.#.#.#.#.#.#.#.#.#.#.#.#.#.#.#.#.#.#.#.#.#.#.#.#.#.#.#.#.#.#.#.#.",
"#.#.#.#.#.#.#.#.#.#.#.#.#.#.#.#.#.#.#.#.#.#.#.#.#.#.#.#.#.#.#.#.#.#.#.#.#.#.#.#.#.#.#.#.#.#.#.#.#.#.#.#.$.#.#.#.#.#.#.#.#.#.#.#.#.#.#.#.#.#.#.#.#.#.#.#.#.#.#.#.",
"#.#.#.#.#.#.#.#.#.#.#.#.#.#.#.#.#.#.#.#.#.#.#.#.#.#.#.#.#.#.#.#.#.#.#.#.#.#.#.#.#.#.#.#.#.#.#.#.#.#.#.#.#.#.#.#.#.#.#.#.#.#.#.#.#.#.#.#.#.#.#.#.#.#.#.#.#.#.#.#.",
"#.#.#.#.#.#.#.#.#.#.#.#.#.#.#.#.#.#.#.#.#.#.#.#.#.#.#.#.#.#.#.#.#.#.#.#.#.#.#.#.#.#.#.#.#.#.#.#.#.#.#.#.#.#.#.#.#.#.#.#.#.#.#.#.#.#.#.#.#.#.#.#.#.#.#.#.#.#.#.#.",
"#.#.#.#.#.#.#.#.#.#.#.#.#.#.#.#.#.#.#.#.#.#.#.#.#.#.#.#.#.#.#.#.#.#.#.#.#.#.#.#.#.#.#.#.#.#.#.#.#.#.#.#.#.#.#.#.#.#.#.#.#.#.#.#.#.#.#.#.#.#.#.#.#.#.#.#.#.#.#.#.",
"#.#.#.#.#.#.#.#.#.#.#.#.#.#.#.#.#.#.#.#.#.#.#.#.#.#.#.#.#.#.#.#.#.#.#.#.#.#.#.#.#.#.#.#.#.#.#.#.#.#.#.#.#.#.#.#.#.#.#.#.#.#.#.#.#.#.#.#.#.#.#.#.#.#.#.#.#.#.#.#.",
"#.#.#.#.@.@.@.#.#.#.#.#.@.#.#.#.#.#.#.#.#.#.#.#.#.#.#.#.#.#.#.#.#.#.#.#.#.#.#.#.#.#.#.#.#.#.#.#.#.#.#.#.#.@.@.@.#.#.@.@.@.@.#.#.@.@.@.#.#.#.#.#.#.#.#.#.#.#.#.#.",
"#.#.#.#.@.@.#.#.#.@.#.#.#.@.#.#.#.@.#.@.#.#.#.#.#.#.#.#.#.#.#.#.#.#.#.#.#.#.#.#.#.#.#.#.#.#.#.#.#.#.#.#.#.@.@.@.#.#.@.O.@.@.@.#.@.O.#.#.#.#.#.#.#.#.#.#.#.#.#.#.",
"O.O.O.O.O.O.O.O.O.O.O.O.O.O.O.O.O.O.O.O.O.O.O.O.O.O.O.O.O.O.O.O.O.O.O.O.O.O.O.O.O.O.O.O.O.O.O.O.O.O.O.O.O.O.O.O.O.O.O.O.O.O.O.O.O.O.O.O.O.O.O.O.O.O.O.O.O.O.O.O.",
".. . .O.......................X.X.X.X.X.X.X.....X.X.............................................................| O.o  ......... .......X.X.X.X.................",
"..............X.......X...X.X.X.X.X.X.X.......X.X.........X.......X...X.........X.X.X.X.X.X.X.X.................................X...O...................X.X.X...",
"........................X. .o.o.o.o.X.X...................X...X............. .o.o.o.o. . .o.o.o.| | | | ............................ .....X...X.......o. .o.o...",
"......................X.X.o.. . . + ..X.................X.X.................o.. + + + + . . + + . O . O  ........... ...............X.....X.X.X.X.X.o.+ + + O | ",
"..........X.X.X.X.X.X.X.X.| O O O O  .X.....X...........X.........X.....X.X.& O O O @ O O O O . O O O O ............O...X.........X.X.X.X.X.X.X.X.X. .O O O O | ",
"X....... .o.o.o.o.o.o.o.o.0 q 3 3 q o.| o.o. .....X.........X.X.....X...o.| 0 3 , , , 3 , , 3 , , q l l * |  ...................X. .| o.o.o.o.o.o.o.; q q , q = ",
"........o.. . . + . . . . 4 j N j j 6 . . . % X...........X.X.X.X.......% . 4 N N N M N N M M M M V _ ) 6   | ............X...X...| . . . . . . . O 8 j M N N > ",
"X.X.....o.O O O O O O O O 9 j j j j # O O O % X.X.X.........X.X.X.X.X...@ O 4 j m m m m m m m b b B _ ~ # O o O.X.X.X.X.X.X.X.X...| O O O O O . O O > j m m j 8 ",
"o.o.o.o.0 3 3 w q q q w x F T T T E Z z w q 7 o.o.o.o.o.o.o.o.o.o.o.o.o.8 3 S R P T P P T P P T P E ) ~ 5 3 @ | o.o.o.o.o.o.o.o.o.- q w q q q q w z A T L T L A ",
". . O . e j B V j L j ^ _ _ ) _ _ ' _ _ T j i . + + + + . . . . . . . . i N R _ ) _ ) ) ) ) _ ) ) _ ) ) B M ,   . . . . + + + +   , j M M M N N R ' _ _ ) _ _ _ ",
"O O O O q j j j j j j R _ _ ) ) ^ ) _ _ T j 5 O . O O O O . O O O O O O i j T ) ) ) ) ) ) ) ) ) ) ) ) ~ B m > O O O O . O O O O O > N j N m j j E _ ) ) ) ) ) ) ",
"c Z w q f E E ! ! ! / w.[ ` ) ) ) ^ T T T R H e 4 w w w e 4 w w w 4 4 w h j T ) _ [ [ w.[ [ [ ] ) ) ) ) T T C 4 w w e 4 4 w w e c F T T T T T T Q ' ' [ [ ) ) ) ",
"^ ^ T j E ^ [ u.y.y.y.y.u.w.) ) ) ) B j R ' R j j B j j V j j N N j N N m N T _ ] u.u.u.u.u.u.w.) ) ) ) _ _ V M j j V j j B j R ` _ ) ) _ _ ) ) ^ ^ [ y.y.^ ) ) ",
"^ ' L j E ^ ' y.y.y.y.u.u.w.) ) _ ) N j W ` W j j m j j N j j j j j N m j j T ) [ u.y.y.y.y.y.w.) ) ) ) _ _ L j j j j j j j j Q _ _ ) ) ) ) ) ) ) ) ] y.y.) ) ) ",
") ) L j Q w.w.y.y.u.y.y.y.e.w.' T T T T T T T T T T W T T W T T R T m N T T Q _ ` u.u.f.k.u.y.e.[ [ ) ) T T T T Q ' ! R R E E E T W ) _ { [ w.[ [ [ w.y.y.w.[ _ ",
") ) K j / u.u.y.y.y.y.u.y.y.u.w.j m / _ T j L ` ) ) ) _ ' _ ) ) _ ) N m Q _ ) ) ` y.u.l.l.f.y.y.u.e.) ~ K j W _ w.u.y.' ) _ ^ T n L ) ` u.u.u.y.u.u.u.y.y.u.u.] ",
"^ ) K j / u.y.y.y.y.y.y.y.y.u.w.m m ~ _ L j L _ ) ) ) / ) ) ) ) ) / m m Q _ ) _ ` y.u.l.l.f.y.u.y.e.) ) K j W ) [ y.e.^ ) ' ^ L m L ) _ y.y.y.y.y.u.y.u.y.y.u.` ",
"' ^ L j ! u.y.y.u.y.y.y.y.e.[ [ ' ) ) _ T m T w.w.w.w.w.w.w.w.] ) ) T T T T / w.e.g.k.f.g.u.y.y.y.e._ ) N j W ^ [ y.y.w.w._ ) T m L ) _ y.y.f.g.g.k.f.u.y.y.u.] ",
"^ ' L j ! y.y.y.y.y.y.y.u.w.) ' y.u.' ) L j W u.u.u.e.u.y.u.y.e.) ) _ _ K j / u.f.l.l.u.y.u.y.y.y.e.) ~ K N W _ [ y.y.u.y.' ) L n L ) _ y.y.l.l.l.l.k.y.y.y.y.] ",
") ) L j / u.y.y.u.y.y.u.u.[ ) ` y.y.` _ P h W u.y.y.y.y.e.u.u.e.) ~ ) ) B j ) u.f.l.l.u.y.y.y.y.y.e.) ) N j W ) [ y.y.y.y._ ) L j L _ ` y.u.l.l.l.l.k.u.y.u.u.[ ",
") ) L j ! u.y.y.u.g.g.u.u.w.) ' y.e.W L ! ! w.u.y.u.y.y.u.u.u.e.w.w.) ) B j / u.f.l.l.u.y.y.u.y.y.e.w.w.K j W ^ [ y.u.y.y.w.w.) W W L T ] [ u.k.f.f.f.u.y.[ [ W ",
") ) K j ! u.u.y.y.l.l.g.u.w./ ' y.y.K j ' u.u.y.y.y.y.y.y.u.y.y.y.y._ ) K n ! u.f.l.l.u.y.y.y.y.y.y.u.y.K j Q ^ ] u.y.y.y.u.u.w._ W n N ) ) e.y.y.y.y.y.y.) ) V ",
"^ ' L j ! u.y.y.y.l.l.f.u.w.) ` y.e.K j ' u.y.y.y.y.y.y.y.u.y.y.y.y._ ) K j ) u.f.l.l.u.y.y.y.y.y.y.y.y.K j W _ w.u.y.y.y.y.y.] _ W m N ) ) e.y.y.y.y.u.y.' ) K ",
"T L K j ! u.u.k.k.f.g.u.u.e.w.e.y.y.L H ' u.u.k.g.u.y.k.k.f.y.y.y.e._ ) V j / u.u.f.f.u.y.y.y.y.y.y.` ` B j ' w.e.y.y.y.y.y.y.[ ) W m N ) ) e.y.y.y.e.[ ] L L ! ",
"j N j j ! u.f.l.l.u.y.y.y.y.u.u.y.y.L j ' u.g.l.k.u.y.k.l.g.y.y.y.y._ ) K m / u.u.y.y.u.y.y.y.y.y.e.) ) K j ' u.y.y.y.y.y.y.y.[ ) W m N ) ) e.y.y.u.w.) ) N m ] ",
"j N N j / u.f.l.l.u.y.y.y.u.y.y.y.e.K j ' u.f.l.k.u.u.k.l.g.y.y.y.e.) ) B j ! u.u.y.y.y.y.y.y.y.y.e._ ) N j ' u.u.y.y.u.y.y.u.w.) W j N ) _ e.u.u.u.e._ ) m m ] ",
"W Q L j ! u.f.l.l.u.y.y.y.y.y.y.y.y.K j ' u.f.l.l.u.u.l.l.k.k.g.y.y.w.w.) R W E / y.y.y.y.y.y.w.] ) L L ' ] e.u.y.y.u.k.k.u.y.w.e.] Q W L L T W H H H L L ' ' e.",
"' _ K j ! u.u.l.l.u.y.y.y.y.y.y.u.y.K m ' u.k.l.k.u.u.k.l.l.l.k.y.y.u.u.] ) E n P y.u.y.y.y.y.w.) Q j N e.u.y.y.y.y.f.l.l.u.y.y.u.w.) ~ m m n m p 1 r m B y.u.y.",
"^ ) K j ! u.u.l.l.u.u.y.y.y.y.u.u.u.K j ' u.f.l.l.u.u.k.l.l.l.l.y.u.u.u.] ) T n P y.y.y.y.y.y.w.) ! N N e.y.y.y.y.y.u.l.l.u.y.y.u.w.) ~ N m m m p 1 y j B e.y.y.",
") ) L j ! u.f.l.l.u.y.y.u.y.y.y.y.y.K j ' u.u.u.f.y.y.l.l.l.l.k.y.y.y.y.e.e.Q j P u.u.y.u.y.y.w._ Q N N e.y.y.y.f.k.g.f.f.u.y.y.u.w.) ) Q Q Q Q K s H w.w.y.y.g.",
") _ L m ! u.f.l.l.u.y.y.y.y.u.y.y.y.K j ' u.y.y.y.y.y.k.l.l.l.k.u.y.y.y.u.u./ j P u.u.y.y.y.y.w._ Q m N w.y.y.y.g.l.l.u.y.y.y.y.u.w.) ) ) ) ) _ T j T u.y.y.y.k.",
") ) L j ! y.f.l.l.u.u.y.u.y.y.y.y.y.L j ' u.u.y.y.y.u.l.l.l.l.l.y.y.y.y.u.u.! j P u.y.y.y.u.u.w.) Q m H e.y.y.y.f.l.l.y.y.y.y.u.y.w.) ) ) ) ) _ P j T y.y.y.y.k.",
") ) K n ! y.f.l.l.u.u.y.y.y.y.y.u.y.K j ' u.u.y.y.y.u.l.l.l.l.k.y.y.y.u.u.u./ j P y.y.u.y.y.u.w._ Q m H w.y.g.l.k.l.l.y.y.y.y.y.y.y.e.w._ ) ) ) T n E y.y.g.l.l.",
") ) K j ! u.f.l.l.f.y.y.y.y.y.u.y.y.K j ' u.y.y.u.y.y.k.l.l.l.k.y.y.y.y.u.u.! j P u.y.y.y.y.y.{ ) Q N N w.u.k.l.l.l.l.y.u.y.y.y.y.y.u.e._ ) ) ) T j T u.u.l.l.l.",
") ) L m ! y.f.l.l.u.y.u.y.y.y.y.y.y.K j ' u.y.u.y.y.y.l.l.l.l.k.u.y.y.u.u.u./ j P y.y.y.y.y.y.w.) Q m N w.u.k.l.l.l.k.y.y.y.y.u.y.y.y.y.) ) ) ) T j T u.u.l.l.l.",
") ) L j ! u.f.l.l.u.y.y.y.u.y.y.u.y.K j ' u.y.y.y.y.y.k.l.l.l.k.y.y.y.y.u.u./ j P u.y.y.y.y.y.w.) ~ m N w.u.l.l.l.l.l.u.y.k.k.f.y.u.u.e._ ) ) _ T n T y.u.l.l.l.",
") _ L j ! y.f.l.l.u.y.y.y.y.y.y.u.u.K j ' u.y.y.y.y.y.l.l.l.l.k.y.y.u.u.u.u./ j P y.y.y.u.y.y.w.) / m N w.u.k.l.l.l.k.y.u.l.l.g.y.y.y.y.) ) ) ) T j E y.u.l.l.l.",
") ) K j ~ u.f.l.l.u.y.y.y.y.u.y.y.y.K j ' u.u.y.y.y.y.h.l.l.l.l.y.u.y.y.y.u.! j P u.y.y.y.y.u.w.) Q N N w.y.k.l.l.l.l.y.y.l.l.f.y.y.y.e.) ) ) ) T b T y.u.l.l.l.",
"e.e.) ~ T K Q u.f.u.y.y.y.y.y.y.y.y.K m W ` { y.y.u.y.f.f.h.l.h.y.y.y.y.[ ] W j P u.y.y.y.y.u.w.) Q m N e.y.u.u.k.l.l.y.y.y.f.f.y.y.y.y.' ) ) ) P b T y.y.u.f.k.",
"u.u.` ) T n L y.y.y.y.u.y.u.y.y.y.y.K m W ) ] y.y.y.y.y.y.h.l.k.y.y.y.y.` ) T m P y.y.u.y.y.y.w.) Q M N e.u.y.y.f.l.l.y.y.y.y.u.y.y.y.e.` ) ) ) T b E y.y.y.y.k.",
"u.u.] ) W j P y.y.y.y.y.y.y.y.y.y.y.V m W ) [ y.y.y.u.y.y.h.l.k.y.u.y.y.] ) T j P y.y.y.y.y.u.w.) Q N N w.y.y.y.f.l.l.y.y.y.y.y.u.y.y.y.) ) ) ) T n P y.y.y.y.l.",
"y.y.] ) T m P u.u.k.l.f.y.y.y.y._ ) K m W ) [ u.y.y.y.y.y.u.f.u.y.y._ ` _ ) T m L ' ` y.u.u.u.[ ) Q m m e.y.u.y.f.f.y.y.y.y.u.y.y.y.y.t.) ) ) ` T b T y.y.y.y.f.",
"y.y.] ) T j P y.u.k.l.f.y.y.y.e.) ) N m W ) ] y.y.u.y.y.y.y.y.y.y.y.) ) ) ) T m K _ ) u.y.y.u.w.) / N N w.y.y.y.y.y.y.y.y.y.y.y.y.y.y.y.) ) ) ) T m T y.y.y.y.y.",
"y.y.] ^ E j K u.u.l.l.f.y.y.y.e.) ) N m W ) ] y.y.y.y.y.u.y.y.y.y.e._ ) ) ) T j K ) ` e.y.u.u.w.) Q m N w.y.y.y.y.y.y.y.y.u.y.y.u.y.y.t._ ) ) ) P n P y.y.y.y.y.",
"y.y.] ' W j P y.u.l.l.u.y.y.u.e.) ) d 2 K ) ) ` ` _ ` t.y.y.y.y.y.y.) ) ) _ T m K ) ) ` ) e.u.[ ) / N H w.y.y.u.y.u.y.y.y.y.y.y.u.w._ ` ) ) L N P ) ) ` ` t.y.y.",
"y.y.] ^ T j T y.u.l.l.f.y.y.y.e.) ) y 1 K ) ) ) ) ) ) e.y.y.y.y.y.y.) ) ) ) T n K ) ) ) ) e.y.w.) Q N N e.y.y.y.y.y.y.y.y.y.y.u.u.w.) ) ) ) B m P _ ) ) _ y.y.y.",
"y.y.] ' T j P y.u.k.l.f.y.y.u.e.) ) y 1 K ) ) ) ) ) ) e.y.y.y.y.y.t._ ) ) ) E m V ) ) ) ) w.y.w.) Q m N w.y.y.y.y.y.y.y.y.u.y.y.u.w.) ) ) ) B n E _ _ ) ) y.y.y.",
"y.y.T N s 2 g y.u.u.u.u.y.y.y.y.) ) y 2 2 u t t y N N ) ' _ _ _ _ _ ) ) L N m m K ) ) ) ) _ _ R N N m N r.y.y.y.y.y.y.f.y.y.y.] _ _ ) ) B N N m P _ ) ) ) _ _ ' ",
"y.u.E j d 1 f y.y.u.u.u.y.y.y.e.) / y 2 2 2 2 2 r n m Q _ ) ) ) ) ) ) ) K m m m V ) ) ) ) ) ) W m m m N w.y.y.y.y.y.y.y.y.y.y.w.) ) ) ! m m m m E ) ) ) ) ) ) ) ",
"e.y.P j f 1 g y.y.y.y.y.y.y.y.e.) ) t 2 2 2 2 2 t m m Q ) ) ) ) ) ) ) ) L m m m B ) ) ) _ ) ) T m m m m w.y.y.y.y.y.y.t.y.t.y.] ) ) ) / m m m m E ) ) ) ) ) ) ' ",
"t t r r 2 2 d ' ) ' _ _ ) ) ' _ ) ) t 2 2 2 2 2 2 2 2 r r s m m m B ) ) K m p 2 r r y Q ) L N m m n 2 t / ` P N H m N K m K N W ) W N N m m m N a 2 v ) ) m N N ",
"1 2 2 2 2 2 d / ) ) ) ) ) ) ) ) ) ) y 2 2 2 2 2 2 2 2 2 2 a m m m N ~ ) K N p 2 2 2 r ! ) K m m m n 2 t Q ) P m m m m m m m m W _ W m m m m N m p 1 v ) / m m m ",
"1 2 2 2 2 2 d ) ) ) ) ) ) ) ) ) ) ) y 2 2 2 2 2 2 2 2 2 2 a N m m N ) ) V m p 2 2 2 r Q _ K m n m v 2 2 Q ' L b m m m m m m m W _ W m m m m m N p 1 f ) ) m m m "
};
